WIPSHDC-All-Traditional-Sans-ExtraLight.ufo
<glyph name="uni3A90" format="2">
  <advance width="1000" height="1000"/>
  <unicode hex="3A90"/>
  <note>
cid04265
</note>
  <outline>
    <contour>
      <point x="383" y="430" type="curve"/>
      <point x="363" y="411" type="line"/>
      <point x="402" y="391"/>
      <point x="444" y="360"/>
      <point x="466" y="336" type="curve"/>
      <point x="485" y="358" type="line"/>
      <point x="463" y="381"/>
      <point x="421" y="410"/>
    </contour>
    <contour>
      <point x="509" y="282" type="line"/>
      <point x="509" y="311" type="line"/>
      <point x="158" y="311" type="line"/>
      <point x="158" y="282" type="line"/>
    </contour>
    <contour>
      <point x="334" y="354" type="curve" smooth="yes"/>
      <point x="334" y="440" type="line"/>
      <point x="305" y="440" type="line"/>
      <point x="305" y="354" type="line" smooth="yes"/>
      <point x="305" y="228"/>
      <point x="286" y="85"/>
      <point x="125" y="-25" type="curve"/>
      <point x="132" y="-30"/>
      <point x="142" y="-39"/>
      <point x="147" y="-46" type="curve"/>
      <point x="309" y="69"/>
      <point x="334" y="218"/>
    </contour>
    <contour>
      <point x="321" y="228" type="curve"/>
      <point x="302" y="210" type="line"/>
      <point x="362" y="162"/>
      <point x="449" y="82"/>
      <point x="500" y="28" type="curve"/>
      <point x="520" y="54" type="line"/>
      <point x="470" y="105"/>
      <point x="382" y="182"/>
    </contour>
    <contour>
      <point x="499" y="475" type="line"/>
      <point x="499" y="657" type="line"/>
      <point x="113" y="657" type="line"/>
      <point x="113" y="627" type="line"/>
      <point x="470" y="627" type="line"/>
      <point x="470" y="505" type="line"/>
      <point x="113" y="505" type="line"/>
      <point x="113" y="475" type="line"/>
    </contour>
    <contour>
      <point x="141" y="752" type="curve"/>
      <point x="97" y="765" type="line"/>
      <point x="97" y="423" type="line" smooth="yes"/>
      <point x="97" y="284"/>
      <point x="92" y="95"/>
      <point x="36" y="-49" type="curve"/>
      <point x="45" y="-53"/>
      <point x="56" y="-63"/>
      <point x="60" y="-69" type="curve"/>
      <point x="119" y="84"/>
      <point x="127" y="281"/>
      <point x="127" y="423" type="curve" smooth="yes"/>
      <point x="127" y="742" type="line"/>
      <point x="136" y="743"/>
      <point x="140" y="747"/>
    </contour>
    <contour>
      <point x="473" y="783" type="curve"/>
      <point x="445" y="807" type="line"/>
      <point x="370" y="784"/>
      <point x="227" y="765"/>
      <point x="108" y="753" type="curve"/>
      <point x="113" y="745"/>
      <point x="117" y="734"/>
      <point x="119" y="727" type="curve"/>
      <point x="239" y="738"/>
      <point x="383" y="758"/>
    </contour>
    <contour>
      <point x="901" y="431" type="line"/>
      <point x="901" y="461" type="line"/>
      <point x="527" y="461" type="line"/>
      <point x="527" y="431" type="line"/>
    </contour>
    <contour>
      <point x="901" y="463" type="line"/>
      <point x="895" y="461" type="line"/>
      <point x="889" y="461" type="line"/>
      <point x="889" y="453" type="line"/>
      <point x="829" y="184"/>
      <point x="654" y="22"/>
      <point x="470" y="-48" type="curve"/>
      <point x="476" y="-54"/>
      <point x="484" y="-65"/>
      <point x="488" y="-71" type="curve"/>
      <point x="678" y="5"/>
      <point x="855" y="168"/>
      <point x="919" y="454" type="curve"/>
    </contour>
    <contour>
      <point x="603" y="428" type="curve"/>
      <point x="577" y="422" type="line"/>
      <point x="623" y="209"/>
      <point x="762" y="19"/>
      <point x="938" y="-70" type="curve"/>
      <point x="944" y="-63"/>
      <point x="952" y="-53"/>
      <point x="960" y="-47" type="curve"/>
      <point x="785" y="38"/>
      <point x="647" y="221"/>
    </contour>
    <contour>
      <point x="952" y="628" type="line"/>
      <point x="952" y="658" type="line"/>
      <point x="725" y="658" type="line"/>
      <point x="725" y="628" type="line"/>
    </contour>
    <contour>
      <point x="739" y="449" type="line"/>
      <point x="739" y="828" type="line"/>
      <point x="710" y="828" type="line"/>
      <point x="710" y="449" type="line"/>
    </contour>
  </outline>
</glyph>
<glyph name="uni3B39" format="2">
  <advance width="1000" height="1000"/>
  <unicode hex="3B39"/>
  <note>
cid04444
</note>
  <outline>
    <contour>
      <point x="330" y="763" type="line"/>
      <point x="330" y="792" type="line"/>
      <point x="132" y="792" type="line"/>
      <point x="132" y="763" type="line"/>
    </contour>
    <contour>
      <point x="330" y="522" type="line"/>
      <point x="330" y="551" type="line"/>
      <point x="132" y="551" type="line"/>
      <point x="132" y="522" type="line"/>
    </contour>
    <contour>
      <point x="332" y="275" type="line"/>
      <point x="332" y="304" type="line"/>
      <point x="129" y="304" type="line"/>
      <point x="129" y="275" type="line"/>
    </contour>
    <contour>
      <point x="147" y="437" type="curve" smooth="yes"/>
      <point x="147" y="792" type="line"/>
      <point x="118" y="792" type="line"/>
      <point x="118" y="437" type="line" smooth="yes"/>
      <point x="118" y="289"/>
      <point x="112" y="89"/>
      <point x="40" y="-55" type="curve"/>
      <point x="48" y="-58"/>
      <point x="60" y="-65"/>
      <point x="66" y="-71" type="curve"/>
      <point x="138" y="76"/>
      <point x="147" y="286"/>
    </contour>
    <contour>
      <point x="347" y="-22" type="curve" smooth="yes"/>
      <point x="347" y="792" type="line"/>
      <point x="318" y="792" type="line"/>
      <point x="318" y="-22" type="line" smooth="yes"/>
      <point x="318" y="-37"/>
      <point x="312" y="-41"/>
      <point x="298" y="-42" type="curve" smooth="yes"/>
      <point x="285" y="-43"/>
      <point x="240" y="-43"/>
      <point x="184" y="-42" type="curve"/>
      <point x="189" y="-51"/>
      <point x="194" y="-64"/>
      <point x="197" y="-70" type="curve"/>
      <point x="265" y="-71"/>
      <point x="300" y="-70"/>
      <point x="320" y="-65" type="curve" smooth="yes"/>
      <point x="338" y="-60"/>
      <point x="347" y="-48"/>
    </contour>
    <contour>
      <point x="868" y="166" type="line"/>
      <point x="868" y="195" type="line"/>
      <point x="434" y="195" type="line"/>
      <point x="434" y="166" type="line"/>
    </contour>
    <contour>
      <point x="961" y="331" type="line"/>
      <point x="961" y="361" type="line"/>
      <point x="378" y="361" type="line"/>
      <point x="378" y="331" type="line"/>
    </contour>
    <contour>
      <point x="883" y="131" type="line"/>
      <point x="883" y="522" type="line"/>
      <point x="440" y="522" type="line"/>
      <point x="440" y="492" type="line"/>
      <point x="854" y="492" type="line"/>
      <point x="854" y="131" type="line"/>
    </contour>
    <contour>
      <point x="673" y="-20" type="curve" smooth="yes"/>
      <point x="673" y="501" type="line"/>
      <point x="644" y="501" type="line"/>
      <point x="644" y="-21" type="line" smooth="yes"/>
      <point x="644" y="-36"/>
      <point x="640" y="-40"/>
      <point x="624" y="-41" type="curve" smooth="yes"/>
      <point x="608" y="-42"/>
      <point x="555" y="-42"/>
      <point x="488" y="-40" type="curve"/>
      <point x="493" y="-50"/>
      <point x="498" y="-62"/>
      <point x="501" y="-70" type="curve"/>
      <point x="576" y="-70"/>
      <point x="622" y="-70"/>
      <point x="644" y="-65" type="curve" smooth="yes"/>
      <point x="666" y="-59"/>
      <point x="673" y="-48"/>
    </contour>
    <contour>
      <point x="878" y="797" type="curve"/>
      <point x="851" y="820" type="line"/>
      <point x="770" y="798"/>
      <point x="614" y="777"/>
      <point x="485" y="766" type="curve"/>
      <point x="489" y="758"/>
      <point x="494" y="747"/>
      <point x="495" y="740" type="curve"/>
      <point x="626" y="751"/>
      <point x="782" y="771"/>
    </contour>
    <contour>
      <point x="512" y="768" type="curve"/>
      <point x="482" y="774" type="line"/>
      <point x="458" y="686"/>
      <point x="417" y="600"/>
      <point x="368" y="539" type="curve"/>
      <point x="376" y="535"/>
      <point x="388" y="525"/>
      <point x="393" y="522" type="curve"/>
      <point x="441" y="583"/>
      <point x="484" y="675"/>
    </contour>
    <contour>
      <point x="641" y="722" type="curve"/>
      <point x="614" y="716" type="line"/>
      <point x="638" y="664"/>
      <point x="659" y="597"/>
      <point x="663" y="552" type="curve"/>
      <point x="693" y="560" type="line"/>
      <point x="687" y="604"/>
      <point x="667" y="671"/>
    </contour>
    <contour>
      <point x="816" y="749" type="curve"/>
      <point x="790" y="736" type="line"/>
      <point x="844" y="675"/>
      <point x="902" y="592"/>
      <point x="927" y="536" type="curve"/>
      <point x="954" y="552" type="line"/>
      <point x="928" y="606"/>
      <point x="870" y="688"/>
    </contour>
  </outline>
</glyph>
<glyph name="uni40D7" format="2">
  <advance width="1000" height="1000"/>
  <unicode hex="40D7"/>
  <note>
cid05986
</note>
  <outline>
    <contour>
      <point x="570" y="170" type="curve"/>
      <point x="549" y="153" type="line"/>
      <point x="607" y="110"/>
      <point x="667" y="51"/>
      <point x="695" y="10" type="curve"/>
      <point x="716" y="30" type="line"/>
      <point x="686" y="72"/>
      <point x="626" y="129"/>
    </contour>
    <contour>
      <point x="675" y="369" type="curve"/>
      <point x="647" y="380" type="line"/>
      <point x="626" y="333"/>
      <point x="592" y="269"/>
      <point x="566" y="226" type="curve"/>
      <point x="588" y="215" type="line"/>
      <point x="616" y="257"/>
      <point x="649" y="316"/>
    </contour>
    <contour>
      <point x="772" y="146" type="line"/>
      <point x="772" y="707" type="line"/>
      <point x="742" y="707" type="line"/>
      <point x="742" y="146" type="line"/>
    </contour>
    <contour>
      <point x="921" y="-16" type="curve" smooth="yes"/>
      <point x="921" y="816" type="line"/>
      <point x="891" y="816" type="line"/>
      <point x="891" y="-17" type="line" smooth="yes"/>
      <point x="891" y="-32"/>
      <point x="887" y="-35"/>
      <point x="875" y="-36" type="curve" smooth="yes"/>
      <point x="861" y="-36"/>
      <point x="816" y="-37"/>
      <point x="765" y="-35" type="curve"/>
      <point x="771" y="-46"/>
      <point x="776" y="-62"/>
      <point x="779" y="-70" type="curve"/>
      <point x="833" y="-70"/>
      <point x="874" y="-69"/>
      <point x="893" y="-64" type="curve" smooth="yes"/>
      <point x="912" y="-58"/>
      <point x="921" y="-46"/>
    </contour>
    <contour>
      <point x="322" y="735" type="line"/>
      <point x="322" y="765" type="line"/>
      <point x="56" y="765" type="line"/>
      <point x="56" y="735" type="line"/>
    </contour>
    <contour>
      <point x="293" y="76" type="line"/>
      <point x="293" y="473" type="line"/>
      <point x="135" y="473" type="line"/>
      <point x="135" y="443" type="line"/>
      <point x="265" y="443" type="line"/>
      <point x="265" y="105" type="line"/>
      <point x="135" y="105" type="line"/>
      <point x="135" y="76" type="line"/>
    </contour>
    <contour>
      <point x="202" y="751" type="curve"/>
      <point x="173" y="755" type="line"/>
      <point x="149" y="564"/>
      <point x="108" y="382"/>
      <point x="35" y="264" type="curve"/>
      <point x="43" y="259"/>
      <point x="56" y="250"/>
      <point x="61" y="245" type="curve"/>
      <point x="133" y="370"/>
      <point x="175" y="551"/>
    </contour>
    <contour>
      <point x="150" y="-17" type="line"/>
      <point x="150" y="473" type="line"/>
      <point x="122" y="473" type="line"/>
      <point x="122" y="-17" type="line"/>
    </contour>
    <contour>
      <point x="382" y="375" type="curve"/>
      <point x="357" y="365" type="line"/>
      <point x="391" y="318"/>
      <point x="423" y="255"/>
      <point x="436" y="212" type="curve"/>
      <point x="461" y="225" type="line"/>
      <point x="447" y="267"/>
      <point x="415" y="329"/>
    </contour>
    <contour>
      <point x="641" y="717" type="line"/>
      <point x="641" y="746" type="line"/>
      <point x="437" y="746" type="line"/>
      <point x="437" y="717" type="line"/>
    </contour>
    <contour>
      <point x="623" y="565" type="line"/>
      <point x="623" y="594" type="line"/>
      <point x="398" y="594" type="line"/>
      <point x="398" y="565" type="line"/>
    </contour>
    <contour>
      <point x="709" y="436" type="line"/>
      <point x="709" y="466" type="line"/>
      <point x="328" y="466" type="line"/>
      <point x="328" y="436" type="line"/>
    </contour>
    <contour>
      <point x="533" y="-30" type="curve" smooth="yes"/>
      <point x="533" y="461" type="line"/>
      <point x="504" y="461" type="line"/>
      <point x="504" y="-30" type="line" smooth="yes"/>
      <point x="504" y="-40"/>
      <point x="501" y="-42"/>
      <point x="492" y="-43" type="curve" smooth="yes"/>
      <point x="482" y="-43"/>
      <point x="453" y="-43"/>
      <point x="415" y="-42" type="curve"/>
      <point x="420" y="-51"/>
      <point x="426" y="-64"/>
      <point x="427" y="-72" type="curve"/>
      <point x="470" y="-72"/>
      <point x="498" y="-71"/>
      <point x="512" y="-66" type="curve" smooth="yes"/>
      <point x="528" y="-61"/>
      <point x="533" y="-51"/>
    </contour>
    <contour>
      <point x="318" y="33" type="curve"/>
      <point x="335" y="7" type="line"/>
      <point x="384" y="50"/>
      <point x="437" y="98"/>
      <point x="489" y="147" type="curve"/>
      <point x="478" y="171" type="line"/>
      <point x="418" y="118"/>
      <point x="359" y="66"/>
    </contour>
    <contour>
      <point x="466" y="826" type="curve"/>
      <point x="436" y="830" type="line"/>
      <point x="419" y="737"/>
      <point x="392" y="605"/>
      <point x="370" y="528" type="curve"/>
      <point x="401" y="523" type="line"/>
      <point x="420" y="600"/>
      <point x="449" y="729"/>
    </contour>
    <contour>
      <point x="639" y="749" type="line"/>
      <point x="633" y="746" type="line"/>
      <point x="629" y="746" type="line"/>
      <point x="629" y="740" type="line"/>
      <point x="621" y="675"/>
      <point x="603" y="541"/>
      <point x="586" y="452" type="curve"/>
      <point x="615" y="449" type="line"/>
      <point x="631" y="539"/>
      <point x="650" y="665"/>
      <point x="659" y="745" type="curve"/>
    </contour>
  </outline>
</glyph>
<glyph name="uni41F6" format="2">
  <advance width="1000" height="1000"/>
  <unicode hex="41F6"/>
  <note>
cid06289
</note>
  <outline>
    <contour>
      <point x="842" y="404" type="line"/>
      <point x="842" y="433" type="line"/>
      <point x="215" y="433" type="line"/>
      <point x="215" y="404" type="line"/>
    </contour>
    <contour>
      <point x="829" y="263" type="line"/>
      <point x="829" y="293" type="line"/>
      <point x="207" y="293" type="line"/>
      <point x="207" y="263" type="line"/>
    </contour>
    <contour>
      <point x="840" y="111" type="line"/>
      <point x="840" y="141" type="line"/>
      <point x="195" y="141" type="line"/>
      <point x="195" y="111" type="line"/>
    </contour>
    <contour>
      <point x="231" y="256" type="curve" smooth="yes"/>
      <point x="231" y="433" type="line"/>
      <point x="201" y="433" type="line"/>
      <point x="201" y="257" type="line" smooth="yes"/>
      <point x="201" y="160"/>
      <point x="183" y="38"/>
      <point x="78" y="-52" type="curve"/>
      <point x="84" y="-56"/>
      <point x="93" y="-67"/>
      <point x="98" y="-75" type="curve"/>
      <point x="210" y="20"/>
      <point x="231" y="153"/>
    </contour>
    <contour>
      <point x="855" y="-17" type="curve" smooth="yes"/>
      <point x="855" y="433" type="line"/>
      <point x="825" y="433" type="line"/>
      <point x="825" y="-17" type="line" smooth="yes"/>
      <point x="825" y="-35"/>
      <point x="820" y="-39"/>
      <point x="800" y="-40" type="curve" smooth="yes"/>
      <point x="779" y="-42"/>
      <point x="713" y="-42"/>
      <point x="623" y="-40" type="curve"/>
      <point x="628" y="-50"/>
      <point x="633" y="-61"/>
      <point x="636" y="-70" type="curve"/>
      <point x="736" y="-70"/>
      <point x="794" y="-71"/>
      <point x="820" y="-65" type="curve" smooth="yes"/>
      <point x="847" y="-59"/>
      <point x="855" y="-45"/>
    </contour>
    <contour>
      <point x="530" y="126" type="line"/>
      <point x="530" y="421" type="line"/>
      <point x="501" y="421" type="line"/>
      <point x="501" y="126" type="line"/>
    </contour>
    <contour>
      <point x="651" y="537" type="line"/>
      <point x="651" y="566" type="line"/>
      <point x="329" y="566" type="line"/>
      <point x="329" y="537" type="line"/>
    </contour>
    <contour>
      <point x="396" y="623" type="curve"/>
      <point x="362" y="629" type="line"/>
      <point x="309" y="548"/>
      <point x="210" y="444"/>
      <point x="80" y="369" type="curve"/>
      <point x="87" y="365"/>
      <point x="97" y="357"/>
      <point x="103" y="350" type="curve"/>
      <point x="235" y="429"/>
      <point x="334" y="534"/>
    </contour>
    <contour>
      <point x="654" y="568" type="line"/>
      <point x="648" y="566" type="line"/>
      <point x="642" y="566" type="line"/>
      <point x="642" y="559" type="line"/>
      <point x="611" y="514"/>
      <point x="553" y="455"/>
      <point x="502" y="422" type="curve"/>
      <point x="509" y="419"/>
      <point x="519" y="413"/>
      <point x="524" y="408" type="curve"/>
      <point x="575" y="443"/>
      <point x="636" y="499"/>
      <point x="674" y="554" type="curve"/>
    </contour>
    <contour>
      <point x="488" y="718" type="line"/>
      <point x="488" y="747" type="line"/>
      <point x="157" y="747" type="line"/>
      <point x="157" y="718" type="line"/>
    </contour>
    <contour>
      <point x="924" y="718" type="line"/>
      <point x="924" y="747" type="line"/>
      <point x="531" y="747" type="line"/>
      <point x="531" y="718" type="line"/>
    </contour>
    <contour>
      <point x="220" y="825" type="curve"/>
      <point x="191" y="832" type="line"/>
      <point x="160" y="751"/>
      <point x="108" y="672"/>
      <point x="49" y="618" type="curve"/>
      <point x="57" y="614"/>
      <point x="70" y="604"/>
      <point x="75" y="600" type="curve"/>
      <point x="131" y="656"/>
      <point x="185" y="739"/>
    </contour>
    <contour>
      <point x="600" y="825" type="curve"/>
      <point x="571" y="832" type="line"/>
      <point x="537" y="750"/>
      <point x="476" y="676"/>
      <point x="408" y="626" type="curve"/>
      <point x="416" y="621"/>
      <point x="428" y="612"/>
      <point x="433" y="607" type="curve"/>
      <point x="500" y="659"/>
      <point x="564" y="738"/>
    </contour>
    <contour>
      <point x="259" y="733" type="curve"/>
      <point x="231" y="726" type="line"/>
      <point x="253" y="689"/>
      <point x="275" y="640"/>
      <point x="283" y="609" type="curve"/>
      <point x="312" y="619" type="line"/>
      <point x="303" y="648"/>
      <point x="280" y="697"/>
    </contour>
    <contour>
      <point x="658" y="739" type="curve"/>
      <point x="633" y="727" type="line"/>
      <point x="668" y="691"/>
      <point x="703" y="640"/>
      <point x="718" y="606" type="curve"/>
      <point x="743" y="620" type="line"/>
      <point x="728" y="653"/>
      <point x="692" y="703"/>
    </contour>
  </outline>
</glyph>
<glyph name="uni4599" format="2">
  <advance width="1000" height="1000"/>
  <unicode hex="4599"/>
  <note>
cid07322
</note>
  <outline>
    <contour>
      <point x="833" y="371" type="line"/>
      <point x="833" y="400" type="line"/>
      <point x="532" y="400" type="line"/>
      <point x="532" y="371" type="line"/>
    </contour>
    <contour>
      <point x="868" y="297" type="line"/>
      <point x="868" y="327" type="line"/>
      <point x="294" y="327" type="line"/>
      <point x="294" y="297" type="line"/>
    </contour>
    <contour>
      <point x="550" y="311" type="line"/>
      <point x="550" y="459" type="line"/>
      <point x="521" y="459" type="line"/>
      <point x="521" y="311" type="line"/>
    </contour>
    <contour>
      <point x="792" y="236" type="line"/>
      <point x="789" y="265" type="line"/>
      <point x="357" y="233" type="line"/>
      <point x="360" y="205" type="line"/>
    </contour>
    <contour>
      <point x="541" y="192" type="curve" smooth="yes"/>
      <point x="541" y="308" type="line"/>
      <point x="512" y="308" type="line"/>
      <point x="512" y="192" type="line" smooth="yes"/>
      <point x="512" y="146"/>
      <point x="532" y="139"/>
      <point x="607" y="139" type="curve" smooth="yes"/>
      <point x="622" y="139"/>
      <point x="801" y="139"/>
      <point x="818" y="139" type="curve" smooth="yes"/>
      <point x="872" y="139"/>
      <point x="884" y="155"/>
      <point x="888" y="220" type="curve"/>
      <point x="878" y="222"/>
      <point x="868" y="225"/>
      <point x="859" y="230" type="curve"/>
      <point x="857" y="175"/>
      <point x="850" y="169"/>
      <point x="813" y="169" type="curve" smooth="yes"/>
      <point x="779" y="169"/>
      <point x="630" y="169"/>
      <point x="604" y="169" type="curve" smooth="yes"/>
      <point x="549" y="169"/>
      <point x="541" y="173"/>
    </contour>
    <contour>
      <point x="311" y="222" type="curve" smooth="yes"/>
      <point x="311" y="327" type="line"/>
      <point x="281" y="327" type="line"/>
      <point x="281" y="223" type="line" smooth="yes"/>
      <point x="281" y="142"/>
      <point x="266" y="35"/>
      <point x="183" y="-46" type="curve"/>
      <point x="190" y="-50"/>
      <point x="202" y="-59"/>
      <point x="207" y="-65" type="curve"/>
      <point x="291" y="20"/>
      <point x="311" y="136"/>
    </contour>
    <contour>
      <point x="871" y="328" type="line"/>
      <point x="865" y="327" type="line"/>
      <point x="859" y="327" type="line"/>
      <point x="859" y="321" type="line"/>
      <point x="849" y="296"/>
      <point x="834" y="274"/>
      <point x="821" y="255" type="curve"/>
      <point x="847" y="246" type="line"/>
      <point x="862" y="266"/>
      <point x="876" y="294"/>
      <point x="889" y="321" type="curve"/>
    </contour>
    <contour>
      <point x="507" y="111" type="curve"/>
      <point x="478" y="111" type="line"/>
      <point x="471" y="6"/>
      <point x="424" y="-22"/>
      <point x="288" y="-42" type="curve"/>
      <point x="294" y="-47"/>
      <point x="303" y="-60"/>
      <point x="306" y="-67" type="curve"/>
      <point x="449" y="-44"/>
      <point x="499" y="-6"/>
    </contour>
    <contour>
      <point x="685" y="-6" type="curve" smooth="yes"/>
      <point x="685" y="111" type="line"/>
      <point x="656" y="111" type="line"/>
      <point x="656" y="-6" type="line" smooth="yes"/>
      <point x="656" y="-47"/>
      <point x="670" y="-54"/>
      <point x="725" y="-54" type="curve" smooth="yes"/>
      <point x="736" y="-54"/>
      <point x="851" y="-54"/>
      <point x="863" y="-54" type="curve" smooth="yes"/>
      <point x="909" y="-54"/>
      <point x="919" y="-34"/>
      <point x="922" y="53" type="curve"/>
      <point x="914" y="56"/>
      <point x="902" y="59"/>
      <point x="894" y="65" type="curve"/>
      <point x="892" y="-16"/>
      <point x="887" y="-25"/>
      <point x="859" y="-25" type="curve" smooth="yes"/>
      <point x="837" y="-25"/>
      <point x="740" y="-25"/>
      <point x="724" y="-25" type="curve" smooth="yes"/>
      <point x="690" y="-25"/>
      <point x="685" y="-21"/>
    </contour>
    <contour>
      <point x="868" y="478" type="curve"/>
      <point x="841" y="504" type="line"/>
      <point x="700" y="477"/>
      <point x="443" y="458"/>
      <point x="174" y="455" type="curve"/>
      <point x="177" y="448"/>
      <point x="181" y="436"/>
      <point x="181" y="428" type="curve"/>
      <point x="448" y="429"/>
      <point x="713" y="448"/>
    </contour>
    <contour>
      <point x="193" y="278" type="curve" smooth="yes"/>
      <point x="193" y="454" type="line"/>
      <point x="164" y="464" type="line"/>
      <point x="164" y="278" type="line" smooth="yes"/>
      <point x="164" y="166"/>
      <point x="153" y="48"/>
      <point x="59" y="-46" type="curve"/>
      <point x="67" y="-50"/>
      <point x="77" y="-59"/>
      <point x="82" y="-65" type="curve"/>
      <point x="181" y="33"/>
      <point x="193" y="156"/>
    </contour>
    <contour>
      <point x="515" y="769" type="line"/>
      <point x="515" y="798" type="line"/>
      <point x="116" y="798" type="line"/>
      <point x="116" y="514" type="line"/>
      <point x="145" y="514" type="line"/>
      <point x="145" y="769" type="line"/>
    </contour>
    <contour>
      <point x="496" y="595" type="line"/>
      <point x="496" y="707" type="line"/>
      <point x="133" y="707" type="line"/>
      <point x="133" y="678" type="line"/>
      <point x="467" y="678" type="line"/>
      <point x="467" y="625" type="line"/>
      <point x="133" y="625" type="line"/>
      <point x="133" y="595" type="line"/>
    </contour>
    <contour>
      <point x="340" y="685" type="line"/>
      <point x="340" y="782" type="line"/>
      <point x="311" y="782" type="line"/>
      <point x="311" y="685" type="line"/>
    </contour>
    <contour>
      <point x="343" y="514" type="line"/>
      <point x="343" y="617" type="line"/>
      <point x="314" y="617" type="line"/>
      <point x="314" y="514" type="line"/>
    </contour>
    <contour>
      <point x="518" y="503" type="line"/>
      <point x="518" y="532" type="line"/>
      <point x="116" y="532" type="line"/>
      <point x="116" y="503" type="line"/>
    </contour>
    <contour>
      <point x="748" y="807" type="curve"/>
      <point x="719" y="812" type="line"/>
      <point x="696" y="691"/>
      <point x="623" y="579"/>
      <point x="531" y="522" type="curve"/>
      <point x="538" y="516"/>
      <point x="549" y="504"/>
      <point x="553" y="499" type="curve"/>
      <point x="647" y="561"/>
      <point x="722" y="680"/>
    </contour>
    <contour>
      <point x="700" y="678" type="curve"/>
      <point x="681" y="658" type="line"/>
      <point x="756" y="612"/>
      <point x="841" y="547"/>
      <point x="885" y="502" type="curve"/>
      <point x="904" y="526" type="line"/>
      <point x="859" y="571"/>
      <point x="775" y="634"/>
    </contour>
  </outline>
</glyph>
<glyph name="uni48A2" format="2">
  <advance width="1000" height="1000"/>
  <unicode hex="48A2"/>
  <note>
cid08133
</note>
  <outline>
    <contour>
      <point x="199" y="87" type="line"/>
      <point x="229" y="87" type="line"/>
      <point x="229" y="355" type="line"/>
      <point x="50" y="355" type="line"/>
      <point x="50" y="326" type="line"/>
      <point x="199" y="326" type="line"/>
    </contour>
    <contour>
      <point x="229" y="103" type="curve"/>
      <point x="202" y="103" type="line"/>
      <point x="151" y="53"/>
      <point x="91" y="1"/>
      <point x="45" y="-36" type="curve"/>
      <point x="65" y="-63" type="line"/>
      <point x="115" y="-19"/>
      <point x="167" y="28"/>
      <point x="216" y="75" type="curve"/>
      <point x="280" y="-5"/>
      <point x="378" y="-46"/>
      <point x="518" y="-50" type="curve" smooth="yes"/>
      <point x="623" y="-54"/>
      <point x="840" y="-52"/>
      <point x="940" y="-49" type="curve"/>
      <point x="942" y="-39"/>
      <point x="947" y="-25"/>
      <point x="952" y="-18" type="curve"/>
      <point x="848" y="-23"/>
      <point x="620" y="-25"/>
      <point x="516" y="-22" type="curve" smooth="yes"/>
      <point x="386" y="-17"/>
      <point x="284" y="23"/>
    </contour>
    <contour>
      <point x="115" y="812" type="curve"/>
      <point x="95" y="792" type="line"/>
      <point x="160" y="760"/>
      <point x="231" y="709"/>
      <point x="267" y="669" type="curve"/>
      <point x="286" y="691" type="line"/>
      <point x="251" y="730"/>
      <point x="179" y="780"/>
    </contour>
    <contour>
      <point x="78" y="608" type="curve"/>
      <point x="58" y="587" type="line"/>
      <point x="126" y="558"/>
      <point x="203" y="508"/>
      <point x="240" y="468" type="curve"/>
      <point x="260" y="491" type="line"/>
      <point x="223" y="531"/>
      <point x="145" y="579"/>
    </contour>
    <contour>
      <point x="827" y="435" type="line"/>
      <point x="827" y="465" type="line"/>
      <point x="424" y="465" type="line"/>
      <point x="424" y="435" type="line"/>
    </contour>
    <contour>
      <point x="843" y="333" type="line"/>
      <point x="843" y="564" type="line"/>
      <point x="413" y="564" type="line"/>
      <point x="413" y="534" type="line"/>
      <point x="813" y="534" type="line"/>
      <point x="813" y="363" type="line"/>
      <point x="413" y="363" type="line"/>
      <point x="413" y="333" type="line"/>
    </contour>
    <contour>
      <point x="435" y="441" type="curve" smooth="yes"/>
      <point x="435" y="564" type="line"/>
      <point x="405" y="564" type="line"/>
      <point x="405" y="441" type="line" smooth="yes"/>
      <point x="405" y="337"/>
      <point x="384" y="194"/>
      <point x="278" y="85" type="curve"/>
      <point x="285" y="81"/>
      <point x="297" y="71"/>
      <point x="301" y="63" type="curve"/>
      <point x="412" y="178"/>
      <point x="435" y="331"/>
    </contour>
    <contour>
      <point x="829" y="94" type="line"/>
      <point x="470" y="94" type="line"/>
      <point x="470" y="236" type="line"/>
      <point x="829" y="236" type="line"/>
    </contour>
    <contour>
      <point x="859" y="64" type="line"/>
      <point x="859" y="265" type="line"/>
      <point x="440" y="265" type="line"/>
      <point x="440" y="64" type="line"/>
    </contour>
    <contour>
      <point x="618" y="803" type="curve"/>
      <point x="695" y="717"/>
      <point x="823" y="642"/>
      <point x="936" y="598" type="curve"/>
      <point x="940" y="604"/>
      <point x="948" y="616"/>
      <point x="954" y="622" type="curve"/>
      <point x="842" y="662"/>
      <point x="710" y="739"/>
      <point x="630" y="830" type="curve"/>
      <point x="601" y="830" type="line"/>
      <point x="541" y="746"/>
      <point x="418" y="663"/>
      <point x="293" y="613" type="curve"/>
      <point x="300" y="606"/>
      <point x="308" y="596"/>
      <point x="311" y="589" type="curve"/>
      <point x="435" y="643"/>
      <point x="552" y="724"/>
    </contour>
    <contour>
      <point x="765" y="631" type="line"/>
      <point x="765" y="660" type="line"/>
      <point x="481" y="660" type="line"/>
      <point x="481" y="631" type="line"/>
    </contour>
  </outline>
</glyph>
<glyph name="uni4BCB" format="2">
  <advance width="1000" height="1000"/>
  <unicode hex="4BCB"/>
  <note>
cid08985
</note>
  <outline>
    <contour>
      <point x="950" y="583" type="line"/>
      <point x="950" y="613" type="line"/>
      <point x="490" y="613" type="line"/>
      <point x="490" y="583" type="line"/>
    </contour>
    <contour>
      <point x="758" y="815" type="curve"/>
      <point x="737" y="799" type="line"/>
      <point x="784" y="762"/>
      <point x="835" y="709"/>
      <point x="859" y="671" type="curve"/>
      <point x="880" y="690" type="line"/>
      <point x="857" y="726"/>
      <point x="805" y="778"/>
    </contour>
    <contour>
      <point x="645" y="825" type="curve"/>
      <point x="615" y="826" type="line"/>
      <point x="609" y="452"/>
      <point x="592" y="148"/>
      <point x="460" y="-44" type="curve"/>
      <point x="467" y="-49"/>
      <point x="478" y="-59"/>
      <point x="484" y="-64" type="curve"/>
      <point x="618" y="143"/>
      <point x="635" y="436"/>
    </contour>
    <contour>
      <point x="871" y="496" type="curve"/>
      <point x="842" y="500" type="line"/>
      <point x="803" y="253"/>
      <point x="720" y="71"/>
      <point x="560" y="-40" type="curve"/>
      <point x="567" y="-46"/>
      <point x="577" y="-57"/>
      <point x="581" y="-63" type="curve"/>
      <point x="743" y="57"/>
      <point x="828" y="238"/>
    </contour>
    <contour>
      <point x="635" y="591" type="curve"/>
      <point x="611" y="587" type="line"/>
      <point x="652" y="278"/>
      <point x="742" y="33"/>
      <point x="933" y="-70" type="curve"/>
      <point x="938" y="-63"/>
      <point x="948" y="-53"/>
      <point x="955" y="-47" type="curve"/>
      <point x="765" y="47"/>
      <point x="675" y="291"/>
    </contour>
    <contour>
      <point x="406" y="243" type="line"/>
      <point x="406" y="273" type="line"/>
      <point x="149" y="273" type="line"/>
      <point x="149" y="243" type="line"/>
    </contour>
    <contour>
      <point x="406" y="112" type="line"/>
      <point x="406" y="141" type="line"/>
      <point x="149" y="141" type="line"/>
      <point x="149" y="112" type="line"/>
    </contour>
    <contour>
      <point x="408" y="371" type="line"/>
      <point x="408" y="400" type="line"/>
      <point x="136" y="400" type="line"/>
      <point x="136" y="-70" type="line"/>
      <point x="166" y="-70" type="line"/>
      <point x="166" y="371" type="line"/>
    </contour>
    <contour>
      <point x="420" y="-30" type="curve" smooth="yes"/>
      <point x="420" y="400" type="line"/>
      <point x="390" y="400" type="line"/>
      <point x="390" y="-30" type="line" smooth="yes"/>
      <point x="390" y="-40"/>
      <point x="387" y="-43"/>
      <point x="377" y="-44" type="curve" smooth="yes"/>
      <point x="366" y="-45"/>
      <point x="331" y="-45"/>
      <point x="287" y="-44" type="curve"/>
      <point x="292" y="-52"/>
      <point x="298" y="-64"/>
      <point x="300" y="-71" type="curve"/>
      <point x="353" y="-71"/>
      <point x="381" y="-71"/>
      <point x="398" y="-65" type="curve" smooth="yes"/>
      <point x="415" y="-60"/>
      <point x="420" y="-50"/>
    </contour>
    <contour>
      <point x="421" y="506" type="line"/>
      <point x="421" y="791" type="line"/>
      <point x="135" y="791" type="line"/>
      <point x="135" y="506" type="line"/>
      <point x="165" y="506" type="line"/>
      <point x="165" y="762" type="line"/>
      <point x="391" y="762" type="line"/>
      <point x="391" y="506" type="line"/>
    </contour>
    <contour>
      <point x="481" y="411" type="line"/>
      <point x="481" y="521" type="line"/>
      <point x="75" y="521" type="line"/>
      <point x="75" y="402" type="line"/>
      <point x="104" y="402" type="line"/>
      <point x="104" y="491" type="line"/>
      <point x="452" y="491" type="line"/>
      <point x="452" y="411" type="line"/>
    </contour>
    <contour>
      <point x="411" y="644" type="line"/>
      <point x="411" y="673" type="line"/>
      <point x="256" y="673" type="line"/>
      <point x="256" y="505" type="line"/>
      <point x="285" y="505" type="line"/>
      <point x="285" y="644" type="line"/>
    </contour>
  </outline>
</glyph>
<glyph name="uni4E22" format="2">
  <advance width="1000"/>
  <unicode hex="4E22"/>
  <note>
cid09530
</note>
  <outline>
    <contour>
      <point x="835" y="547" type="line"/>
      <point x="835" y="577" type="line"/>
      <point x="169" y="577" type="line"/>
      <point x="169" y="547" type="line"/>
    </contour>
    <contour>
      <point x="939" y="344" type="line"/>
      <point x="939" y="374" type="line"/>
      <point x="65" y="374" type="line"/>
      <point x="65" y="344" type="line"/>
    </contour>
    <contour>
      <point x="514" y="361" type="line"/>
      <point x="514" y="754" type="line"/>
      <point x="484" y="754" type="line"/>
      <point x="484" y="361" type="line"/>
    </contour>
    <contour>
      <point x="414" y="345" type="curve"/>
      <point x="382" y="355" type="line"/>
      <point x="342" y="251"/>
      <point x="269" y="96"/>
      <point x="212" y="3" type="curve"/>
      <point x="240" y="-8" type="line"/>
      <point x="298" y="87"/>
      <point x="365" y="234"/>
    </contour>
    <contour>
      <point x="82" y="6" type="curve"/>
      <point x="86" y="-25" type="line"/>
      <point x="280" y="-17"/>
      <point x="579" y="-4"/>
      <point x="861" y="10" type="curve"/>
      <point x="862" y="36" type="line"/>
      <point x="573" y="23"/>
      <point x="267" y="11"/>
    </contour>
    <contour>
      <point x="681" y="243" type="curve"/>
      <point x="657" y="228" type="line"/>
      <point x="748" y="134"/>
      <point x="858" y="5"/>
      <point x="912" y="-75" type="curve"/>
      <point x="937" y="-57" type="line"/>
      <point x="885" y="21"/>
      <point x="774" y="149"/>
    </contour>
    <contour>
      <point x="848" y="793" type="curve"/>
      <point x="825" y="821" type="line"/>
      <point x="675" y="781"/>
      <point x="370" y="758"/>
      <point x="133" y="748" type="curve"/>
      <point x="137" y="739"/>
      <point x="141" y="726"/>
      <point x="142" y="718" type="curve"/>
      <point x="381" y="726"/>
      <point x="685" y="751"/>
    </contour>
  </outline>
</glyph>
<glyph name="uni4E2B" format="2">
  <advance width="1000" height="1000"/>
  <unicode hex="4E2B"/>
  <note>
cid09542
</note>
  <outline>
    <contour>
      <point x="515" y="508" type="line"/>
      <point x="485" y="508" type="line"/>
      <point x="485" y="-70" type="line"/>
      <point x="515" y="-70" type="line"/>
    </contour>
    <contour>
      <point x="196" y="812" type="curve"/>
      <point x="176" y="794" type="line"/>
      <point x="278" y="717"/>
      <point x="387" y="616"/>
      <point x="442" y="548" type="curve"/>
      <point x="464" y="570" type="line"/>
      <point x="408" y="639"/>
      <point x="298" y="739"/>
    </contour>
    <contour>
      <point x="841" y="796" type="curve"/>
      <point x="814" y="813" type="line"/>
      <point x="729" y="704"/>
      <point x="596" y="573"/>
      <point x="492" y="497" type="curve"/>
      <point x="512" y="477" type="line"/>
      <point x="617" y="557"/>
      <point x="744" y="680"/>
    </contour>
  </outline>
</glyph>
<glyph name="uni4E3D" format="2">
  <advance width="1000" height="1000"/>
  <unicode hex="4E3D"/>
  <note>
cid09565
</note>
  <outline>
    <contour>
      <point x="240" y="420" type="curve"/>
      <point x="214" y="411" type="line"/>
      <point x="255" y="348"/>
      <point x="295" y="266"/>
      <point x="310" y="211" type="curve"/>
      <point x="338" y="223" type="line"/>
      <point x="322" y="277"/>
      <point x="282" y="358"/>
    </contour>
    <contour>
      <point x="684" y="407" type="curve"/>
      <point x="659" y="397" type="line"/>
      <point x="701" y="338"/>
      <point x="744" y="258"/>
      <point x="762" y="203" type="curve"/>
      <point x="789" y="216" type="line"/>
      <point x="771" y="269"/>
      <point x="727" y="348"/>
    </contour>
    <contour>
      <point x="421" y="600" type="line"/>
      <point x="112" y="600" type="line"/>
      <point x="112" y="-69" type="line"/>
      <point x="141" y="-69" type="line"/>
      <point x="141" y="571" type="line"/>
      <point x="421" y="571" type="line"/>
    </contour>
    <contour>
      <point x="453" y="767" type="line"/>
      <point x="77" y="767" type="line"/>
      <point x="77" y="738" type="line"/>
      <point x="453" y="738" type="line"/>
    </contour>
    <contour>
      <point x="865" y="600" type="line"/>
      <point x="552" y="600" type="line"/>
      <point x="552" y="-69" type="line"/>
      <point x="581" y="-69" type="line"/>
      <point x="581" y="571" type="line"/>
      <point x="865" y="571" type="line"/>
    </contour>
    <contour>
      <point x="923" y="767" type="line"/>
      <point x="530" y="767" type="line"/>
      <point x="530" y="738" type="line"/>
      <point x="923" y="738" type="line"/>
    </contour>
    <contour>
      <point x="439" y="600" type="line"/>
      <point x="410" y="600" type="line"/>
      <point x="410" y="-27" type="line" smooth="yes"/>
      <point x="410" y="-39"/>
      <point x="405" y="-43"/>
      <point x="393" y="-43" type="curve" smooth="yes"/>
      <point x="382" y="-44"/>
      <point x="341" y="-44"/>
      <point x="291" y="-43" type="curve"/>
      <point x="296" y="-52"/>
      <point x="302" y="-63"/>
      <point x="304" y="-70" type="curve"/>
      <point x="364" y="-71"/>
      <point x="397" y="-71"/>
      <point x="415" y="-65" type="curve" smooth="yes"/>
      <point x="432" y="-59"/>
      <point x="439" y="-50"/>
      <point x="439" y="-26" type="curve" smooth="yes"/>
    </contour>
    <contour>
      <point x="888" y="600" type="line"/>
      <point x="859" y="600" type="line"/>
      <point x="859" y="-26" type="line" smooth="yes"/>
      <point x="859" y="-39"/>
      <point x="854" y="-43"/>
      <point x="841" y="-43" type="curve" smooth="yes"/>
      <point x="830" y="-44"/>
      <point x="787" y="-44"/>
      <point x="735" y="-43" type="curve"/>
      <point x="740" y="-52"/>
      <point x="745" y="-63"/>
      <point x="747" y="-70" type="curve"/>
      <point x="811" y="-71"/>
      <point x="845" y="-71"/>
      <point x="864" y="-65" type="curve" smooth="yes"/>
      <point x="881" y="-60"/>
      <point x="888" y="-50"/>
      <point x="888" y="-26" type="curve" smooth="yes"/>
    </contour>
  </outline>
</glyph>
<glyph name="uni4E93" format="2">
  <advance width="1000" height="1000"/>
  <unicode hex="4E93"/>
  <note>
cid09704
</note>
  <outline>
    <contour>
      <point x="827" y="726" type="line"/>
      <point x="827" y="755" type="line"/>
      <point x="179" y="755" type="line"/>
      <point x="179" y="726" type="line"/>
    </contour>
    <contour>
      <point x="917" y="464" type="line"/>
      <point x="917" y="493" type="line"/>
      <point x="86" y="493" type="line"/>
      <point x="86" y="464" type="line"/>
    </contour>
    <contour>
      <point x="344" y="431" type="curve" smooth="yes"/>
      <point x="344" y="475" type="line"/>
      <point x="314" y="475" type="line"/>
      <point x="314" y="431" type="line" smooth="yes"/>
      <point x="314" y="296"/>
      <point x="301" y="97"/>
      <point x="81" y="-51" type="curve"/>
      <point x="88" y="-57"/>
      <point x="96" y="-67"/>
      <point x="101" y="-73" type="curve"/>
      <point x="324" y="80"/>
      <point x="344" y="287"/>
    </contour>
    <contour>
      <point x="693" y="-70" type="line"/>
      <point x="693" y="475" type="line"/>
      <point x="664" y="475" type="line"/>
      <point x="664" y="-70" type="line"/>
    </contour>
  </outline>
</glyph>
<glyph name="uni4F28" format="2">
  <advance width="1000" height="1000"/>
  <unicode hex="4F28"/>
  <note>
cid09931
</note>
  <outline>
    <contour>
      <point x="755" y="429" type="line"/>
      <point x="755" y="459" type="line"/>
      <point x="427" y="459" type="line"/>
      <point x="427" y="429" type="line"/>
    </contour>
    <contour>
      <point x="387" y="122" type="curve"/>
      <point x="402" y="95" type="line"/>
      <point x="502" y="132"/>
      <point x="642" y="186"/>
      <point x="773" y="237" type="curve"/>
      <point x="767" y="263" type="line"/>
      <point x="627" y="210"/>
      <point x="480" y="155"/>
    </contour>
    <contour>
      <point x="905" y="629" type="line"/>
      <point x="905" y="659" type="line"/>
      <point x="453" y="659" type="line"/>
      <point x="453" y="629" type="line"/>
    </contour>
    <contour>
      <point x="923" y="659" type="curve"/>
      <point x="894" y="659" type="line"/>
      <point x="894" y="650" type="line" smooth="yes"/>
      <point x="878" y="173"/>
      <point x="860" y="8"/>
      <point x="823" y="-30" type="curve" smooth="yes"/>
      <point x="812" y="-42"/>
      <point x="800" y="-45"/>
      <point x="779" y="-44" type="curve" smooth="yes"/>
      <point x="756" y="-44"/>
      <point x="686" y="-44"/>
      <point x="611" y="-37" type="curve"/>
      <point x="616" y="-46"/>
      <point x="619" y="-58"/>
      <point x="620" y="-67" type="curve"/>
      <point x="684" y="-72"/>
      <point x="749" y="-74"/>
      <point x="782" y="-73" type="curve" smooth="yes"/>
      <point x="814" y="-72"/>
      <point x="833" y="-66"/>
      <point x="851" y="-46" type="curve" smooth="yes"/>
      <point x="892" y="0"/>
      <point x="907" y="159"/>
      <point x="923" y="636" type="curve" smooth="yes"/>
      <point x="923" y="642"/>
      <point x="923" y="659"/>
    </contour>
    <contour>
      <point x="535" y="823" type="curve"/>
      <point x="505" y="829" type="line"/>
      <point x="464" y="684"/>
      <point x="398" y="545"/>
      <point x="314" y="452" type="curve"/>
      <point x="322" y="448"/>
      <point x="336" y="439"/>
      <point x="342" y="435" type="curve"/>
      <point x="421" y="530"/>
      <point x="490" y="671"/>
    </contour>
    <contour>
      <point x="205" y="580" type="line"/>
      <point x="205" y="-68" type="line"/>
      <point x="234" y="-68" type="line"/>
      <point x="234" y="609" type="line"/>
      <point x="234" y="610" type="line"/>
    </contour>
    <contour>
      <point x="350" y="816" type="curve"/>
      <point x="323" y="823" type="line"/>
      <point x="255" y="657"/>
      <point x="145" y="497"/>
      <point x="29" y="393" type="curve"/>
      <point x="36" y="387"/>
      <point x="47" y="376"/>
      <point x="51" y="370" type="curve"/>
      <point x="168" y="480"/>
      <point x="278" y="641"/>
    </contour>
  </outline>
</glyph>
<glyph name="uni4F4D" format="2">
  <advance width="1000" height="1000"/>
  <unicode hex="4F4D"/>
  <note>
cid09979
</note>
  <outline>
    <contour>
      <point x="627" y="600" type="line"/>
      <point x="627" y="820" type="line"/>
      <point x="598" y="820" type="line"/>
      <point x="598" y="600" type="line"/>
    </contour>
    <contour>
      <point x="926" y="588" type="line"/>
      <point x="926" y="618" type="line"/>
      <point x="313" y="618" type="line"/>
      <point x="313" y="588" type="line"/>
    </contour>
    <contour>
      <point x="435" y="500" type="curve"/>
      <point x="409" y="496" type="line"/>
      <point x="450" y="358"/>
      <point x="487" y="176"/>
      <point x="497" y="73" type="curve"/>
      <point x="525" y="80" type="line"/>
      <point x="516" y="180"/>
      <point x="477" y="361"/>
    </contour>
    <contour>
      <point x="832" y="504" type="curve"/>
      <point x="801" y="511" type="line"/>
      <point x="772" y="379"/>
      <point x="721" y="200"/>
      <point x="678" y="77" type="curve"/>
      <point x="704" y="69" type="line"/>
      <point x="746" y="188"/>
      <point x="799" y="368"/>
    </contour>
    <contour>
      <point x="956" y="-19" type="line"/>
      <point x="956" y="10" type="line"/>
      <point x="284" y="10" type="line"/>
      <point x="284" y="-19" type="line"/>
    </contour>
    <contour>
      <point x="328" y="819" type="curve"/>
      <point x="299" y="827" type="line"/>
      <point x="236" y="667"/>
      <point x="134" y="511"/>
      <point x="27" y="410" type="curve"/>
      <point x="34" y="404"/>
      <point x="44" y="391"/>
      <point x="49" y="385" type="curve"/>
      <point x="157" y="494"/>
      <point x="260" y="651"/>
    </contour>
    <contour>
      <point x="187" y="588" type="line"/>
      <point x="187" y="-68" type="line"/>
      <point x="217" y="-68" type="line"/>
      <point x="217" y="615" type="line"/>
      <point x="215" y="616" type="line"/>
    </contour>
  </outline>
</glyph>
<glyph name="uni4FDE" format="2">
  <advance width="1000" height="1000"/>
  <unicode hex="4FDE"/>
  <note>
cid10212
</note>
  <outline>
    <contour>
      <point x="713" y="543" type="line"/>
      <point x="713" y="572" type="line"/>
      <point x="280" y="572" type="line"/>
      <point x="280" y="543" type="line"/>
    </contour>
    <contour>
      <point x="493" y="801" type="curve"/>
      <point x="598" y="680"/>
      <point x="784" y="553"/>
      <point x="944" y="482" type="curve"/>
      <point x="948" y="489"/>
      <point x="956" y="501"/>
      <point x="963" y="507" type="curve"/>
      <point x="805" y="573"/>
      <point x="614" y="703"/>
      <point x="504" y="830" type="curve"/>
      <point x="476" y="830" type="line"/>
      <point x="391" y="711"/>
      <point x="215" y="576"/>
      <point x="36" y="495" type="curve"/>
      <point x="43" y="488"/>
      <point x="50" y="478"/>
      <point x="54" y="472" type="curve"/>
      <point x="232" y="556"/>
      <point x="406" y="690"/>
    </contour>
    <contour>
      <point x="618" y="98" type="line"/>
      <point x="618" y="416" type="line"/>
      <point x="588" y="416" type="line"/>
      <point x="588" y="98" type="line"/>
    </contour>
    <contour>
      <point x="453" y="-23" type="curve" smooth="yes"/>
      <point x="453" y="442" type="line"/>
      <point x="424" y="442" type="line"/>
      <point x="424" y="-24" type="line" smooth="yes"/>
      <point x="424" y="-33"/>
      <point x="421" y="-36"/>
      <point x="409" y="-37" type="curve" smooth="yes"/>
      <point x="396" y="-38"/>
      <point x="355" y="-38"/>
      <point x="305" y="-36" type="curve"/>
      <point x="311" y="-46"/>
      <point x="317" y="-60"/>
      <point x="320" y="-67" type="curve"/>
      <point x="373" y="-67"/>
      <point x="410" y="-67"/>
      <point x="428" y="-62" type="curve" smooth="yes"/>
      <point x="448" y="-56"/>
      <point x="453" y="-45"/>
    </contour>
    <contour>
      <point x="829" y="-22" type="curve" smooth="yes"/>
      <point x="829" y="458" type="line"/>
      <point x="800" y="458" type="line"/>
      <point x="800" y="-22" type="line" smooth="yes"/>
      <point x="800" y="-34"/>
      <point x="797" y="-37"/>
      <point x="780" y="-38" type="curve" smooth="yes"/>
      <point x="763" y="-39"/>
      <point x="709" y="-40"/>
      <point x="644" y="-38" type="curve"/>
      <point x="650" y="-48"/>
      <point x="657" y="-61"/>
      <point x="660" y="-69" type="curve"/>
      <point x="731" y="-69"/>
      <point x="776" y="-69"/>
      <point x="799" y="-64" type="curve" smooth="yes"/>
      <point x="822" y="-58"/>
      <point x="829" y="-47"/>
    </contour>
    <contour>
      <point x="444" y="413" type="line"/>
      <point x="444" y="442" type="line"/>
      <point x="162" y="442" type="line"/>
      <point x="162" y="-68" type="line"/>
      <point x="191" y="-68" type="line"/>
      <point x="191" y="413" type="line"/>
    </contour>
    <contour>
      <point x="442" y="269" type="line"/>
      <point x="442" y="298" type="line"/>
      <point x="176" y="298" type="line"/>
      <point x="176" y="269" type="line"/>
    </contour>
    <contour>
      <point x="442" y="123" type="line"/>
      <point x="442" y="152" type="line"/>
      <point x="176" y="152" type="line"/>
      <point x="176" y="123" type="line"/>
    </contour>
  </outline>
</glyph>
<glyph name="uni4FEC" format="2">
  <advance width="1000"/>
  <unicode hex="4FEC"/>
  <note>
cid10209
</note>
  <outline>
    <contour>
      <point x="748" y="798" type="curve"/>
      <point x="717" y="804" type="line"/>
      <point x="694" y="566"/>
      <point x="647" y="217"/>
      <point x="605" y="11" type="curve"/>
      <point x="632" y="3" type="line"/>
      <point x="674" y="214"/>
      <point x="722" y="560"/>
    </contour>
    <contour>
      <point x="836" y="353" type="curve"/>
      <point x="810" y="346" type="line"/>
      <point x="862" y="216"/>
      <point x="909" y="45"/>
      <point x="922" y="-66" type="curve"/>
      <point x="950" y="-60" type="line"/>
      <point x="937" y="52"/>
      <point x="890" y="223"/>
    </contour>
    <contour>
      <point x="543" y="14" type="curve"/>
      <point x="551" y="-16" type="line"/>
      <point x="652" y="-1"/>
      <point x="785" y="22"/>
      <point x="916" y="44" type="curve"/>
      <point x="915" y="69" type="line"/>
      <point x="778" y="47"/>
      <point x="639" y="27"/>
    </contour>
    <contour>
      <point x="476" y="737" type="line"/>
      <point x="446" y="737" type="line"/>
      <point x="446" y="-65" type="line"/>
      <point x="476" y="-65" type="line"/>
    </contour>
    <contour>
      <point x="623" y="538" type="line"/>
      <point x="279" y="538" type="line"/>
      <point x="279" y="509" type="line"/>
      <point x="623" y="509" type="line"/>
    </contour>
    <contour>
      <point x="471" y="521" type="curve"/>
      <point x="447" y="529" type="line"/>
      <point x="412" y="386"/>
      <point x="335" y="213"/>
      <point x="269" y="129" type="curve"/>
      <point x="276" y="124"/>
      <point x="285" y="113"/>
      <point x="290" y="106" type="curve"/>
      <point x="356" y="195"/>
      <point x="433" y="375"/>
    </contour>
    <contour>
      <point x="615" y="780" type="curve"/>
      <point x="590" y="803" type="line"/>
      <point x="526" y="765"/>
      <point x="401" y="728"/>
      <point x="297" y="704" type="curve"/>
      <point x="302" y="696"/>
      <point x="307" y="686"/>
      <point x="309" y="679" type="curve"/>
      <point x="415" y="704"/>
      <point x="540" y="739"/>
    </contour>
    <contour>
      <point x="474" y="410" type="curve"/>
      <point x="455" y="395" type="line"/>
      <point x="482" y="369"/>
      <point x="575" y="259"/>
      <point x="598" y="224" type="curve"/>
      <point x="621" y="247" type="line"/>
      <point x="599" y="275"/>
      <point x="499" y="385"/>
    </contour>
    <contour>
      <point x="275" y="823" type="curve"/>
      <point x="246" y="830" type="line"/>
      <point x="203" y="673"/>
      <point x="133" y="521"/>
      <point x="48" y="421" type="curve"/>
      <point x="55" y="415"/>
      <point x="66" y="403"/>
      <point x="70" y="397" type="curve"/>
      <point x="155" y="505"/>
      <point x="228" y="660"/>
    </contour>
    <contour>
      <point x="201" y="635" type="line"/>
      <point x="172" y="606" type="line"/>
      <point x="172" y="-67" type="line"/>
      <point x="201" y="-67" type="line"/>
      <point x="201" y="634" type="line"/>
    </contour>
  </outline>
</glyph>
<glyph name="uni503C" format="2">
  <advance width="1000" height="1000"/>
  <unicode hex="503C"/>
  <note>
cid10373
</note>
  <outline>
    <contour>
      <point x="911" y="687" type="line"/>
      <point x="911" y="717" type="line"/>
      <point x="324" y="717" type="line"/>
      <point x="324" y="687" type="line"/>
    </contour>
    <contour>
      <point x="949" y="-40" type="line"/>
      <point x="949" y="-11" type="line"/>
      <point x="282" y="-11" type="line"/>
      <point x="282" y="-40" type="line"/>
    </contour>
    <contour>
      <point x="846" y="-20" type="line"/>
      <point x="846" y="569" type="line"/>
      <point x="387" y="569" type="line"/>
      <point x="387" y="-20" type="line"/>
      <point x="417" y="-20" type="line"/>
      <point x="417" y="539" type="line"/>
      <point x="817" y="539" type="line"/>
      <point x="817" y="-20" type="line"/>
    </contour>
    <contour>
      <point x="830" y="396" type="line"/>
      <point x="830" y="425" type="line"/>
      <point x="402" y="425" type="line"/>
      <point x="402" y="396" type="line"/>
    </contour>
    <contour>
      <point x="834" y="252" type="line"/>
      <point x="834" y="281" type="line"/>
      <point x="401" y="281" type="line"/>
      <point x="401" y="252" type="line"/>
    </contour>
    <contour>
      <point x="832" y="107" type="line"/>
      <point x="832" y="136" type="line"/>
      <point x="404" y="136" type="line"/>
      <point x="404" y="107" type="line"/>
    </contour>
    <contour>
      <point x="626" y="553" type="line"/>
      <point x="626" y="831" type="line"/>
      <point x="597" y="831" type="line"/>
      <point x="597" y="553" type="line"/>
    </contour>
    <contour>
      <point x="320" y="819" type="curve"/>
      <point x="291" y="827" type="line"/>
      <point x="230" y="666"/>
      <point x="130" y="508"/>
      <point x="23" y="405" type="curve"/>
      <point x="30" y="400"/>
      <point x="40" y="387"/>
      <point x="44" y="381" type="curve"/>
      <point x="152" y="491"/>
      <point x="253" y="650"/>
    </contour>
    <contour>
      <point x="209" y="615" type="line"/>
      <point x="207" y="616" type="line"/>
      <point x="180" y="588" type="line"/>
      <point x="180" y="-68" type="line"/>
      <point x="209" y="-68" type="line"/>
    </contour>
  </outline>
</glyph>
<glyph name="uni5077" format="2">
  <advance width="1000" height="1000"/>
  <unicode hex="5077"/>
  <note>
cid10476
</note>
  <outline>
    <contour>
      <point x="784" y="539" type="line"/>
      <point x="784" y="569" type="line"/>
      <point x="400" y="569" type="line"/>
      <point x="400" y="539" type="line"/>
    </contour>
    <contour>
      <point x="570" y="-26" type="curve" smooth="yes"/>
      <point x="570" y="437" type="line"/>
      <point x="540" y="437" type="line"/>
      <point x="540" y="-27" type="line" smooth="yes"/>
      <point x="540" y="-37"/>
      <point x="537" y="-40"/>
      <point x="526" y="-41" type="curve" smooth="yes"/>
      <point x="516" y="-41"/>
      <point x="481" y="-41"/>
      <point x="438" y="-40" type="curve"/>
      <point x="443" y="-49"/>
      <point x="449" y="-61"/>
      <point x="450" y="-69" type="curve"/>
      <point x="501" y="-69"/>
      <point x="531" y="-68"/>
      <point x="548" y="-64" type="curve" smooth="yes"/>
      <point x="565" y="-58"/>
      <point x="570" y="-48"/>
    </contour>
    <contour>
      <point x="553" y="408" type="line"/>
      <point x="553" y="437" type="line"/>
      <point x="319" y="437" type="line"/>
      <point x="319" y="-70" type="line"/>
      <point x="348" y="-70" type="line"/>
      <point x="348" y="408" type="line"/>
    </contour>
    <contour>
      <point x="706" y="84" type="line"/>
      <point x="706" y="420" type="line"/>
      <point x="676" y="420" type="line"/>
      <point x="676" y="84" type="line"/>
    </contour>
    <contour>
      <point x="599" y="795" type="curve"/>
      <point x="681" y="694"/>
      <point x="824" y="586"/>
      <point x="950" y="521" type="curve"/>
      <point x="954" y="527"/>
      <point x="962" y="539"/>
      <point x="968" y="545" type="curve"/>
      <point x="844" y="606"/>
      <point x="698" y="716"/>
      <point x="611" y="824" type="curve"/>
      <point x="582" y="824" type="line"/>
      <point x="516" y="720"/>
      <point x="378" y="606"/>
      <point x="240" y="535" type="curve"/>
      <point x="247" y="529"/>
      <point x="255" y="520"/>
      <point x="259" y="513" type="curve"/>
      <point x="397" y="586"/>
      <point x="529" y="699"/>
    </contour>
    <contour>
      <point x="884" y="-25" type="curve" smooth="yes"/>
      <point x="884" y="449" type="line"/>
      <point x="855" y="449" type="line"/>
      <point x="855" y="-25" type="line" smooth="yes"/>
      <point x="855" y="-37"/>
      <point x="852" y="-41"/>
      <point x="838" y="-42" type="curve" smooth="yes"/>
      <point x="825" y="-43"/>
      <point x="783" y="-43"/>
      <point x="728" y="-41" type="curve"/>
      <point x="733" y="-51"/>
      <point x="739" y="-63"/>
      <point x="741" y="-71" type="curve"/>
      <point x="803" y="-71"/>
      <point x="840" y="-71"/>
      <point x="859" y="-65" type="curve" smooth="yes"/>
      <point x="877" y="-60"/>
      <point x="884" y="-50"/>
    </contour>
    <contour>
      <point x="284" y="816" type="curve"/>
      <point x="256" y="822" type="line"/>
      <point x="203" y="659"/>
      <point x="118" y="498"/>
      <point x="24" y="392" type="curve"/>
      <point x="31" y="386"/>
      <point x="41" y="375"/>
      <point x="45" y="369" type="curve"/>
      <point x="141" y="482"/>
      <point x="228" y="644"/>
    </contour>
    <contour>
      <point x="203" y="632" type="line"/>
      <point x="202" y="634" type="line"/>
      <point x="174" y="606" type="line"/>
      <point x="174" y="-71" type="line"/>
      <point x="203" y="-71" type="line"/>
    </contour>
    <contour>
      <point x="550" y="264" type="line"/>
      <point x="550" y="294" type="line"/>
      <point x="335" y="294" type="line"/>
      <point x="335" y="264" type="line"/>
    </contour>
    <contour>
      <point x="551" y="119" type="line"/>
      <point x="551" y="148" type="line"/>
      <point x="336" y="148" type="line"/>
      <point x="336" y="119" type="line"/>
    </contour>
  </outline>
</glyph>
<glyph name="uni50AF" format="2">
  <advance width="1000" height="1000"/>
  <unicode hex="50AF"/>
  <note>
cid10560
</note>
  <outline>
    <contour>
      <point x="396" y="326" type="line"/>
      <point x="396" y="694" type="line"/>
      <point x="853" y="694" type="line"/>
      <point x="853" y="326" type="line"/>
    </contour>
    <contour>
      <point x="882" y="723" type="line"/>
      <point x="367" y="723" type="line"/>
      <point x="367" y="296" type="line"/>
      <point x="882" y="296" type="line"/>
    </contour>
    <contour>
      <point x="629" y="822" type="curve"/>
      <point x="598" y="833" type="line"/>
      <point x="587" y="800"/>
      <point x="565" y="747"/>
      <point x="548" y="715" type="curve"/>
      <point x="573" y="706" type="line"/>
      <point x="590" y="736"/>
      <point x="612" y="782"/>
    </contour>
    <contour>
      <point x="537" y="280" type="curve"/>
      <point x="516" y="263" type="line"/>
      <point x="578" y="229"/>
      <point x="651" y="176"/>
      <point x="686" y="138" type="curve"/>
      <point x="708" y="159" type="line"/>
      <point x="672" y="196"/>
      <point x="599" y="248"/>
    </contour>
    <contour>
      <point x="820" y="194" type="curve"/>
      <point x="797" y="180" type="line"/>
      <point x="851" y="121"/>
      <point x="907" y="37"/>
      <point x="929" y="-19" type="curve"/>
      <point x="956" y="-5" type="line"/>
      <point x="933" y="51"/>
      <point x="877" y="133"/>
    </contour>
    <contour>
      <point x="501" y="196" type="line"/>
      <point x="472" y="196" type="line"/>
      <point x="472" y="5" type="line" smooth="yes"/>
      <point x="472" y="-41"/>
      <point x="489" y="-49"/>
      <point x="553" y="-49" type="curve" smooth="yes"/>
      <point x="567" y="-49"/>
      <point x="704" y="-49"/>
      <point x="719" y="-49" type="curve" smooth="yes"/>
      <point x="772" y="-49"/>
      <point x="783" y="-27"/>
      <point x="787" y="65" type="curve"/>
      <point x="778" y="68"/>
      <point x="767" y="72"/>
      <point x="759" y="78" type="curve"/>
      <point x="756" y="-9"/>
      <point x="750" y="-19"/>
      <point x="716" y="-19" type="curve" smooth="yes"/>
      <point x="687" y="-19"/>
      <point x="572" y="-19"/>
      <point x="552" y="-19" type="curve" smooth="yes"/>
      <point x="508" y="-19"/>
      <point x="501" y="-15"/>
      <point x="501" y="5" type="curve" smooth="yes"/>
    </contour>
    <contour>
      <point x="761" y="623" type="line"/>
      <point x="582" y="623" type="line"/>
      <point x="568" y="594" type="line"/>
      <point x="761" y="594" type="line"/>
    </contour>
    <contour>
      <point x="757" y="623" type="line"/>
      <point x="750" y="623" type="line"/>
      <point x="750" y="617" type="line"/>
      <point x="709" y="488"/>
      <point x="594" y="403"/>
      <point x="482" y="367" type="curve"/>
      <point x="488" y="361"/>
      <point x="496" y="350"/>
      <point x="500" y="343" type="curve"/>
      <point x="619" y="384"/>
      <point x="734" y="473"/>
      <point x="781" y="617" type="curve"/>
      <point x="763" y="625" type="line"/>
    </contour>
    <contour>
      <point x="534" y="558" type="curve"/>
      <point x="511" y="539" type="line"/>
      <point x="605" y="493"/>
      <point x="709" y="416"/>
      <point x="765" y="352" type="curve"/>
      <point x="788" y="374" type="line"/>
      <point x="730" y="436"/>
      <point x="625" y="512"/>
    </contour>
    <contour>
      <point x="631" y="673" type="curve"/>
      <point x="604" y="682" type="line"/>
      <point x="571" y="608"/>
      <point x="507" y="538"/>
      <point x="439" y="500" type="curve"/>
      <point x="447" y="495"/>
      <point x="456" y="486"/>
      <point x="462" y="481" type="curve"/>
      <point x="532" y="523"/>
      <point x="597" y="597"/>
    </contour>
    <contour>
      <point x="399" y="174" type="curve"/>
      <point x="373" y="182" type="line"/>
      <point x="357" y="112"/>
      <point x="325" y="33"/>
      <point x="268" y="-9" type="curve"/>
      <point x="290" y="-28" type="line"/>
      <point x="351" y="18"/>
      <point x="382" y="101"/>
    </contour>
    <contour>
      <point x="320" y="819" type="curve"/>
      <point x="291" y="827" type="line"/>
      <point x="230" y="666"/>
      <point x="130" y="508"/>
      <point x="23" y="405" type="curve"/>
      <point x="30" y="400"/>
      <point x="40" y="387"/>
      <point x="44" y="381" type="curve"/>
      <point x="152" y="491"/>
      <point x="253" y="650"/>
    </contour>
    <contour>
      <point x="207" y="616" type="line"/>
      <point x="180" y="588" type="line"/>
      <point x="180" y="-68" type="line"/>
      <point x="209" y="-68" type="line"/>
      <point x="209" y="615" type="line"/>
    </contour>
  </outline>
</glyph>
<glyph name="uni519A" format="2">
  <advance width="1000" height="1000"/>
  <unicode hex="519A"/>
  <note>
cid10975
</note>
  <outline>
    <contour>
      <point x="828" y="39" type="line"/>
      <point x="180" y="39" type="line"/>
      <point x="180" y="9" type="line"/>
      <point x="828" y="9" type="line"/>
    </contour>
    <contour>
      <point x="194" y="435" type="line"/>
      <point x="165" y="435" type="line"/>
      <point x="165" y="-71" type="line"/>
      <point x="194" y="-71" type="line"/>
    </contour>
    <contour>
      <point x="841" y="435" type="line"/>
      <point x="812" y="435" type="line"/>
      <point x="812" y="-67" type="line"/>
      <point x="841" y="-67" type="line"/>
    </contour>
    <contour>
      <point x="515" y="613" type="line"/>
      <point x="485" y="613" type="line"/>
      <point x="485" y="22" type="line"/>
      <point x="515" y="22" type="line"/>
    </contour>
    <contour>
      <point x="894" y="766" type="line"/>
      <point x="109" y="766" type="line"/>
      <point x="109" y="577" type="line"/>
      <point x="138" y="577" type="line"/>
      <point x="138" y="736" type="line"/>
      <point x="865" y="736" type="line"/>
      <point x="865" y="577" type="line"/>
      <point x="894" y="577" type="line"/>
    </contour>
  </outline>
</glyph>
<glyph name="uni51A2" format="2">
  <advance width="1000" height="1000"/>
  <unicode hex="51A2"/>
  <note>
cid11010
</note>
  <outline>
    <contour>
      <point x="919" y="585" type="line"/>
      <point x="919" y="774" type="line"/>
      <point x="90" y="774" type="line"/>
      <point x="90" y="585" type="line"/>
      <point x="120" y="585" type="line"/>
      <point x="120" y="745" type="line"/>
      <point x="890" y="745" type="line"/>
      <point x="890" y="585" type="line"/>
    </contour>
    <contour>
      <point x="824" y="598" type="line"/>
      <point x="824" y="627" type="line"/>
      <point x="188" y="627" type="line"/>
      <point x="188" y="598" type="line"/>
    </contour>
    <contour>
      <point x="337" y="503" type="curve"/>
      <point x="318" y="485" type="line"/>
      <point x="578" y="327"/>
      <point x="638" y="65"/>
      <point x="525" y="-18" type="curve" smooth="yes"/>
      <point x="495" y="-41"/>
      <point x="465" y="-42"/>
      <point x="430" y="-42" type="curve" smooth="yes"/>
      <point x="409" y="-42"/>
      <point x="374" y="-41"/>
      <point x="336" y="-37" type="curve"/>
      <point x="341" y="-45"/>
      <point x="344" y="-59"/>
      <point x="345" y="-67" type="curve"/>
      <point x="381" y="-69"/>
      <point x="414" y="-70"/>
      <point x="438" y="-70" type="curve" smooth="yes"/>
      <point x="479" y="-70"/>
      <point x="513" y="-65"/>
      <point x="547" y="-38" type="curve" smooth="yes"/>
      <point x="674" y="54"/>
      <point x="611" y="341"/>
    </contour>
    <contour>
      <point x="526" y="610" type="curve"/>
      <point x="500" y="622" type="line"/>
      <point x="401" y="535"/>
      <point x="231" y="459"/>
      <point x="85" y="413" type="curve"/>
      <point x="92" y="407"/>
      <point x="102" y="393"/>
      <point x="106" y="386" type="curve"/>
      <point x="249" y="438"/>
      <point x="421" y="518"/>
    </contour>
    <contour>
      <point x="461" y="393" type="curve"/>
      <point x="438" y="409" type="line"/>
      <point x="359" y="333"/>
      <point x="198" y="246"/>
      <point x="79" y="206" type="curve"/>
      <point x="85" y="200"/>
      <point x="93" y="188"/>
      <point x="96" y="180" type="curve"/>
      <point x="218" y="227"/>
      <point x="377" y="316"/>
    </contour>
    <contour>
      <point x="555" y="272" type="curve"/>
      <point x="532" y="287" type="line"/>
      <point x="435" y="172"/>
      <point x="236" y="47"/>
      <point x="71" y="-5" type="curve"/>
      <point x="77" y="-12"/>
      <point x="84" y="-22"/>
      <point x="87" y="-31" type="curve"/>
      <point x="255" y="28"/>
      <point x="452" y="153"/>
    </contour>
    <contour>
      <point x="545" y="620" type="curve"/>
      <point x="519" y="614" type="line"/>
      <point x="575" y="323"/>
      <point x="698" y="108"/>
      <point x="922" y="17" type="curve"/>
      <point x="927" y="26"/>
      <point x="936" y="36"/>
      <point x="943" y="42" type="curve"/>
      <point x="721" y="125"/>
      <point x="600" y="338"/>
    </contour>
    <contour>
      <point x="878" y="498" type="curve"/>
      <point x="856" y="518" type="line"/>
      <point x="797" y="460"/>
      <point x="696" y="379"/>
      <point x="623" y="332" type="curve"/>
      <point x="643" y="313" type="line"/>
      <point x="716" y="362"/>
      <point x="813" y="434"/>
    </contour>
    <contour>
      <point x="199" y="362" type="curve"/>
      <point x="177" y="346" type="line"/>
      <point x="279" y="254"/>
      <point x="386" y="129"/>
      <point x="437" y="42" type="curve"/>
      <point x="461" y="61" type="line"/>
      <point x="409" y="148"/>
      <point x="301" y="272"/>
    </contour>
  </outline>
</glyph>
<glyph name="uni5241" format="2">
  <advance width="1000" height="1000"/>
  <unicode hex="5241"/>
  <note>
cid11222
</note>
  <outline>
    <contour>
      <point x="584" y="363" type="line"/>
      <point x="68" y="363" type="line"/>
      <point x="68" y="333" type="line"/>
      <point x="584" y="333" type="line"/>
    </contour>
    <contour>
      <point x="345" y="481" type="line"/>
      <point x="316" y="481" type="line"/>
      <point x="316" y="-70" type="line"/>
      <point x="345" y="-70" type="line"/>
    </contour>
    <contour>
      <point x="340" y="346" type="curve"/>
      <point x="315" y="357" type="line"/>
      <point x="262" y="234"/>
      <point x="159" y="104"/>
      <point x="47" y="20" type="curve"/>
      <point x="55" y="14"/>
      <point x="64" y="4"/>
      <point x="70" y="-4" type="curve"/>
      <point x="183" y="85"/>
      <point x="287" y="220"/>
    </contour>
    <contour>
      <point x="701" y="718" type="line"/>
      <point x="671" y="718" type="line"/>
      <point x="671" y="166" type="line"/>
      <point x="701" y="166" type="line"/>
    </contour>
    <contour>
      <point x="902" y="825" type="line"/>
      <point x="871" y="825" type="line"/>
      <point x="871" y="-18" type="line" smooth="yes"/>
      <point x="871" y="-35"/>
      <point x="865" y="-40"/>
      <point x="848" y="-41" type="curve" smooth="yes"/>
      <point x="833" y="-42"/>
      <point x="780" y="-42"/>
      <point x="715" y="-40" type="curve"/>
      <point x="721" y="-49"/>
      <point x="725" y="-63"/>
      <point x="728" y="-69" type="curve"/>
      <point x="808" y="-70"/>
      <point x="848" y="-70"/>
      <point x="869" y="-65" type="curve" smooth="yes"/>
      <point x="890" y="-59"/>
      <point x="902" y="-48"/>
      <point x="902" y="-17" type="curve" smooth="yes"/>
    </contour>
    <contour>
      <point x="441" y="795" type="line"/>
      <point x="211" y="795" type="line"/>
      <point x="211" y="766" type="line"/>
      <point x="441" y="766" type="line"/>
    </contour>
    <contour>
      <point x="227" y="795" type="line"/>
      <point x="197" y="795" type="line"/>
      <point x="197" y="687" type="line" smooth="yes"/>
      <point x="197" y="617"/>
      <point x="174" y="529"/>
      <point x="68" y="464" type="curve"/>
      <point x="75" y="460"/>
      <point x="84" y="449"/>
      <point x="87" y="441" type="curve"/>
      <point x="200" y="512"/>
      <point x="227" y="609"/>
      <point x="227" y="687" type="curve" smooth="yes"/>
    </contour>
    <contour>
      <point x="341" y="284" type="curve"/>
      <point x="322" y="266" type="line"/>
      <point x="400" y="208"/>
      <point x="486" y="137"/>
      <point x="567" y="60" type="curve"/>
      <point x="587" y="82" type="line"/>
      <point x="503" y="158"/>
      <point x="417" y="228"/>
    </contour>
    <contour>
      <point x="457" y="795" type="line"/>
      <point x="428" y="795" type="line"/>
      <point x="428" y="528" type="line" smooth="yes"/>
      <point x="428" y="483"/>
      <point x="442" y="475"/>
      <point x="490" y="475" type="curve" smooth="yes"/>
      <point x="498" y="475"/>
      <point x="525" y="475"/>
      <point x="533" y="475" type="curve" smooth="yes"/>
      <point x="582" y="475"/>
      <point x="591" y="505"/>
      <point x="593" y="597" type="curve"/>
      <point x="584" y="600"/>
      <point x="573" y="604"/>
      <point x="564" y="611" type="curve"/>
      <point x="562" y="520"/>
      <point x="558" y="505"/>
      <point x="530" y="505" type="curve" smooth="yes"/>
      <point x="522" y="505"/>
      <point x="499" y="505"/>
      <point x="491" y="505" type="curve" smooth="yes"/>
      <point x="462" y="505"/>
      <point x="457" y="509"/>
      <point x="457" y="528" type="curve" smooth="yes"/>
    </contour>
  </outline>
</glyph>
<glyph name="uni53A9" format="2">
  <advance width="1000" height="1000"/>
  <unicode hex="53A9"/>
  <note>
cid62160
</note>
  <outline>
    <contour>
      <point x="943" y="325" type="line"/>
      <point x="943" y="354" type="line"/>
      <point x="585" y="354" type="line"/>
      <point x="585" y="325" type="line"/>
    </contour>
    <contour>
      <point x="930" y="602" type="line"/>
      <point x="930" y="631" type="line"/>
      <point x="555" y="631" type="line"/>
      <point x="555" y="602" type="line"/>
    </contour>
    <contour>
      <point x="946" y="737" type="line"/>
      <point x="946" y="767" type="line"/>
      <point x="151" y="767" type="line"/>
      <point x="151" y="737" type="line"/>
    </contour>
    <contour>
      <point x="166" y="480" type="curve" smooth="yes"/>
      <point x="166" y="767" type="line"/>
      <point x="136" y="767" type="line"/>
      <point x="136" y="481" type="line" smooth="yes"/>
      <point x="136" y="325"/>
      <point x="129" y="108"/>
      <point x="48" y="-52" type="curve"/>
      <point x="55" y="-55"/>
      <point x="68" y="-64"/>
      <point x="73" y="-69" type="curve"/>
      <point x="155" y="94"/>
      <point x="166" y="322"/>
    </contour>
    <contour>
      <point x="486" y="351" type="line"/>
      <point x="256" y="351" type="line"/>
      <point x="256" y="455" type="line"/>
      <point x="486" y="455" type="line"/>
    </contour>
    <contour>
      <point x="486" y="484" type="line"/>
      <point x="256" y="484" type="line"/>
      <point x="256" y="586" type="line"/>
      <point x="486" y="586" type="line"/>
    </contour>
    <contour>
      <point x="516" y="322" type="line"/>
      <point x="516" y="616" type="line"/>
      <point x="227" y="616" type="line"/>
      <point x="227" y="322" type="line"/>
    </contour>
    <contour>
      <point x="401" y="700" type="curve"/>
      <point x="373" y="711" type="line"/>
      <point x="364" y="679"/>
      <point x="345" y="631"/>
      <point x="331" y="601" type="curve"/>
      <point x="355" y="591" type="line"/>
      <point x="370" y="620"/>
      <point x="386" y="662"/>
    </contour>
    <contour>
      <point x="263" y="23" type="curve" smooth="yes"/>
      <point x="263" y="294" type="line"/>
      <point x="233" y="294" type="line"/>
      <point x="233" y="23" type="line" smooth="yes"/>
      <point x="233" y="-24"/>
      <point x="250" y="-33"/>
      <point x="310" y="-33" type="curve" smooth="yes"/>
      <point x="323" y="-33"/>
      <point x="448" y="-33"/>
      <point x="462" y="-33" type="curve" smooth="yes"/>
      <point x="513" y="-33"/>
      <point x="524" y="-11"/>
      <point x="526" y="80" type="curve"/>
      <point x="518" y="82"/>
      <point x="506" y="86"/>
      <point x="498" y="92" type="curve"/>
      <point x="495" y="8"/>
      <point x="490" y="-4"/>
      <point x="459" y="-4" type="curve" smooth="yes"/>
      <point x="433" y="-4"/>
      <point x="328" y="-4"/>
      <point x="309" y="-4" type="curve" smooth="yes"/>
      <point x="270" y="-4"/>
      <point x="263" y="1"/>
    </contour>
    <contour>
      <point x="510" y="229" type="curve"/>
      <point x="481" y="251" type="line"/>
      <point x="428" y="220"/>
      <point x="329" y="185"/>
      <point x="242" y="162" type="curve"/>
      <point x="246" y="155"/>
      <point x="252" y="145"/>
      <point x="254" y="138" type="curve"/>
      <point x="342" y="162"/>
      <point x="444" y="194"/>
    </contour>
    <contour>
      <point x="809" y="609" type="curve"/>
      <point x="777" y="610" type="line"/>
      <point x="769" y="268"/>
      <point x="721" y="65"/>
      <point x="505" y="-52" type="curve"/>
      <point x="512" y="-58"/>
      <point x="524" y="-69"/>
      <point x="528" y="-75" type="curve"/>
      <point x="744" y="55"/>
      <point x="797" y="252"/>
    </contour>
    <contour>
      <point x="781" y="-5" type="curve" smooth="yes"/>
      <point x="781" y="314" type="line"/>
      <point x="752" y="314" type="line"/>
      <point x="752" y="-5" type="line" smooth="yes"/>
      <point x="752" y="-51"/>
      <point x="765" y="-60"/>
      <point x="812" y="-60" type="curve" smooth="yes"/>
      <point x="824" y="-60"/>
      <point x="886" y="-60"/>
      <point x="898" y="-60" type="curve" smooth="yes"/>
      <point x="946" y="-60"/>
      <point x="954" y="-29"/>
      <point x="957" y="95" type="curve"/>
      <point x="948" y="97"/>
      <point x="936" y="102"/>
      <point x="929" y="108" type="curve"/>
      <point x="927" y="-13"/>
      <point x="922" y="-31"/>
      <point x="895" y="-31" type="curve" smooth="yes"/>
      <point x="877" y="-31"/>
      <point x="826" y="-31"/>
      <point x="812" y="-31" type="curve" smooth="yes"/>
      <point x="786" y="-31"/>
      <point x="781" y="-27"/>
    </contour>
    <contour>
      <point x="634" y="554" type="curve"/>
      <point x="605" y="557" type="line"/>
      <point x="593" y="464"/>
      <point x="574" y="347"/>
      <point x="559" y="274" type="curve"/>
      <point x="588" y="269" type="line"/>
      <point x="603" y="343"/>
      <point x="622" y="461"/>
    </contour>
  </outline>
</glyph>
<glyph name="uni53F6" format="2">
  <advance width="1000" height="1000"/>
  <unicode hex="53F6"/>
  <note>
cid11952
</note>
  <outline>
    <contour>
      <point x="953" y="443" type="line"/>
      <point x="953" y="473" type="line"/>
      <point x="372" y="473" type="line"/>
      <point x="372" y="443" type="line"/>
    </contour>
    <contour>
      <point x="667" y="-70" type="line"/>
      <point x="667" y="812" type="line"/>
      <point x="637" y="812" type="line"/>
      <point x="637" y="-70" type="line"/>
    </contour>
    <contour>
      <point x="354" y="180" type="line"/>
      <point x="354" y="719" type="line"/>
      <point x="100" y="719" type="line"/>
      <point x="100" y="690" type="line"/>
      <point x="325" y="690" type="line"/>
      <point x="325" y="209" type="line"/>
      <point x="100" y="209" type="line"/>
      <point x="100" y="180" type="line"/>
    </contour>
    <contour>
      <point x="112" y="97" type="line"/>
      <point x="112" y="719" type="line"/>
      <point x="83" y="719" type="line"/>
      <point x="83" y="97" type="line"/>
    </contour>
  </outline>
</glyph>
<glyph name="uni5416" format="2">
  <advance width="1000" height="1000"/>
  <unicode hex="5416"/>
  <note>
cid11992
</note>
  <outline>
    <contour>
      <point x="363" y="180" type="line"/>
      <point x="363" y="719" type="line"/>
      <point x="100" y="719" type="line"/>
      <point x="100" y="690" type="line"/>
      <point x="333" y="690" type="line"/>
      <point x="333" y="209" type="line"/>
      <point x="100" y="209" type="line"/>
      <point x="100" y="180" type="line"/>
    </contour>
    <contour>
      <point x="112" y="84" type="line"/>
      <point x="112" y="719" type="line"/>
      <point x="83" y="719" type="line"/>
      <point x="83" y="84" type="line"/>
    </contour>
    <contour>
      <point x="390" y="819" type="curve"/>
      <point x="365" y="805" type="line"/>
      <point x="452" y="717"/>
      <point x="545" y="592"/>
      <point x="589" y="502" type="curve"/>
      <point x="615" y="518" type="line"/>
      <point x="569" y="608"/>
      <point x="476" y="733"/>
    </contour>
    <contour>
      <point x="952" y="811" type="curve"/>
      <point x="924" y="825" type="line"/>
      <point x="849" y="707"/>
      <point x="729" y="564"/>
      <point x="634" y="479" type="curve"/>
      <point x="656" y="461" type="line"/>
      <point x="753" y="549"/>
      <point x="867" y="684"/>
    </contour>
    <contour>
      <point x="656" y="-70" type="line"/>
      <point x="656" y="490" type="line"/>
      <point x="626" y="490" type="line"/>
      <point x="626" y="-70" type="line"/>
    </contour>
  </outline>
</glyph>
<glyph name="uni5433" format="2">
  <advance width="1000" height="1000"/>
  <unicode hex="5433"/>
  <note>
cid12040
</note>
  <outline>
    <contour>
      <point x="932" y="182" type="line"/>
      <point x="932" y="212" type="line"/>
      <point x="67" y="212" type="line"/>
      <point x="67" y="182" type="line"/>
    </contour>
    <contour>
      <point x="807" y="196" type="line"/>
      <point x="807" y="399" type="line"/>
      <point x="186" y="399" type="line"/>
      <point x="186" y="749" type="line"/>
      <point x="157" y="749" type="line"/>
      <point x="157" y="370" type="line"/>
      <point x="777" y="370" type="line"/>
      <point x="777" y="196" type="line"/>
    </contour>
    <contour>
      <point x="792" y="536" type="line"/>
      <point x="362" y="536" type="line"/>
      <point x="362" y="752" type="line"/>
      <point x="792" y="752" type="line"/>
    </contour>
    <contour>
      <point x="821" y="507" type="line"/>
      <point x="821" y="781" type="line"/>
      <point x="332" y="781" type="line"/>
      <point x="332" y="507" type="line"/>
    </contour>
    <contour>
      <point x="520" y="386" type="curve"/>
      <point x="489" y="386" type="line"/>
      <point x="472" y="126"/>
      <point x="405" y="-1"/>
      <point x="51" y="-49" type="curve"/>
      <point x="56" y="-56"/>
      <point x="63" y="-67"/>
      <point x="65" y="-74" type="curve"/>
      <point x="425" y="-22"/>
      <point x="498" y="109"/>
    </contour>
    <contour>
      <point x="543" y="202" type="curve"/>
      <point x="518" y="196" type="line"/>
      <point x="567" y="30"/>
      <point x="708" y="-48"/>
      <point x="937" y="-72" type="curve"/>
      <point x="941" y="-63"/>
      <point x="948" y="-53"/>
      <point x="955" y="-46" type="curve"/>
      <point x="727" y="-27"/>
      <point x="589" y="46"/>
    </contour>
  </outline>
</glyph>
<glyph name="uni5454" format="2">
  <advance width="1000" height="1000"/>
  <unicode hex="5454"/>
  <note>
cid12088
</note>
  <outline>
    <contour>
      <point x="954" y="515" type="line"/>
      <point x="954" y="544" type="line"/>
      <point x="376" y="544" type="line"/>
      <point x="376" y="515" type="line"/>
    </contour>
    <contour>
      <point x="589" y="140" type="curve"/>
      <point x="569" y="120" type="line"/>
      <point x="628" y="76"/>
      <point x="695" y="10"/>
      <point x="727" y="-33" type="curve"/>
      <point x="750" y="-10" type="line"/>
      <point x="717" y="31"/>
      <point x="650" y="94"/>
    </contour>
    <contour>
      <point x="672" y="828" type="curve"/>
      <point x="642" y="828" type="line"/>
      <point x="641" y="567"/>
      <point x="638" y="130"/>
      <point x="304" y="-51" type="curve"/>
      <point x="311" y="-56"/>
      <point x="324" y="-65"/>
      <point x="329" y="-71" type="curve"/>
      <point x="666" y="119"/>
      <point x="670" y="555"/>
    </contour>
    <contour>
      <point x="664" y="535" type="curve"/>
      <point x="636" y="529" type="line"/>
      <point x="685" y="265"/>
      <point x="783" y="40"/>
      <point x="939" y="-69" type="curve"/>
      <point x="945" y="-62"/>
      <point x="955" y="-52"/>
      <point x="962" y="-46" type="curve"/>
      <point x="808" y="54"/>
      <point x="711" y="277"/>
    </contour>
    <contour>
      <point x="331" y="199" type="line"/>
      <point x="331" y="721" type="line"/>
      <point x="98" y="721" type="line"/>
      <point x="98" y="692" type="line"/>
      <point x="302" y="692" type="line"/>
      <point x="302" y="229" type="line"/>
      <point x="98" y="229" type="line"/>
      <point x="98" y="199" type="line"/>
    </contour>
    <contour>
      <point x="113" y="117" type="line"/>
      <point x="113" y="721" type="line"/>
      <point x="84" y="721" type="line"/>
      <point x="84" y="117" type="line"/>
    </contour>
  </outline>
</glyph>
<glyph name="uni5463" format="2">
  <advance width="1000" height="1000"/>
  <unicode hex="5463"/>
  <note>
cid12107
</note>
  <outline>
    <contour>
      <point x="484" y="763" type="curve"/>
      <point x="456" y="763" type="line"/>
      <point x="443" y="549"/>
      <point x="413" y="224"/>
      <point x="389" y="52" type="curve"/>
      <point x="420" y="50" type="line"/>
      <point x="441" y="221"/>
      <point x="470" y="544"/>
    </contour>
    <contour>
      <point x="863" y="733" type="line"/>
      <point x="863" y="763" type="line"/>
      <point x="465" y="763" type="line"/>
      <point x="465" y="733" type="line"/>
    </contour>
    <contour>
      <point x="879" y="763" type="curve"/>
      <point x="850" y="763" type="line"/>
      <point x="850" y="753" type="line" smooth="yes"/>
      <point x="836" y="204"/>
      <point x="819" y="16"/>
      <point x="787" y="-23" type="curve"/>
      <point x="777" y="-38"/>
      <point x="768" y="-40"/>
      <point x="750" y="-40" type="curve" smooth="yes"/>
      <point x="730" y="-40"/>
      <point x="681" y="-39"/>
      <point x="626" y="-35" type="curve"/>
      <point x="631" y="-43"/>
      <point x="634" y="-56"/>
      <point x="635" y="-65" type="curve"/>
      <point x="679" y="-69"/>
      <point x="725" y="-70"/>
      <point x="753" y="-69" type="curve" smooth="yes"/>
      <point x="780" y="-68"/>
      <point x="798" y="-63"/>
      <point x="814" y="-40" type="curve" smooth="yes"/>
      <point x="852" y="8"/>
      <point x="865" y="178"/>
      <point x="879" y="738" type="curve" smooth="yes"/>
      <point x="879" y="744"/>
      <point x="879" y="763"/>
    </contour>
    <contour>
      <point x="953" y="418" type="line"/>
      <point x="953" y="447" type="line"/>
      <point x="343" y="447" type="line"/>
      <point x="343" y="418" type="line"/>
    </contour>
    <contour>
      <point x="939" y="100" type="line"/>
      <point x="939" y="130" type="line"/>
      <point x="414" y="130" type="line"/>
      <point x="410" y="100" type="line"/>
    </contour>
    <contour>
      <point x="593" y="671" type="curve"/>
      <point x="572" y="655" type="line"/>
      <point x="623" y="612"/>
      <point x="683" y="551"/>
      <point x="712" y="511" type="curve"/>
      <point x="733" y="530" type="line"/>
      <point x="705" y="570"/>
      <point x="645" y="629"/>
    </contour>
    <contour>
      <point x="574" y="346" type="curve"/>
      <point x="554" y="328" type="line"/>
      <point x="611" y="287"/>
      <point x="677" y="227"/>
      <point x="710" y="186" type="curve"/>
      <point x="730" y="208" type="line"/>
      <point x="698" y="247"/>
      <point x="631" y="305"/>
    </contour>
    <contour>
      <point x="316" y="202" type="line"/>
      <point x="316" y="706" type="line"/>
      <point x="100" y="706" type="line"/>
      <point x="100" y="676" type="line"/>
      <point x="286" y="676" type="line"/>
      <point x="286" y="231" type="line"/>
      <point x="100" y="231" type="line"/>
      <point x="100" y="202" type="line"/>
    </contour>
    <contour>
      <point x="114" y="115" type="line"/>
      <point x="114" y="706" type="line"/>
      <point x="84" y="706" type="line"/>
      <point x="84" y="115" type="line"/>
    </contour>
  </outline>
</glyph>
<glyph name="uni5478" format="2">
  <advance width="1000" height="1000"/>
  <unicode hex="5478"/>
  <note>
cid12142
</note>
  <outline>
    <contour>
      <point x="935" y="719" type="line"/>
      <point x="935" y="748" type="line"/>
      <point x="375" y="748" type="line"/>
      <point x="375" y="719" type="line"/>
    </contour>
    <contour>
      <point x="949" y="-35" type="line"/>
      <point x="949" y="-6" type="line"/>
      <point x="344" y="-6" type="line"/>
      <point x="344" y="-35" type="line"/>
    </contour>
    <contour>
      <point x="729" y="718" type="curve"/>
      <point x="701" y="726" type="line"/>
      <point x="623" y="547"/>
      <point x="489" y="396"/>
      <point x="334" y="301" type="curve"/>
      <point x="342" y="295"/>
      <point x="354" y="284"/>
      <point x="358" y="278" type="curve"/>
      <point x="511" y="379"/>
      <point x="646" y="531"/>
    </contour>
    <contour>
      <point x="717" y="560" type="curve"/>
      <point x="694" y="544" type="line"/>
      <point x="776" y="472"/>
      <point x="874" y="371"/>
      <point x="922" y="309" type="curve"/>
      <point x="945" y="328" type="line"/>
      <point x="897" y="389"/>
      <point x="798" y="488"/>
    </contour>
    <contour>
      <point x="653" y="587" type="line"/>
      <point x="646" y="590" type="line"/>
      <point x="623" y="568" type="line"/>
      <point x="623" y="41" type="line"/>
      <point x="653" y="41" type="line"/>
    </contour>
    <contour>
      <point x="319" y="240" type="line"/>
      <point x="319" y="717" type="line"/>
      <point x="97" y="717" type="line"/>
      <point x="97" y="687" type="line"/>
      <point x="289" y="687" type="line"/>
      <point x="289" y="270" type="line"/>
      <point x="97" y="270" type="line"/>
      <point x="97" y="240" type="line"/>
    </contour>
    <contour>
      <point x="111" y="152" type="line"/>
      <point x="111" y="717" type="line"/>
      <point x="82" y="717" type="line"/>
      <point x="82" y="152" type="line"/>
    </contour>
  </outline>
</glyph>
<glyph name="uni549A" format="2">
  <advance width="1000"/>
  <unicode hex="549A"/>
  <note>
cid12165
</note>
  <outline>
    <contour>
      <point x="827" y="717" type="line"/>
      <point x="819" y="717" type="line"/>
      <point x="819" y="709" type="line"/>
      <point x="735" y="512"/>
      <point x="530" y="374"/>
      <point x="327" y="305" type="curve"/>
      <point x="334" y="300"/>
      <point x="343" y="288"/>
      <point x="348" y="280" type="curve"/>
      <point x="552" y="355"/>
      <point x="760" y="495"/>
      <point x="852" y="707" type="curve"/>
      <point x="834" y="719" type="line"/>
    </contour>
    <contour>
      <point x="424" y="-13" type="curve"/>
      <point x="438" y="-42" type="line"/>
      <point x="556" y="-7"/>
      <point x="720" y="44"/>
      <point x="874" y="93" type="curve"/>
      <point x="869" y="120" type="line"/>
      <point x="705" y="70"/>
      <point x="534" y="18"/>
    </contour>
    <contour>
      <point x="554" y="312" type="curve"/>
      <point x="534" y="293" type="line"/>
      <point x="605" y="257"/>
      <point x="692" y="204"/>
      <point x="737" y="168" type="curve"/>
      <point x="758" y="192" type="line"/>
      <point x="711" y="227"/>
      <point x="624" y="278"/>
    </contour>
    <contour>
      <point x="587" y="823" type="curve"/>
      <point x="558" y="830" type="line"/>
      <point x="516" y="708"/>
      <point x="434" y="588"/>
      <point x="346" y="518" type="curve"/>
      <point x="355" y="513"/>
      <point x="368" y="502"/>
      <point x="373" y="497" type="curve"/>
      <point x="460" y="571"/>
      <point x="543" y="697"/>
    </contour>
    <contour>
      <point x="502" y="684" type="curve"/>
      <point x="483" y="661" type="line"/>
      <point x="553" y="525"/>
      <point x="715" y="357"/>
      <point x="941" y="274" type="curve"/>
      <point x="945" y="282"/>
      <point x="953" y="293"/>
      <point x="960" y="299" type="curve"/>
      <point x="734" y="377"/>
      <point x="571" y="545"/>
    </contour>
    <contour>
      <point x="831" y="717" type="line"/>
      <point x="518" y="717" type="line"/>
      <point x="518" y="687" type="line"/>
      <point x="831" y="687" type="line"/>
    </contour>
    <contour>
      <point x="310" y="721" type="line"/>
      <point x="102" y="721" type="line"/>
      <point x="102" y="692" type="line"/>
      <point x="280" y="692" type="line"/>
      <point x="280" y="247" type="line"/>
      <point x="102" y="247" type="line"/>
      <point x="102" y="218" type="line"/>
      <point x="310" y="218" type="line"/>
    </contour>
    <contour>
      <point x="114" y="721" type="line"/>
      <point x="84" y="721" type="line"/>
      <point x="84" y="113" type="line"/>
      <point x="114" y="113" type="line"/>
    </contour>
  </outline>
</glyph>
<glyph name="uni54B4" format="2">
  <advance width="1000" height="1000"/>
  <unicode hex="54B4"/>
  <note>
cid12228
</note>
  <outline>
    <contour>
      <point x="314" y="217" type="line"/>
      <point x="314" y="720" type="line"/>
      <point x="98" y="720" type="line"/>
      <point x="98" y="691" type="line"/>
      <point x="284" y="691" type="line"/>
      <point x="284" y="246" type="line"/>
      <point x="98" y="246" type="line"/>
      <point x="98" y="217" type="line"/>
    </contour>
    <contour>
      <point x="113" y="130" type="line"/>
      <point x="113" y="720" type="line"/>
      <point x="84" y="720" type="line"/>
      <point x="84" y="130" type="line"/>
    </contour>
    <contour>
      <point x="950" y="669" type="line"/>
      <point x="950" y="698" type="line"/>
      <point x="344" y="698" type="line"/>
      <point x="344" y="669" type="line"/>
    </contour>
    <contour>
      <point x="462" y="579" type="curve" smooth="yes"/>
      <point x="462" y="829" type="line"/>
      <point x="433" y="829" type="line"/>
      <point x="433" y="578" type="line" smooth="yes"/>
      <point x="433" y="374"/>
      <point x="421" y="140"/>
      <point x="288" y="-57" type="curve"/>
      <point x="296" y="-60"/>
      <point x="307" y="-67"/>
      <point x="312" y="-73" type="curve"/>
      <point x="449" y="128"/>
      <point x="462" y="366"/>
    </contour>
    <contour>
      <point x="716" y="360" type="curve" smooth="yes"/>
      <point x="716" y="611" type="line"/>
      <point x="687" y="611" type="line"/>
      <point x="687" y="360" type="line" smooth="yes"/>
      <point x="687" y="301"/>
      <point x="658" y="66"/>
      <point x="422" y="-48" type="curve"/>
      <point x="429" y="-55"/>
      <point x="438" y="-65"/>
      <point x="442" y="-71" type="curve"/>
      <point x="635" y="28"/>
      <point x="692" y="202"/>
      <point x="701" y="273" type="curve"/>
      <point x="711" y="203"/>
      <point x="766" y="23"/>
      <point x="937" y="-71" type="curve"/>
      <point x="941" y="-65"/>
      <point x="951" y="-53"/>
      <point x="957" y="-46" type="curve"/>
      <point x="745" y="63"/>
      <point x="716" y="304"/>
    </contour>
    <contour>
      <point x="586" y="466" type="curve"/>
      <point x="558" y="472" type="line"/>
      <point x="550" y="390"/>
      <point x="532" y="304"/>
      <point x="489" y="253" type="curve"/>
      <point x="517" y="240" type="line"/>
      <point x="560" y="292"/>
      <point x="576" y="381"/>
    </contour>
    <contour>
      <point x="925" y="465" type="curve"/>
      <point x="894" y="475" type="line"/>
      <point x="874" y="413"/>
      <point x="837" y="317"/>
      <point x="808" y="261" type="curve"/>
      <point x="833" y="251" type="line"/>
      <point x="864" y="307"/>
      <point x="899" y="396"/>
    </contour>
  </outline>
</glyph>
<glyph name="uni54CF" format="2">
  <advance width="1000"/>
  <unicode hex="54CF"/>
  <note>
cid12242
</note>
  <outline>
    <contour>
      <point x="443" y="782" type="line"/>
      <point x="414" y="782" type="line"/>
      <point x="414" y="-19" type="line"/>
      <point x="443" y="-12" type="line"/>
    </contour>
    <contour>
      <point x="883" y="782" type="line"/>
      <point x="429" y="782" type="line"/>
      <point x="429" y="753" type="line"/>
      <point x="854" y="753" type="line"/>
      <point x="854" y="393" type="line"/>
      <point x="429" y="393" type="line"/>
      <point x="429" y="364" type="line"/>
      <point x="883" y="364" type="line"/>
    </contour>
    <contour>
      <point x="867" y="586" type="line"/>
      <point x="430" y="586" type="line"/>
      <point x="430" y="557" type="line"/>
      <point x="867" y="557" type="line"/>
    </contour>
    <contour>
      <point x="307" y="-22" type="curve"/>
      <point x="319" y="-51" type="line"/>
      <point x="424" y="-31"/>
      <point x="578" y="-3"/>
      <point x="721" y="25" type="curve"/>
      <point x="719" y="52" type="line"/>
      <point x="564" y="24"/>
      <point x="405" y="-6"/>
    </contour>
    <contour>
      <point x="617" y="376" type="curve"/>
      <point x="591" y="368" type="line"/>
      <point x="648" y="165"/>
      <point x="767" y="1"/>
      <point x="931" y="-72" type="curve"/>
      <point x="936" y="-64"/>
      <point x="945" y="-54"/>
      <point x="953" y="-47" type="curve"/>
      <point x="790" y="19"/>
      <point x="671" y="180"/>
    </contour>
    <contour>
      <point x="926" y="296" type="curve"/>
      <point x="904" y="316" type="line"/>
      <point x="850" y="268"/>
      <point x="757" y="203"/>
      <point x="691" y="164" type="curve"/>
      <point x="711" y="142" type="line"/>
      <point x="777" y="182"/>
      <point x="865" y="241"/>
    </contour>
    <contour>
      <point x="332" y="719" type="line"/>
      <point x="99" y="719" type="line"/>
      <point x="99" y="689" type="line"/>
      <point x="303" y="689" type="line"/>
      <point x="303" y="226" type="line"/>
      <point x="99" y="226" type="line"/>
      <point x="99" y="196" type="line"/>
      <point x="332" y="196" type="line"/>
    </contour>
    <contour>
      <point x="114" y="719" type="line"/>
      <point x="84" y="719" type="line"/>
      <point x="84" y="114" type="line"/>
      <point x="114" y="114" type="line"/>
    </contour>
  </outline>
</glyph>
<glyph name="uni54D6" format="2">
  <advance width="1000" height="1000"/>
  <unicode hex="54D6"/>
  <note>
cid12272
</note>
  <outline>
    <contour>
      <point x="574" y="828" type="curve"/>
      <point x="545" y="834" type="line"/>
      <point x="506" y="703"/>
      <point x="446" y="574"/>
      <point x="369" y="489" type="curve"/>
      <point x="377" y="485"/>
      <point x="391" y="477"/>
      <point x="397" y="473" type="curve"/>
      <point x="469" y="561"/>
      <point x="533" y="690"/>
    </contour>
    <contour>
      <point x="924" y="663" type="line"/>
      <point x="924" y="692" type="line"/>
      <point x="504" y="692" type="line"/>
      <point x="490" y="663" type="line"/>
    </contour>
    <contour>
      <point x="904" y="442" type="line"/>
      <point x="904" y="472" type="line"/>
      <point x="477" y="472" type="line"/>
      <point x="477" y="180" type="line"/>
      <point x="507" y="180" type="line"/>
      <point x="507" y="442" type="line"/>
    </contour>
    <contour>
      <point x="950" y="166" type="line"/>
      <point x="950" y="195" type="line"/>
      <point x="366" y="195" type="line"/>
      <point x="366" y="166" type="line"/>
    </contour>
    <contour>
      <point x="711" y="-71" type="line"/>
      <point x="711" y="683" type="line"/>
      <point x="681" y="683" type="line"/>
      <point x="681" y="-71" type="line"/>
    </contour>
    <contour>
      <point x="326" y="199" type="line"/>
      <point x="326" y="721" type="line"/>
      <point x="98" y="721" type="line"/>
      <point x="98" y="692" type="line"/>
      <point x="296" y="692" type="line"/>
      <point x="296" y="229" type="line"/>
      <point x="98" y="229" type="line"/>
      <point x="98" y="199" type="line"/>
    </contour>
    <contour>
      <point x="113" y="117" type="line"/>
      <point x="113" y="721" type="line"/>
      <point x="84" y="721" type="line"/>
      <point x="84" y="117" type="line"/>
    </contour>
  </outline>
</glyph>
<glyph name="uni54DE" format="2">
  <advance width="1000"/>
  <unicode hex="54DE"/>
  <note>
cid12257
</note>
  <outline>
    <contour>
      <point x="331" y="237" type="line"/>
      <point x="331" y="732" type="line"/>
      <point x="98" y="732" type="line"/>
      <point x="98" y="703" type="line"/>
      <point x="302" y="703" type="line"/>
      <point x="302" y="267" type="line"/>
      <point x="98" y="267" type="line"/>
      <point x="98" y="237" type="line"/>
    </contour>
    <contour>
      <point x="113" y="145" type="line"/>
      <point x="113" y="732" type="line"/>
      <point x="84" y="732" type="line"/>
      <point x="84" y="145" type="line"/>
    </contour>
    <contour>
      <point x="952" y="170" type="line"/>
      <point x="952" y="199" type="line"/>
      <point x="343" y="199" type="line"/>
      <point x="343" y="170" type="line"/>
    </contour>
    <contour>
      <point x="628" y="820" type="curve"/>
      <point x="598" y="831" type="line"/>
      <point x="565" y="762"/>
      <point x="504" y="657"/>
      <point x="456" y="596" type="curve"/>
      <point x="480" y="586" type="line"/>
      <point x="528" y="647"/>
      <point x="587" y="745"/>
    </contour>
    <contour>
      <point x="377" y="603" type="curve"/>
      <point x="380" y="572" type="line"/>
      <point x="506" y="577"/>
      <point x="693" y="586"/>
      <point x="874" y="596" type="curve"/>
      <point x="875" y="624" type="line"/>
      <point x="688" y="615"/>
      <point x="497" y="607"/>
    </contour>
    <contour>
      <point x="517" y="519" type="curve"/>
      <point x="487" y="525" type="line"/>
      <point x="457" y="427"/>
      <point x="412" y="325"/>
      <point x="361" y="254" type="curve"/>
      <point x="369" y="251"/>
      <point x="384" y="244"/>
      <point x="389" y="240" type="curve"/>
      <point x="437" y="311"/>
      <point x="484" y="417"/>
    </contour>
    <contour>
      <point x="909" y="372" type="line"/>
      <point x="909" y="401" type="line"/>
      <point x="455" y="401" type="line"/>
      <point x="440" y="372" type="line"/>
    </contour>
    <contour>
      <point x="668" y="-70" type="line"/>
      <point x="668" y="547" type="line"/>
      <point x="638" y="547" type="line"/>
      <point x="638" y="-70" type="line"/>
    </contour>
    <contour>
      <point x="732" y="747" type="curve"/>
      <point x="712" y="730" type="line"/>
      <point x="792" y="672"/>
      <point x="884" y="589"/>
      <point x="928" y="533" type="curve"/>
      <point x="950" y="553" type="line"/>
      <point x="906" y="608"/>
      <point x="813" y="690"/>
    </contour>
  </outline>
</glyph>
<glyph name="uni54E7" format="2">
  <advance width="1000" height="1000"/>
  <unicode hex="54E7"/>
  <note>
cid12293
</note>
  <outline>
    <contour>
      <point x="650" y="478" type="line"/>
      <point x="650" y="831" type="line"/>
      <point x="621" y="831" type="line"/>
      <point x="621" y="478" type="line"/>
    </contour>
    <contour>
      <point x="935" y="454" type="line"/>
      <point x="935" y="483" type="line"/>
      <point x="352" y="483" type="line"/>
      <point x="352" y="454" type="line"/>
    </contour>
    <contour>
      <point x="880" y="661" type="line"/>
      <point x="880" y="690" type="line"/>
      <point x="408" y="690" type="line"/>
      <point x="408" y="661" type="line"/>
    </contour>
    <contour>
      <point x="575" y="472" type="curve"/>
      <point x="546" y="472" type="line"/>
      <point x="540" y="193"/>
      <point x="520" y="35"/>
      <point x="351" y="-49" type="curve"/>
      <point x="358" y="-54"/>
      <point x="368" y="-63"/>
      <point x="373" y="-69" type="curve"/>
      <point x="546" y="21"/>
      <point x="570" y="182"/>
    </contour>
    <contour>
      <point x="823" y="370" type="curve"/>
      <point x="798" y="360" type="line"/>
      <point x="847" y="283"/>
      <point x="895" y="180"/>
      <point x="913" y="113" type="curve"/>
      <point x="940" y="124" type="line"/>
      <point x="922" y="191"/>
      <point x="874" y="293"/>
    </contour>
    <contour>
      <point x="448" y="361" type="curve"/>
      <point x="419" y="365" type="line"/>
      <point x="404" y="266"/>
      <point x="362" y="166"/>
      <point x="309" y="108" type="curve"/>
      <point x="317" y="104"/>
      <point x="329" y="95"/>
      <point x="334" y="90" type="curve"/>
      <point x="386" y="152"/>
      <point x="430" y="257"/>
    </contour>
    <contour>
      <point x="736" y="-27" type="curve" smooth="yes"/>
      <point x="736" y="469" type="line"/>
      <point x="707" y="469" type="line"/>
      <point x="707" y="-28" type="line" smooth="yes"/>
      <point x="707" y="-39"/>
      <point x="703" y="-43"/>
      <point x="690" y="-43" type="curve" smooth="yes"/>
      <point x="678" y="-44"/>
      <point x="638" y="-44"/>
      <point x="588" y="-43" type="curve"/>
      <point x="593" y="-51"/>
      <point x="599" y="-63"/>
      <point x="601" y="-70" type="curve"/>
      <point x="662" y="-70"/>
      <point x="695" y="-70"/>
      <point x="713" y="-65" type="curve" smooth="yes"/>
      <point x="729" y="-60"/>
      <point x="736" y="-50"/>
    </contour>
    <contour>
      <point x="320" y="217" type="line"/>
      <point x="320" y="720" type="line"/>
      <point x="98" y="720" type="line"/>
      <point x="98" y="691" type="line"/>
      <point x="290" y="691" type="line"/>
      <point x="290" y="246" type="line"/>
      <point x="98" y="246" type="line"/>
      <point x="98" y="217" type="line"/>
    </contour>
    <contour>
      <point x="113" y="130" type="line"/>
      <point x="113" y="720" type="line"/>
      <point x="84" y="720" type="line"/>
      <point x="84" y="130" type="line"/>
    </contour>
  </outline>
</glyph>
<glyph name="uni5511" format="2">
  <advance width="1000" height="1000"/>
  <unicode hex="5511"/>
  <note>
cid12361
</note>
  <outline>
    <contour>
      <point x="895" y="209" type="line"/>
      <point x="895" y="239" type="line"/>
      <point x="387" y="239" type="line"/>
      <point x="387" y="209" type="line"/>
    </contour>
    <contour>
      <point x="950" y="-40" type="line"/>
      <point x="950" y="-11" type="line"/>
      <point x="336" y="-11" type="line"/>
      <point x="336" y="-40" type="line"/>
    </contour>
    <contour>
      <point x="657" y="-25" type="line"/>
      <point x="657" y="830" type="line"/>
      <point x="627" y="830" type="line"/>
      <point x="627" y="-25" type="line"/>
    </contour>
    <contour>
      <point x="504" y="727" type="curve"/>
      <point x="475" y="730" type="line"/>
      <point x="457" y="562"/>
      <point x="418" y="421"/>
      <point x="333" y="329" type="curve"/>
      <point x="340" y="325"/>
      <point x="353" y="317"/>
      <point x="358" y="312" type="curve"/>
      <point x="442" y="410"/>
      <point x="484" y="550"/>
    </contour>
    <contour>
      <point x="848" y="727" type="curve"/>
      <point x="819" y="731" type="line"/>
      <point x="799" y="570"/>
      <point x="759" y="436"/>
      <point x="674" y="349" type="curve"/>
      <point x="682" y="345"/>
      <point x="695" y="337"/>
      <point x="700" y="333" type="curve"/>
      <point x="783" y="426"/>
      <point x="826" y="560"/>
    </contour>
    <contour>
      <point x="470" y="571" type="curve"/>
      <point x="449" y="555" type="line"/>
      <point x="473" y="521"/>
      <point x="548" y="398"/>
      <point x="571" y="357" type="curve"/>
      <point x="594" y="377" type="line"/>
      <point x="576" y="407"/>
      <point x="490" y="541"/>
    </contour>
    <contour>
      <point x="806" y="562" type="curve"/>
      <point x="784" y="547" type="line"/>
      <point x="814" y="510"/>
      <point x="905" y="377"/>
      <point x="931" y="332" type="curve"/>
      <point x="955" y="352" type="line"/>
      <point x="931" y="386"/>
      <point x="831" y="530"/>
    </contour>
    <contour>
      <point x="313" y="228" type="line"/>
      <point x="313" y="731" type="line"/>
      <point x="98" y="731" type="line"/>
      <point x="98" y="702" type="line"/>
      <point x="283" y="702" type="line"/>
      <point x="283" y="257" type="line"/>
      <point x="98" y="257" type="line"/>
      <point x="98" y="228" type="line"/>
    </contour>
    <contour>
      <point x="113" y="135" type="line"/>
      <point x="113" y="731" type="line"/>
      <point x="84" y="731" type="line"/>
      <point x="84" y="135" type="line"/>
    </contour>
  </outline>
</glyph>
<glyph name="uni551E" format="2">
  <advance width="1000" height="1000"/>
  <unicode hex="551E"/>
  <note>
cid12354
</note>
  <outline>
    <contour>
      <point x="854" y="829" type="line"/>
      <point x="824" y="829" type="line"/>
      <point x="824" y="-70" type="line"/>
      <point x="854" y="-70" type="line"/>
    </contour>
    <contour>
      <point x="956" y="267" type="line"/>
      <point x="570" y="186" type="line"/>
      <point x="576" y="159" type="line"/>
      <point x="962" y="240" type="line"/>
    </contour>
    <contour>
      <point x="636" y="509" type="curve"/>
      <point x="614" y="493" type="line"/>
      <point x="668" y="444"/>
      <point x="723" y="375"/>
      <point x="747" y="327" type="curve"/>
      <point x="771" y="345" type="line"/>
      <point x="748" y="392"/>
      <point x="691" y="461"/>
    </contour>
    <contour>
      <point x="647" y="754" type="curve"/>
      <point x="624" y="738" type="line"/>
      <point x="678" y="693"/>
      <point x="734" y="628"/>
      <point x="759" y="583" type="curve"/>
      <point x="781" y="602" type="line"/>
      <point x="758" y="646"/>
      <point x="701" y="710"/>
    </contour>
    <contour>
      <point x="293" y="720" type="line"/>
      <point x="98" y="720" type="line"/>
      <point x="98" y="691" type="line"/>
      <point x="264" y="691" type="line"/>
      <point x="264" y="228" type="line"/>
      <point x="98" y="228" type="line"/>
      <point x="98" y="198" type="line"/>
      <point x="293" y="198" type="line"/>
    </contour>
    <contour>
      <point x="112" y="720" type="line"/>
      <point x="83" y="720" type="line"/>
      <point x="83" y="116" type="line"/>
      <point x="112" y="116" type="line"/>
    </contour>
    <contour>
      <point x="582" y="619" type="line"/>
      <point x="328" y="619" type="line"/>
      <point x="328" y="589" type="line"/>
      <point x="582" y="589" type="line"/>
    </contour>
    <contour>
      <point x="319" y="284" type="curve"/>
      <point x="333" y="257" type="line"/>
      <point x="405" y="286"/>
      <point x="498" y="327"/>
      <point x="588" y="365" type="curve"/>
      <point x="582" y="391" type="line"/>
      <point x="485" y="351"/>
      <point x="387" y="310"/>
    </contour>
    <contour>
      <point x="476" y="828" type="line"/>
      <point x="446" y="828" type="line"/>
      <point x="446" y="-23" type="line" smooth="yes"/>
      <point x="446" y="-36"/>
      <point x="443" y="-40"/>
      <point x="431" y="-40" type="curve" smooth="yes"/>
      <point x="419" y="-40"/>
      <point x="381" y="-41"/>
      <point x="337" y="-39" type="curve"/>
      <point x="342" y="-49"/>
      <point x="346" y="-64"/>
      <point x="348" y="-71" type="curve"/>
      <point x="401" y="-71"/>
      <point x="434" y="-70"/>
      <point x="450" y="-65" type="curve" smooth="yes"/>
      <point x="468" y="-60"/>
      <point x="476" y="-49"/>
      <point x="476" y="-22" type="curve" smooth="yes"/>
    </contour>
  </outline>
</glyph>
<glyph name="uni552C" format="2">
  <advance width="1000" height="1000"/>
  <unicode hex="552C"/>
  <note>
cid12373
</note>
  <outline>
    <contour>
      <point x="653" y="822" type="line"/>
      <point x="623" y="822" type="line"/>
      <point x="623" y="593" type="line"/>
      <point x="653" y="593" type="line"/>
    </contour>
    <contour>
      <point x="904" y="726" type="line"/>
      <point x="639" y="726" type="line"/>
      <point x="639" y="697" type="line"/>
      <point x="904" y="697" type="line"/>
    </contour>
    <contour>
      <point x="917" y="611" type="line"/>
      <point x="396" y="611" type="line"/>
      <point x="396" y="581" type="line"/>
      <point x="917" y="581" type="line"/>
    </contour>
    <contour>
      <point x="914" y="611" type="line"/>
      <point x="908" y="611" type="line"/>
      <point x="908" y="605" type="line"/>
      <point x="892" y="556"/>
      <point x="869" y="500"/>
      <point x="852" y="463" type="curve"/>
      <point x="877" y="454" type="line"/>
      <point x="897" y="491"/>
      <point x="919" y="552"/>
      <point x="940" y="604" type="curve"/>
      <point x="921" y="613" type="line"/>
    </contour>
    <contour>
      <point x="815" y="479" type="line"/>
      <point x="435" y="440" type="line"/>
      <point x="439" y="412" type="line"/>
      <point x="819" y="451" type="line"/>
    </contour>
    <contour>
      <point x="409" y="611" type="line"/>
      <point x="379" y="611" type="line"/>
      <point x="379" y="332" type="line" smooth="yes"/>
      <point x="379" y="213"/>
      <point x="366" y="63"/>
      <point x="258" y="-46" type="curve"/>
      <point x="266" y="-50"/>
      <point x="276" y="-59"/>
      <point x="280" y="-65" type="curve"/>
      <point x="392" y="46"/>
      <point x="409" y="208"/>
      <point x="409" y="332" type="curve" smooth="yes"/>
    </contour>
    <contour>
      <point x="621" y="556" type="line"/>
      <point x="592" y="556" type="line"/>
      <point x="592" y="350" type="line" smooth="yes"/>
      <point x="592" y="304"/>
      <point x="609" y="296"/>
      <point x="674" y="296" type="curve" smooth="yes"/>
      <point x="688" y="296"/>
      <point x="838" y="296"/>
      <point x="852" y="296" type="curve" smooth="yes"/>
      <point x="902" y="296"/>
      <point x="914" y="315"/>
      <point x="918" y="390" type="curve"/>
      <point x="908" y="392"/>
      <point x="897" y="396"/>
      <point x="889" y="402" type="curve"/>
      <point x="887" y="333"/>
      <point x="881" y="325"/>
      <point x="849" y="325" type="curve" smooth="yes"/>
      <point x="820" y="325"/>
      <point x="693" y="325"/>
      <point x="672" y="325" type="curve" smooth="yes"/>
      <point x="628" y="325"/>
      <point x="621" y="329"/>
      <point x="621" y="350" type="curve" smooth="yes"/>
    </contour>
    <contour>
      <point x="593" y="254" type="curve"/>
      <point x="562" y="254" type="line"/>
      <point x="555" y="81"/>
      <point x="519" y="-3"/>
      <point x="370" y="-49" type="curve"/>
      <point x="377" y="-54"/>
      <point x="386" y="-64"/>
      <point x="390" y="-70" type="curve"/>
      <point x="543" y="-20"/>
      <point x="583" y="69"/>
    </contour>
    <contour>
      <point x="752" y="255" type="line"/>
      <point x="722" y="255" type="line"/>
      <point x="722" y="-8" type="line" smooth="yes"/>
      <point x="722" y="-52"/>
      <point x="736" y="-60"/>
      <point x="785" y="-60" type="curve" smooth="yes"/>
      <point x="796" y="-60"/>
      <point x="879" y="-60"/>
      <point x="890" y="-60" type="curve" smooth="yes"/>
      <point x="937" y="-60"/>
      <point x="947" y="-33"/>
      <point x="950" y="84" type="curve"/>
      <point x="941" y="87"/>
      <point x="929" y="91"/>
      <point x="921" y="97" type="curve"/>
      <point x="919" y="-18"/>
      <point x="914" y="-32"/>
      <point x="887" y="-32" type="curve" smooth="yes"/>
      <point x="868" y="-32"/>
      <point x="800" y="-32"/>
      <point x="786" y="-32" type="curve" smooth="yes"/>
      <point x="757" y="-32"/>
      <point x="752" y="-28"/>
      <point x="752" y="-8" type="curve" smooth="yes"/>
    </contour>
    <contour>
      <point x="314" y="720" type="line"/>
      <point x="98" y="720" type="line"/>
      <point x="98" y="691" type="line"/>
      <point x="284" y="691" type="line"/>
      <point x="284" y="246" type="line"/>
      <point x="98" y="246" type="line"/>
      <point x="98" y="217" type="line"/>
      <point x="314" y="217" type="line"/>
    </contour>
    <contour>
      <point x="113" y="720" type="line"/>
      <point x="84" y="720" type="line"/>
      <point x="84" y="130" type="line"/>
      <point x="113" y="130" type="line"/>
    </contour>
  </outline>
</glyph>
<glyph name="uni552D" format="2">
  <advance width="1000" height="1000"/>
  <unicode hex="552D"/>
  <note>
cid12397
</note>
  <outline>
    <contour>
      <point x="939" y="649" type="line"/>
      <point x="939" y="678" type="line"/>
      <point x="384" y="678" type="line"/>
      <point x="384" y="649" type="line"/>
    </contour>
    <contour>
      <point x="809" y="497" type="line"/>
      <point x="809" y="526" type="line"/>
      <point x="507" y="526" type="line"/>
      <point x="507" y="497" type="line"/>
    </contour>
    <contour>
      <point x="809" y="342" type="line"/>
      <point x="809" y="372" type="line"/>
      <point x="507" y="372" type="line"/>
      <point x="507" y="342" type="line"/>
    </contour>
    <contour>
      <point x="955" y="186" type="line"/>
      <point x="955" y="216" type="line"/>
      <point x="361" y="216" type="line"/>
      <point x="361" y="186" type="line"/>
    </contour>
    <contour>
      <point x="520" y="200" type="line"/>
      <point x="520" y="831" type="line"/>
      <point x="491" y="831" type="line"/>
      <point x="491" y="200" type="line"/>
    </contour>
    <contour>
      <point x="827" y="200" type="line"/>
      <point x="827" y="831" type="line"/>
      <point x="798" y="831" type="line"/>
      <point x="798" y="200" type="line"/>
    </contour>
    <contour>
      <point x="768" y="138" type="curve"/>
      <point x="745" y="124" type="line"/>
      <point x="817" y="65"/>
      <point x="893" y="-15"/>
      <point x="930" y="-70" type="curve"/>
      <point x="955" y="-54" type="line"/>
      <point x="917" y="1"/>
      <point x="840" y="80"/>
    </contour>
    <contour>
      <point x="582" y="126" type="curve"/>
      <point x="549" y="138" type="line"/>
      <point x="503" y="70"/>
      <point x="427" y="-3"/>
      <point x="352" y="-49" type="curve"/>
      <point x="359" y="-55"/>
      <point x="370" y="-65"/>
      <point x="375" y="-71" type="curve"/>
      <point x="449" y="-22"/>
      <point x="529" y="54"/>
    </contour>
    <contour>
      <point x="335" y="192" type="line"/>
      <point x="335" y="715" type="line"/>
      <point x="100" y="715" type="line"/>
      <point x="100" y="685" type="line"/>
      <point x="306" y="685" type="line"/>
      <point x="306" y="222" type="line"/>
      <point x="100" y="222" type="line"/>
      <point x="100" y="192" type="line"/>
    </contour>
    <contour>
      <point x="112" y="92" type="line"/>
      <point x="112" y="715" type="line"/>
      <point x="83" y="715" type="line"/>
      <point x="83" y="92" type="line"/>
    </contour>
  </outline>
</glyph>
<glyph name="uni5530" format="2">
  <advance width="1000" height="1000"/>
  <unicode hex="5530"/>
  <note>
cid12402
</note>
  <outline>
    <contour>
      <point x="772" y="159" type="line"/>
      <point x="772" y="714" type="line"/>
      <point x="743" y="714" type="line"/>
      <point x="743" y="159" type="line"/>
    </contour>
    <contour>
      <point x="915" y="-24" type="curve" smooth="yes"/>
      <point x="915" y="810" type="line"/>
      <point x="885" y="810" type="line"/>
      <point x="885" y="-24" type="line" smooth="yes"/>
      <point x="885" y="-36"/>
      <point x="880" y="-40"/>
      <point x="868" y="-41" type="curve" smooth="yes"/>
      <point x="857" y="-41"/>
      <point x="819" y="-41"/>
      <point x="772" y="-40" type="curve"/>
      <point x="777" y="-49"/>
      <point x="782" y="-62"/>
      <point x="784" y="-70" type="curve"/>
      <point x="841" y="-70"/>
      <point x="871" y="-69"/>
      <point x="889" y="-64" type="curve" smooth="yes"/>
      <point x="906" y="-58"/>
      <point x="915" y="-48"/>
    </contour>
    <contour>
      <point x="299" y="217" type="line"/>
      <point x="299" y="720" type="line"/>
      <point x="98" y="720" type="line"/>
      <point x="98" y="691" type="line"/>
      <point x="270" y="691" type="line"/>
      <point x="270" y="246" type="line"/>
      <point x="98" y="246" type="line"/>
      <point x="98" y="217" type="line"/>
    </contour>
    <contour>
      <point x="113" y="133" type="line"/>
      <point x="113" y="720" type="line"/>
      <point x="84" y="720" type="line"/>
      <point x="84" y="133" type="line"/>
    </contour>
    <contour>
      <point x="661" y="380" type="line"/>
      <point x="661" y="410" type="line"/>
      <point x="417" y="410" type="line"/>
      <point x="417" y="27" type="line"/>
      <point x="446" y="27" type="line"/>
      <point x="446" y="380" type="line"/>
    </contour>
    <contour>
      <point x="687" y="78" type="curve" smooth="yes"/>
      <point x="687" y="410" type="line"/>
      <point x="658" y="410" type="line"/>
      <point x="658" y="78" type="line" smooth="yes"/>
      <point x="658" y="69"/>
      <point x="656" y="67"/>
      <point x="647" y="66" type="curve" smooth="yes"/>
      <point x="638" y="66"/>
      <point x="614" y="66"/>
      <point x="579" y="67" type="curve"/>
      <point x="584" y="57"/>
      <point x="590" y="45"/>
      <point x="591" y="37" type="curve"/>
      <point x="629" y="37"/>
      <point x="655" y="37"/>
      <point x="670" y="43" type="curve" smooth="yes"/>
      <point x="683" y="49"/>
      <point x="687" y="58"/>
    </contour>
    <contour>
      <point x="387" y="504" type="curve" smooth="yes"/>
      <point x="387" y="788" type="line"/>
      <point x="358" y="788" type="line"/>
      <point x="358" y="504" type="line" smooth="yes"/>
      <point x="358" y="346"/>
      <point x="348" y="131"/>
      <point x="249" y="-26" type="curve"/>
      <point x="256" y="-29"/>
      <point x="269" y="-37"/>
      <point x="274" y="-42" type="curve"/>
      <point x="375" y="118"/>
      <point x="387" y="343"/>
    </contour>
    <contour>
      <point x="684" y="561" type="line"/>
      <point x="684" y="788" type="line"/>
      <point x="366" y="788" type="line"/>
      <point x="366" y="759" type="line"/>
      <point x="655" y="759" type="line"/>
      <point x="655" y="590" type="line"/>
      <point x="366" y="590" type="line"/>
      <point x="366" y="561" type="line"/>
    </contour>
    <contour>
      <point x="562" y="388" type="line"/>
      <point x="562" y="529" type="line"/>
      <point x="531" y="529" type="line"/>
      <point x="531" y="388" type="line"/>
      <point x="531" y="388" type="line"/>
      <point x="531" y="-68" type="line"/>
      <point x="562" y="-68" type="line"/>
      <point x="562" y="388" type="line"/>
    </contour>
  </outline>
</glyph>
<glyph name="uni5537" format="2">
  <advance width="1000"/>
  <unicode hex="5537"/>
  <note>
cid12393
</note>
  <outline>
    <contour>
      <point x="307" y="727" type="line"/>
      <point x="94" y="727" type="line"/>
      <point x="94" y="698" type="line"/>
      <point x="278" y="698" type="line"/>
      <point x="278" y="229" type="line"/>
      <point x="94" y="229" type="line"/>
      <point x="94" y="199" type="line"/>
      <point x="307" y="199" type="line"/>
    </contour>
    <contour>
      <point x="114" y="727" type="line"/>
      <point x="84" y="727" type="line"/>
      <point x="84" y="96" type="line"/>
      <point x="114" y="96" type="line"/>
    </contour>
    <contour>
      <point x="955" y="714" type="line"/>
      <point x="338" y="714" type="line"/>
      <point x="338" y="684" type="line"/>
      <point x="955" y="684" type="line"/>
    </contour>
    <contour>
      <point x="855" y="267" type="line"/>
      <point x="444" y="267" type="line"/>
      <point x="444" y="237" type="line"/>
      <point x="855" y="237" type="line"/>
    </contour>
    <contour>
      <point x="860" y="129" type="line"/>
      <point x="444" y="129" type="line"/>
      <point x="444" y="99" type="line"/>
      <point x="860" y="99" type="line"/>
    </contour>
    <contour>
      <point x="651" y="831" type="line"/>
      <point x="622" y="831" type="line"/>
      <point x="622" y="699" type="line"/>
      <point x="651" y="699" type="line"/>
    </contour>
    <contour>
      <point x="579" y="687" type="curve"/>
      <point x="549" y="697" type="line"/>
      <point x="528" y="639"/>
      <point x="486" y="551"/>
      <point x="454" y="499" type="curve"/>
      <point x="479" y="490" type="line"/>
      <point x="512" y="541"/>
      <point x="550" y="622"/>
    </contour>
    <contour>
      <point x="346" y="511" type="curve"/>
      <point x="350" y="479" type="line"/>
      <point x="481" y="483"/>
      <point x="677" y="491"/>
      <point x="867" y="499" type="curve"/>
      <point x="868" y="527" type="line"/>
      <point x="672" y="520"/>
      <point x="472" y="514"/>
    </contour>
    <contour>
      <point x="753" y="648" type="curve"/>
      <point x="728" y="633" type="line"/>
      <point x="799" y="572"/>
      <point x="879" y="483"/>
      <point x="917" y="427" type="curve"/>
      <point x="942" y="445" type="line"/>
      <point x="904" y="501"/>
      <point x="822" y="587"/>
    </contour>
    <contour>
      <point x="859" y="400" type="line"/>
      <point x="430" y="400" type="line"/>
      <point x="430" y="-70" type="line"/>
      <point x="459" y="-70" type="line"/>
      <point x="459" y="371" type="line"/>
      <point x="859" y="371" type="line"/>
    </contour>
    <contour>
      <point x="867" y="400" type="line"/>
      <point x="837" y="400" type="line"/>
      <point x="837" y="-21" type="line" smooth="yes"/>
      <point x="837" y="-34"/>
      <point x="834" y="-39"/>
      <point x="819" y="-39" type="curve" smooth="yes"/>
      <point x="803" y="-41"/>
      <point x="755" y="-41"/>
      <point x="689" y="-39" type="curve"/>
      <point x="694" y="-49"/>
      <point x="700" y="-62"/>
      <point x="702" y="-70" type="curve"/>
      <point x="773" y="-70"/>
      <point x="818" y="-70"/>
      <point x="839" y="-65" type="curve" smooth="yes"/>
      <point x="861" y="-58"/>
      <point x="867" y="-46"/>
      <point x="867" y="-21" type="curve" smooth="yes"/>
    </contour>
  </outline>
</glyph>
<glyph name="uni5543" format="2">
  <advance width="1000" height="1000"/>
  <unicode hex="5543"/>
  <note>
cid12441
</note>
  <outline>
    <contour>
      <point x="328" y="199" type="line"/>
      <point x="328" y="721" type="line"/>
      <point x="100" y="721" type="line"/>
      <point x="100" y="692" type="line"/>
      <point x="298" y="692" type="line"/>
      <point x="298" y="229" type="line"/>
      <point x="100" y="229" type="line"/>
      <point x="100" y="199" type="line"/>
    </contour>
    <contour>
      <point x="112" y="113" type="line"/>
      <point x="112" y="721" type="line"/>
      <point x="83" y="721" type="line"/>
      <point x="83" y="113" type="line"/>
    </contour>
    <contour>
      <point x="681" y="548" type="line"/>
      <point x="681" y="830" type="line"/>
      <point x="652" y="830" type="line"/>
      <point x="652" y="548" type="line"/>
    </contour>
    <contour>
      <point x="506" y="554" type="line"/>
      <point x="506" y="766" type="line"/>
      <point x="476" y="766" type="line"/>
      <point x="476" y="554" type="line"/>
    </contour>
    <contour>
      <point x="872" y="412" type="line"/>
      <point x="872" y="441" type="line"/>
      <point x="443" y="441" type="line"/>
      <point x="443" y="-70" type="line"/>
      <point x="472" y="-70" type="line"/>
      <point x="472" y="412" type="line"/>
    </contour>
    <contour>
      <point x="888" y="-23" type="curve" smooth="yes"/>
      <point x="888" y="441" type="line"/>
      <point x="858" y="441" type="line"/>
      <point x="858" y="-23" type="line" smooth="yes"/>
      <point x="858" y="-36"/>
      <point x="855" y="-40"/>
      <point x="841" y="-41" type="curve" smooth="yes"/>
      <point x="826" y="-42"/>
      <point x="781" y="-42"/>
      <point x="721" y="-41" type="curve"/>
      <point x="726" y="-50"/>
      <point x="732" y="-62"/>
      <point x="734" y="-70" type="curve"/>
      <point x="802" y="-70"/>
      <point x="842" y="-70"/>
      <point x="861" y="-65" type="curve" smooth="yes"/>
      <point x="882" y="-59"/>
      <point x="888" y="-47"/>
    </contour>
    <contour>
      <point x="873" y="272" type="line"/>
      <point x="873" y="301" type="line"/>
      <point x="458" y="301" type="line"/>
      <point x="458" y="272" type="line"/>
    </contour>
    <contour>
      <point x="873" y="127" type="line"/>
      <point x="873" y="156" type="line"/>
      <point x="458" y="156" type="line"/>
      <point x="458" y="127" type="line"/>
    </contour>
    <contour>
      <point x="898" y="690" type="line"/>
      <point x="898" y="719" type="line"/>
      <point x="667" y="719" type="line"/>
      <point x="667" y="690" type="line"/>
    </contour>
    <contour>
      <point x="953" y="538" type="line"/>
      <point x="953" y="568" type="line"/>
      <point x="360" y="568" type="line"/>
      <point x="360" y="538" type="line"/>
    </contour>
  </outline>
</glyph>
<glyph name="uni5544" format="2">
  <advance width="1000" height="1000"/>
  <unicode hex="5544"/>
  <note>
cid62176
</note>
  <outline>
    <contour>
      <point x="299" y="251" type="line"/>
      <point x="299" y="713" type="line"/>
      <point x="98" y="713" type="line"/>
      <point x="98" y="683" type="line"/>
      <point x="270" y="683" type="line"/>
      <point x="270" y="280" type="line"/>
      <point x="98" y="280" type="line"/>
      <point x="98" y="251" type="line"/>
    </contour>
    <contour>
      <point x="113" y="157" type="line"/>
      <point x="113" y="713" type="line"/>
      <point x="84" y="713" type="line"/>
      <point x="84" y="157" type="line"/>
    </contour>
    <contour>
      <point x="952" y="733" type="line"/>
      <point x="952" y="763" type="line"/>
      <point x="316" y="763" type="line"/>
      <point x="316" y="733" type="line"/>
    </contour>
    <contour>
      <point x="519" y="614" type="curve"/>
      <point x="496" y="599" type="line"/>
      <point x="704" y="395"/>
      <point x="695" y="41"/>
      <point x="608" y="-22" type="curve" smooth="yes"/>
      <point x="584" y="-40"/>
      <point x="562" y="-42"/>
      <point x="531" y="-42" type="curve" smooth="yes"/>
      <point x="512" y="-42"/>
      <point x="474" y="-41"/>
      <point x="436" y="-37" type="curve"/>
      <point x="441" y="-46"/>
      <point x="444" y="-59"/>
      <point x="444" y="-68" type="curve"/>
      <point x="478" y="-70"/>
      <point x="517" y="-71"/>
      <point x="537" y="-71" type="curve" smooth="yes"/>
      <point x="578" y="-70"/>
      <point x="602" y="-65"/>
      <point x="631" y="-42" type="curve" smooth="yes"/>
      <point x="731" y="33"/>
      <point x="734" y="407"/>
    </contour>
    <contour>
      <point x="645" y="747" type="curve"/>
      <point x="618" y="757" type="line"/>
      <point x="549" y="652"/>
      <point x="431" y="558"/>
      <point x="317" y="498" type="curve"/>
      <point x="325" y="492"/>
      <point x="335" y="479"/>
      <point x="339" y="474" type="curve"/>
      <point x="452" y="539"/>
      <point x="573" y="636"/>
    </contour>
    <contour>
      <point x="665" y="752" type="curve"/>
      <point x="636" y="748" type="line"/>
      <point x="676" y="423"/>
      <point x="759" y="162"/>
      <point x="931" y="33" type="curve"/>
      <point x="937" y="41"/>
      <point x="948" y="51"/>
      <point x="955" y="57" type="curve"/>
      <point x="784" y="175"/>
      <point x="703" y="435"/>
    </contour>
    <contour>
      <point x="936" y="579" type="curve"/>
      <point x="913" y="598" type="line"/>
      <point x="863" y="538"/>
      <point x="776" y="458"/>
      <point x="715" y="408" type="curve"/>
      <point x="735" y="389" type="line"/>
      <point x="798" y="440"/>
      <point x="879" y="514"/>
    </contour>
    <contour>
      <point x="613" y="478" type="curve"/>
      <point x="589" y="491" type="line"/>
      <point x="526" y="414"/>
      <point x="409" y="327"/>
      <point x="321" y="288" type="curve"/>
      <point x="328" y="282"/>
      <point x="336" y="273"/>
      <point x="341" y="266" type="curve"/>
      <point x="428" y="309"/>
      <point x="549" y="398"/>
    </contour>
    <contour>
      <point x="673" y="330" type="curve"/>
      <point x="650" y="342" type="line"/>
      <point x="562" y="216"/>
      <point x="388" y="91"/>
      <point x="241" y="37" type="curve"/>
      <point x="248" y="32"/>
      <point x="257" y="22"/>
      <point x="262" y="14" type="curve"/>
      <point x="407" y="74"/>
      <point x="582" y="198"/>
    </contour>
    <contour>
      <point x="401" y="443" type="curve"/>
      <point x="376" y="433" type="line"/>
      <point x="449" y="333"/>
      <point x="525" y="186"/>
      <point x="560" y="76" type="curve"/>
      <point x="587" y="87" type="line"/>
      <point x="550" y="197"/>
      <point x="474" y="344"/>
    </contour>
  </outline>
</glyph>
<glyph name="uni555D" format="2">
  <advance width="1000" height="1000"/>
  <unicode hex="555D"/>
  <note>
cid12484
</note>
  <outline>
    <contour>
      <point x="910" y="-40" type="line"/>
      <point x="910" y="729" type="line"/>
      <point x="672" y="729" type="line"/>
      <point x="672" y="-56" type="line"/>
      <point x="701" y="-56" type="line"/>
      <point x="701" y="700" type="line"/>
      <point x="880" y="700" type="line"/>
      <point x="880" y="-40" type="line"/>
    </contour>
    <contour>
      <point x="897" y="27" type="line"/>
      <point x="897" y="56" type="line"/>
      <point x="689" y="56" type="line"/>
      <point x="689" y="27" type="line"/>
    </contour>
    <contour>
      <point x="639" y="783" type="curve"/>
      <point x="615" y="806" type="line"/>
      <point x="552" y="773"/>
      <point x="433" y="739"/>
      <point x="334" y="716" type="curve"/>
      <point x="338" y="708"/>
      <point x="343" y="698"/>
      <point x="345" y="691" type="curve"/>
      <point x="446" y="714"/>
      <point x="566" y="747"/>
    </contour>
    <contour>
      <point x="640" y="495" type="line"/>
      <point x="640" y="524" type="line"/>
      <point x="336" y="524" type="line"/>
      <point x="336" y="495" type="line"/>
    </contour>
    <contour>
      <point x="509" y="-72" type="line"/>
      <point x="509" y="747" type="line"/>
      <point x="480" y="735" type="line"/>
      <point x="480" y="-72" type="line"/>
    </contour>
    <contour>
      <point x="502" y="507" type="curve"/>
      <point x="476" y="515" type="line"/>
      <point x="438" y="351"/>
      <point x="360" y="186"/>
      <point x="273" y="89" type="curve"/>
      <point x="279" y="84"/>
      <point x="288" y="73"/>
      <point x="293" y="65" type="curve"/>
      <point x="384" y="167"/>
      <point x="465" y="338"/>
    </contour>
    <contour>
      <point x="299" y="198" type="line"/>
      <point x="299" y="720" type="line"/>
      <point x="98" y="720" type="line"/>
      <point x="98" y="691" type="line"/>
      <point x="270" y="691" type="line"/>
      <point x="270" y="228" type="line"/>
      <point x="98" y="228" type="line"/>
      <point x="98" y="198" type="line"/>
    </contour>
    <contour>
      <point x="113" y="116" type="line"/>
      <point x="113" y="720" type="line"/>
      <point x="84" y="720" type="line"/>
      <point x="84" y="116" type="line"/>
    </contour>
    <contour>
      <point x="507" y="403" type="curve"/>
      <point x="487" y="386" type="line"/>
      <point x="516" y="361"/>
      <point x="602" y="274"/>
      <point x="626" y="242" type="curve"/>
      <point x="646" y="266" type="line"/>
      <point x="625" y="289"/>
      <point x="533" y="381"/>
    </contour>
  </outline>
</glyph>
<glyph name="uni556A" format="2">
  <advance width="1000" height="1000"/>
  <unicode hex="556A"/>
  <note>
cid12502
</note>
  <outline>
    <contour>
      <point x="899" y="-10" type="line"/>
      <point x="899" y="20" type="line"/>
      <point x="624" y="20" type="line"/>
      <point x="624" y="-10" type="line"/>
    </contour>
    <contour>
      <point x="899" y="309" type="line"/>
      <point x="899" y="338" type="line"/>
      <point x="624" y="338" type="line"/>
      <point x="624" y="309" type="line"/>
    </contour>
    <contour>
      <point x="906" y="-65" type="line"/>
      <point x="906" y="647" type="line"/>
      <point x="617" y="647" type="line"/>
      <point x="617" y="-71" type="line"/>
      <point x="646" y="-71" type="line"/>
      <point x="646" y="618" type="line"/>
      <point x="876" y="618" type="line"/>
      <point x="876" y="-65" type="line"/>
    </contour>
    <contour>
      <point x="794" y="822" type="curve"/>
      <point x="765" y="833" type="line"/>
      <point x="750" y="775"/>
      <point x="721" y="688"/>
      <point x="699" y="635" type="curve"/>
      <point x="724" y="625" type="line"/>
      <point x="748" y="678"/>
      <point x="773" y="759"/>
    </contour>
    <contour>
      <point x="290" y="198" type="line"/>
      <point x="290" y="720" type="line"/>
      <point x="98" y="720" type="line"/>
      <point x="98" y="691" type="line"/>
      <point x="261" y="691" type="line"/>
      <point x="261" y="227" type="line"/>
      <point x="98" y="227" type="line"/>
      <point x="98" y="198" type="line"/>
    </contour>
    <contour>
      <point x="113" y="116" type="line"/>
      <point x="113" y="720" type="line"/>
      <point x="84" y="720" type="line"/>
      <point x="84" y="116" type="line"/>
    </contour>
    <contour>
      <point x="582" y="589" type="line"/>
      <point x="582" y="619" type="line"/>
      <point x="322" y="619" type="line"/>
      <point x="322" y="589" type="line"/>
    </contour>
    <contour>
      <point x="315" y="278" type="curve"/>
      <point x="328" y="251" type="line"/>
      <point x="401" y="278"/>
      <point x="496" y="315"/>
      <point x="588" y="351" type="curve"/>
      <point x="583" y="377" type="line"/>
      <point x="484" y="339"/>
      <point x="383" y="302"/>
    </contour>
    <contour>
      <point x="470" y="-22" type="curve" smooth="yes"/>
      <point x="470" y="828" type="line"/>
      <point x="440" y="828" type="line"/>
      <point x="440" y="-23" type="line" smooth="yes"/>
      <point x="440" y="-36"/>
      <point x="436" y="-39"/>
      <point x="425" y="-40" type="curve" smooth="yes"/>
      <point x="413" y="-40"/>
      <point x="375" y="-41"/>
      <point x="331" y="-39" type="curve"/>
      <point x="336" y="-49"/>
      <point x="340" y="-64"/>
      <point x="342" y="-71" type="curve"/>
      <point x="395" y="-71"/>
      <point x="428" y="-70"/>
      <point x="444" y="-65" type="curve" smooth="yes"/>
      <point x="462" y="-60"/>
      <point x="470" y="-49"/>
    </contour>
  </outline>
</glyph>
<glyph name="uni5575" format="2">
  <advance width="1000" height="1000"/>
  <unicode hex="5575"/>
  <note>
cid12513
</note>
  <outline>
    <contour>
      <point x="285" y="203" type="line"/>
      <point x="285" y="725" type="line"/>
      <point x="99" y="725" type="line"/>
      <point x="99" y="696" type="line"/>
      <point x="256" y="696" type="line"/>
      <point x="256" y="232" type="line"/>
      <point x="99" y="232" type="line"/>
      <point x="99" y="203" type="line"/>
    </contour>
    <contour>
      <point x="114" y="121" type="line"/>
      <point x="114" y="725" type="line"/>
      <point x="84" y="725" type="line"/>
      <point x="84" y="121" type="line"/>
    </contour>
    <contour>
      <point x="370" y="823" type="curve"/>
      <point x="349" y="806" type="line"/>
      <point x="395" y="773"/>
      <point x="447" y="724"/>
      <point x="472" y="691" type="curve"/>
      <point x="493" y="711" type="line"/>
      <point x="469" y="745"/>
      <point x="416" y="792"/>
    </contour>
    <contour>
      <point x="331" y="550" type="curve"/>
      <point x="313" y="530" type="line"/>
      <point x="361" y="503"/>
      <point x="416" y="462"/>
      <point x="444" y="432" type="curve"/>
      <point x="463" y="455" type="line"/>
      <point x="436" y="484"/>
      <point x="379" y="524"/>
    </contour>
    <contour>
      <point x="286" y="-39" type="curve"/>
      <point x="313" y="-59" type="line"/>
      <point x="362" y="31"/>
      <point x="425" y="167"/>
      <point x="468" y="272" type="curve"/>
      <point x="445" y="290" type="line"/>
      <point x="399" y="179"/>
      <point x="332" y="40"/>
    </contour>
    <contour>
      <point x="552" y="412" type="curve" smooth="yes"/>
      <point x="552" y="681" type="line"/>
      <point x="522" y="681" type="line"/>
      <point x="522" y="412" type="line" smooth="yes"/>
      <point x="522" y="271"/>
      <point x="509" y="84"/>
      <point x="397" y="-51" type="curve"/>
      <point x="404" y="-54"/>
      <point x="416" y="-63"/>
      <point x="421" y="-69" type="curve"/>
      <point x="535" y="70"/>
      <point x="552" y="266"/>
    </contour>
    <contour>
      <point x="917" y="652" type="line"/>
      <point x="917" y="681" type="line"/>
      <point x="533" y="681" type="line"/>
      <point x="533" y="652" type="line"/>
    </contour>
    <contour>
      <point x="921" y="683" type="line"/>
      <point x="914" y="681" type="line"/>
      <point x="909" y="681" type="line"/>
      <point x="909" y="674" type="line"/>
      <point x="895" y="619"/>
      <point x="875" y="551"/>
      <point x="858" y="509" type="curve"/>
      <point x="884" y="502" type="line"/>
      <point x="902" y="544"/>
      <point x="922" y="616"/>
      <point x="940" y="675" type="curve"/>
    </contour>
    <contour>
      <point x="740" y="427" type="line"/>
      <point x="740" y="833" type="line"/>
      <point x="711" y="833" type="line"/>
      <point x="711" y="427" type="line"/>
    </contour>
    <contour>
      <point x="891" y="413" type="line"/>
      <point x="891" y="442" type="line"/>
      <point x="533" y="442" type="line"/>
      <point x="533" y="413" type="line"/>
    </contour>
    <contour>
      <point x="894" y="444" type="line"/>
      <point x="888" y="442" type="line"/>
      <point x="882" y="442" type="line"/>
      <point x="882" y="434" type="line"/>
      <point x="825" y="195"/>
      <point x="664" y="27"/>
      <point x="506" y="-42" type="curve"/>
      <point x="513" y="-48"/>
      <point x="520" y="-59"/>
      <point x="524" y="-65" type="curve"/>
      <point x="687" y="11"/>
      <point x="850" y="180"/>
      <point x="912" y="436" type="curve"/>
    </contour>
    <contour>
      <point x="596" y="435" type="curve"/>
      <point x="570" y="427" type="line"/>
      <point x="631" y="199"/>
      <point x="759" y="13"/>
      <point x="939" y="-68" type="curve"/>
      <point x="945" y="-61"/>
      <point x="954" y="-51"/>
      <point x="961" y="-44" type="curve"/>
      <point x="781" y="30"/>
      <point x="655" y="213"/>
    </contour>
  </outline>
</glyph>
<glyph name="uni5576" format="2">
  <advance width="1000" height="1000"/>
  <unicode hex="5576"/>
  <note>
cid12514
</note>
  <outline>
    <contour>
      <point x="320" y="217" type="line"/>
      <point x="320" y="720" type="line"/>
      <point x="98" y="720" type="line"/>
      <point x="98" y="691" type="line"/>
      <point x="290" y="691" type="line"/>
      <point x="290" y="246" type="line"/>
      <point x="98" y="246" type="line"/>
      <point x="98" y="217" type="line"/>
    </contour>
    <contour>
      <point x="113" y="130" type="line"/>
      <point x="113" y="720" type="line"/>
      <point x="84" y="720" type="line"/>
      <point x="84" y="130" type="line"/>
    </contour>
    <contour>
      <point x="654" y="684" type="line"/>
      <point x="654" y="830" type="line"/>
      <point x="624" y="830" type="line"/>
      <point x="624" y="684" type="line"/>
    </contour>
    <contour>
      <point x="918" y="547" type="line"/>
      <point x="918" y="699" type="line"/>
      <point x="371" y="699" type="line"/>
      <point x="371" y="547" type="line"/>
      <point x="401" y="547" type="line"/>
      <point x="401" y="670" type="line"/>
      <point x="889" y="670" type="line"/>
      <point x="889" y="547" type="line"/>
    </contour>
    <contour>
      <point x="891" y="475" type="line"/>
      <point x="891" y="505" type="line"/>
      <point x="392" y="505" type="line"/>
      <point x="392" y="475" type="line"/>
    </contour>
    <contour>
      <point x="879" y="243" type="line"/>
      <point x="879" y="273" type="line"/>
      <point x="636" y="273" type="line"/>
      <point x="636" y="243" type="line"/>
    </contour>
    <contour>
      <point x="653" y="-25" type="line"/>
      <point x="653" y="496" type="line"/>
      <point x="623" y="496" type="line"/>
      <point x="623" y="-16" type="line"/>
    </contour>
    <contour>
      <point x="450" y="236" type="curve"/>
      <point x="427" y="225" type="line"/>
      <point x="492" y="-8"/>
      <point x="623" y="-50"/>
      <point x="798" y="-50" type="curve" smooth="yes"/>
      <point x="903" y="-50" type="line"/>
      <point x="937" y="-50" type="line"/>
      <point x="938" y="-42"/>
      <point x="944" y="-28"/>
      <point x="950" y="-20" type="curve"/>
      <point x="925" y="-20"/>
      <point x="814" y="-20"/>
      <point x="799" y="-20" type="curve" smooth="yes"/>
      <point x="640" y="-20"/>
      <point x="508" y="17"/>
    </contour>
    <contour>
      <point x="473" y="371" type="curve"/>
      <point x="443" y="374" type="line"/>
      <point x="425" y="184"/>
      <point x="380" y="40"/>
      <point x="275" y="-52" type="curve"/>
      <point x="283" y="-57"/>
      <point x="296" y="-66"/>
      <point x="302" y="-71" type="curve"/>
      <point x="405" y="28"/>
      <point x="454" y="172"/>
    </contour>
  </outline>
</glyph>
<glyph name="uni5577" format="2">
  <advance width="1000" height="1000"/>
  <unicode hex="5577"/>
  <note>
cid12515
</note>
  <outline>
    <contour>
      <point x="299" y="198" type="line"/>
      <point x="299" y="720" type="line"/>
      <point x="98" y="720" type="line"/>
      <point x="98" y="691" type="line"/>
      <point x="270" y="691" type="line"/>
      <point x="270" y="228" type="line"/>
      <point x="98" y="228" type="line"/>
      <point x="98" y="198" type="line"/>
    </contour>
    <contour>
      <point x="113" y="116" type="line"/>
      <point x="113" y="720" type="line"/>
      <point x="84" y="720" type="line"/>
      <point x="84" y="116" type="line"/>
    </contour>
    <contour>
      <point x="511" y="709" type="line"/>
      <point x="511" y="832" type="line"/>
      <point x="481" y="832" type="line"/>
      <point x="481" y="709" type="line"/>
    </contour>
    <contour>
      <point x="630" y="359" type="line"/>
      <point x="630" y="722" type="line"/>
      <point x="377" y="722" type="line"/>
      <point x="377" y="693" type="line"/>
      <point x="601" y="693" type="line"/>
      <point x="601" y="388" type="line"/>
      <point x="377" y="388" type="line"/>
      <point x="377" y="359" type="line"/>
    </contour>
    <contour>
      <point x="921" y="751" type="line"/>
      <point x="921" y="780" type="line"/>
      <point x="694" y="780" type="line"/>
      <point x="694" y="-70" type="line"/>
      <point x="723" y="-70" type="line"/>
      <point x="723" y="751" type="line"/>
    </contour>
    <contour>
      <point x="920" y="783" type="line"/>
      <point x="915" y="780" type="line"/>
      <point x="910" y="780" type="line"/>
      <point x="910" y="776" type="line"/>
      <point x="882" y="689"/>
      <point x="842" y="569"/>
      <point x="797" y="450" type="curve"/>
      <point x="879" y="343"/>
      <point x="916" y="269"/>
      <point x="916" y="199" type="curve" smooth="yes"/>
      <point x="916" y="162"/>
      <point x="909" y="118"/>
      <point x="889" y="103" type="curve" smooth="yes"/>
      <point x="880" y="97"/>
      <point x="867" y="94"/>
      <point x="852" y="93" type="curve" smooth="yes"/>
      <point x="833" y="92"/>
      <point x="804" y="92"/>
      <point x="772" y="95" type="curve"/>
      <point x="779" y="86"/>
      <point x="784" y="75"/>
      <point x="785" y="66" type="curve"/>
      <point x="810" y="65"/>
      <point x="839" y="64"/>
      <point x="861" y="66" type="curve" smooth="yes"/>
      <point x="879" y="68"/>
      <point x="897" y="74"/>
      <point x="909" y="82" type="curve" smooth="yes"/>
      <point x="933" y="100"/>
      <point x="944" y="154"/>
      <point x="944" y="199" type="curve" smooth="yes"/>
      <point x="944" y="272"/>
      <point x="908" y="349"/>
      <point x="827" y="453" type="curve"/>
      <point x="868" y="564"/>
      <point x="909" y="678"/>
      <point x="939" y="769" type="curve"/>
    </contour>
    <contour>
      <point x="607" y="528" type="line"/>
      <point x="607" y="558" type="line"/>
      <point x="377" y="558" type="line"/>
      <point x="377" y="528" type="line"/>
    </contour>
    <contour>
      <point x="293" y="29" type="curve"/>
      <point x="304" y="0" type="line"/>
      <point x="380" y="32"/>
      <point x="480" y="74"/>
      <point x="577" y="114" type="curve"/>
      <point x="572" y="142" type="line"/>
      <point x="468" y="99"/>
      <point x="364" y="55"/>
    </contour>
    <contour>
      <point x="482" y="288" type="curve"/>
      <point x="459" y="276" type="line"/>
      <point x="526" y="190"/>
      <point x="596" y="73"/>
      <point x="626" y="-4" type="curve"/>
      <point x="652" y="10" type="line"/>
      <point x="623" y="85"/>
      <point x="551" y="202"/>
    </contour>
    <contour>
      <point x="656" y="285" type="curve"/>
      <point x="631" y="303" type="line"/>
      <point x="607" y="270"/>
      <point x="560" y="219"/>
      <point x="527" y="188" type="curve"/>
      <point x="548" y="173" type="line"/>
      <point x="581" y="202"/>
      <point x="624" y="245"/>
    </contour>
    <contour>
      <point x="390" y="49" type="line"/>
      <point x="390" y="722" type="line"/>
      <point x="361" y="722" type="line"/>
      <point x="361" y="36" type="line"/>
    </contour>
  </outline>
</glyph>
<glyph name="uni559A" format="2">
  <advance width="1000" height="1000"/>
  <unicode hex="559A"/>
  <note>
cid12577
</note>
  <outline>
    <contour>
      <point x="554" y="826" type="curve"/>
      <point x="523" y="830" type="line"/>
      <point x="485" y="740"/>
      <point x="413" y="619"/>
      <point x="312" y="528" type="curve"/>
      <point x="320" y="525"/>
      <point x="329" y="518"/>
      <point x="335" y="512" type="curve"/>
      <point x="438" y="606"/>
      <point x="510" y="729"/>
    </contour>
    <contour>
      <point x="716" y="726" type="line"/>
      <point x="716" y="756" type="line"/>
      <point x="503" y="756" type="line"/>
      <point x="485" y="726" type="line"/>
    </contour>
    <contour>
      <point x="873" y="255" type="line"/>
      <point x="873" y="603" type="line"/>
      <point x="389" y="603" type="line"/>
      <point x="389" y="255" type="line"/>
      <point x="419" y="255" type="line"/>
      <point x="419" y="573" type="line"/>
      <point x="844" y="573" type="line"/>
      <point x="844" y="255" type="line"/>
    </contour>
    <contour>
      <point x="951" y="183" type="line"/>
      <point x="951" y="213" type="line"/>
      <point x="284" y="213" type="line"/>
      <point x="284" y="183" type="line"/>
    </contour>
    <contour>
      <point x="569" y="523" type="curve" smooth="yes"/>
      <point x="569" y="596" type="line"/>
      <point x="539" y="596" type="line"/>
      <point x="539" y="524" type="line" smooth="yes"/>
      <point x="539" y="461"/>
      <point x="528" y="388"/>
      <point x="425" y="337" type="curve"/>
      <point x="432" y="332"/>
      <point x="442" y="323"/>
      <point x="447" y="316" type="curve"/>
      <point x="555" y="373"/>
      <point x="569" y="450"/>
    </contour>
    <contour>
      <point x="659" y="206" type="curve"/>
      <point x="630" y="199" type="line"/>
      <point x="674" y="53"/>
      <point x="783" y="-34"/>
      <point x="945" y="-72" type="curve"/>
      <point x="950" y="-64"/>
      <point x="958" y="-53"/>
      <point x="966" y="-46" type="curve"/>
      <point x="805" y="-15"/>
      <point x="700" y="69"/>
    </contour>
    <contour>
      <point x="639" y="330" type="curve"/>
      <point x="608" y="330" type="line"/>
      <point x="585" y="128"/>
      <point x="517" y="5"/>
      <point x="252" y="-49" type="curve"/>
      <point x="257" y="-55"/>
      <point x="265" y="-65"/>
      <point x="268" y="-72" type="curve"/>
      <point x="538" y="-15"/>
      <point x="613" y="112"/>
    </contour>
    <contour>
      <point x="702" y="415" type="curve" smooth="yes"/>
      <point x="702" y="594" type="line"/>
      <point x="672" y="594" type="line"/>
      <point x="672" y="416" type="line" smooth="yes"/>
      <point x="672" y="377"/>
      <point x="684" y="372"/>
      <point x="730" y="372" type="curve" smooth="yes"/>
      <point x="738" y="372"/>
      <point x="821" y="372"/>
      <point x="829" y="372" type="curve" smooth="yes"/>
      <point x="857" y="372"/>
      <point x="868" y="377"/>
      <point x="870" y="390" type="curve"/>
      <point x="862" y="392"/>
      <point x="851" y="395"/>
      <point x="844" y="400" type="curve"/>
      <point x="842" y="398"/>
      <point x="839" y="398"/>
      <point x="823" y="398" type="curve" smooth="yes"/>
      <point x="808" y="398"/>
      <point x="741" y="398"/>
      <point x="730" y="398" type="curve" smooth="yes"/>
      <point x="706" y="398"/>
      <point x="702" y="401"/>
    </contour>
    <contour>
      <point x="718" y="758" type="line"/>
      <point x="712" y="756" type="line"/>
      <point x="706" y="756" type="line"/>
      <point x="706" y="749" type="line"/>
      <point x="686" y="700"/>
      <point x="650" y="634"/>
      <point x="617" y="596" type="curve"/>
      <point x="623" y="593"/>
      <point x="634" y="587"/>
      <point x="639" y="583" type="curve"/>
      <point x="672" y="622"/>
      <point x="712" y="686"/>
      <point x="736" y="745" type="curve"/>
    </contour>
    <contour>
      <point x="314" y="238" type="line"/>
      <point x="314" y="733" type="line"/>
      <point x="98" y="733" type="line"/>
      <point x="98" y="704" type="line"/>
      <point x="284" y="704" type="line"/>
      <point x="284" y="268" type="line"/>
      <point x="98" y="268" type="line"/>
      <point x="98" y="238" type="line"/>
    </contour>
    <contour>
      <point x="113" y="155" type="line"/>
      <point x="113" y="733" type="line"/>
      <point x="84" y="733" type="line"/>
      <point x="84" y="155" type="line"/>
    </contour>
  </outline>
</glyph>
<glyph name="uni55B3" format="2">
  <advance width="1000" height="1000"/>
  <unicode hex="55B3"/>
  <note>
cid12602
</note>
  <outline>
    <contour>
      <point x="952" y="0" type="line"/>
      <point x="342" y="0" type="line"/>
      <point x="342" y="-29" type="line"/>
      <point x="952" y="-29" type="line"/>
    </contour>
    <contour>
      <point x="856" y="403" type="line"/>
      <point x="448" y="403" type="line"/>
      <point x="448" y="101" type="line"/>
      <point x="856" y="101" type="line"/>
    </contour>
    <contour>
      <point x="478" y="131" type="line"/>
      <point x="478" y="237" type="line"/>
      <point x="827" y="237" type="line"/>
      <point x="827" y="131" type="line"/>
    </contour>
    <contour>
      <point x="478" y="267" type="line"/>
      <point x="478" y="374" type="line"/>
      <point x="827" y="374" type="line"/>
      <point x="827" y="267" type="line"/>
    </contour>
    <contour>
      <point x="940" y="697" type="line"/>
      <point x="366" y="697" type="line"/>
      <point x="366" y="668" type="line"/>
      <point x="940" y="668" type="line"/>
    </contour>
    <contour>
      <point x="665" y="831" type="line"/>
      <point x="635" y="831" type="line"/>
      <point x="635" y="435" type="line"/>
      <point x="665" y="435" type="line"/>
    </contour>
    <contour>
      <point x="638" y="678" type="curve"/>
      <point x="614" y="689" type="line"/>
      <point x="557" y="587"/>
      <point x="445" y="484"/>
      <point x="348" y="437" type="curve"/>
      <point x="355" y="431"/>
      <point x="364" y="423"/>
      <point x="369" y="415" type="curve"/>
      <point x="466" y="467"/>
      <point x="579" y="572"/>
    </contour>
    <contour>
      <point x="686" y="689" type="curve"/>
      <point x="662" y="678" type="line"/>
      <point x="720" y="574"/>
      <point x="836" y="469"/>
      <point x="935" y="419" type="curve"/>
      <point x="940" y="426"/>
      <point x="949" y="436"/>
      <point x="956" y="441" type="curve"/>
      <point x="856" y="487"/>
      <point x="743" y="588"/>
    </contour>
    <contour>
      <point x="317" y="721" type="line"/>
      <point x="98" y="721" type="line"/>
      <point x="98" y="692" type="line"/>
      <point x="287" y="692" type="line"/>
      <point x="287" y="232" type="line"/>
      <point x="98" y="232" type="line"/>
      <point x="98" y="203" type="line"/>
      <point x="317" y="203" type="line"/>
    </contour>
    <contour>
      <point x="113" y="721" type="line"/>
      <point x="84" y="721" type="line"/>
      <point x="84" y="126" type="line"/>
      <point x="113" y="126" type="line"/>
    </contour>
  </outline>
</glyph>
<glyph name="uni55BA" format="2">
  <advance width="1000"/>
  <unicode hex="55BA"/>
  <note>
cid12636
</note>
  <outline>
    <contour>
      <point x="521" y="825" type="curve"/>
      <point x="492" y="831" type="line"/>
      <point x="449" y="670"/>
      <point x="378" y="516"/>
      <point x="289" y="414" type="curve"/>
      <point x="297" y="408"/>
      <point x="309" y="398"/>
      <point x="313" y="392" type="curve"/>
      <point x="401" y="500"/>
      <point x="474" y="657"/>
    </contour>
    <contour>
      <point x="296" y="198" type="line"/>
      <point x="296" y="720" type="line"/>
      <point x="98" y="720" type="line"/>
      <point x="98" y="691" type="line"/>
      <point x="267" y="691" type="line"/>
      <point x="267" y="228" type="line"/>
      <point x="98" y="228" type="line"/>
      <point x="98" y="198" type="line"/>
    </contour>
    <contour>
      <point x="113" y="112" type="line"/>
      <point x="113" y="720" type="line"/>
      <point x="84" y="720" type="line"/>
      <point x="84" y="112" type="line"/>
    </contour>
    <contour>
      <point x="452" y="648" type="line"/>
      <point x="449" y="650" type="line"/>
      <point x="423" y="622" type="line"/>
      <point x="423" y="-70" type="line"/>
      <point x="452" y="-70" type="line"/>
    </contour>
    <contour>
      <point x="751" y="-73" type="line"/>
      <point x="751" y="324" type="line"/>
      <point x="721" y="324" type="line"/>
      <point x="721" y="-73" type="line"/>
    </contour>
    <contour>
      <point x="508" y="327" type="curve"/>
      <point x="513" y="296" type="line"/>
      <point x="623" y="302"/>
      <point x="770" y="312"/>
      <point x="917" y="322" type="curve"/>
      <point x="917" y="347" type="line"/>
      <point x="767" y="338"/>
      <point x="613" y="331"/>
    </contour>
    <contour>
      <point x="877" y="660" type="curve"/>
      <point x="851" y="674" type="line"/>
      <point x="785" y="565"/>
      <point x="671" y="413"/>
      <point x="586" y="321" type="curve"/>
      <point x="609" y="307" type="line"/>
      <point x="695" y="399"/>
      <point x="804" y="545"/>
    </contour>
    <contour>
      <point x="751" y="749" type="curve"/>
      <point x="723" y="767" type="line"/>
      <point x="693" y="709"/>
      <point x="638" y="623"/>
      <point x="598" y="574" type="curve"/>
      <point x="620" y="560" type="line"/>
      <point x="661" y="608"/>
      <point x="714" y="688"/>
    </contour>
    <contour>
      <point x="850" y="231" type="curve"/>
      <point x="824" y="222" type="line"/>
      <point x="871" y="150"/>
      <point x="917" y="53"/>
      <point x="933" y="-8" type="curve"/>
      <point x="961" y="5" type="line"/>
      <point x="945" y="65"/>
      <point x="898" y="160"/>
    </contour>
    <contour>
      <point x="848" y="459" type="curve"/>
      <point x="825" y="448" type="line"/>
      <point x="872" y="388"/>
      <point x="920" y="307"/>
      <point x="939" y="255" type="curve"/>
      <point x="962" y="268" type="line"/>
      <point x="944" y="320"/>
      <point x="896" y="400"/>
    </contour>
    <contour>
      <point x="558" y="615" type="curve"/>
      <point x="539" y="599" type="line"/>
      <point x="601" y="554"/>
      <point x="670" y="489"/>
      <point x="703" y="444" type="curve"/>
      <point x="722" y="462" type="line"/>
      <point x="690" y="507"/>
      <point x="621" y="571"/>
    </contour>
    <contour>
      <point x="638" y="223" type="curve"/>
      <point x="609" y="229" type="line"/>
      <point x="586" y="142"/>
      <point x="549" y="57"/>
      <point x="503" y="-3" type="curve"/>
      <point x="511" y="-7"/>
      <point x="524" y="-16"/>
      <point x="528" y="-20" type="curve"/>
      <point x="573" y="41"/>
      <point x="613" y="131"/>
    </contour>
    <contour>
      <point x="921" y="800" type="curve"/>
      <point x="890" y="822" type="line"/>
      <point x="809" y="794"/>
      <point x="651" y="767"/>
      <point x="520" y="750" type="curve"/>
      <point x="524" y="743"/>
      <point x="529" y="733"/>
      <point x="531" y="726" type="curve"/>
      <point x="665" y="742"/>
      <point x="822" y="768"/>
    </contour>
  </outline>
</glyph>
<glyph name="uni55BB" format="2">
  <advance width="1000"/>
  <unicode hex="55BB"/>
  <note>
cid12615
</note>
  <outline>
    <contour>
      <point x="303" y="218" type="line"/>
      <point x="303" y="721" type="line"/>
      <point x="99" y="721" type="line"/>
      <point x="99" y="692" type="line"/>
      <point x="274" y="692" type="line"/>
      <point x="274" y="247" type="line"/>
      <point x="99" y="247" type="line"/>
      <point x="99" y="218" type="line"/>
    </contour>
    <contour>
      <point x="113" y="126" type="line"/>
      <point x="113" y="721" type="line"/>
      <point x="84" y="721" type="line"/>
      <point x="84" y="126" type="line"/>
    </contour>
    <contour>
      <point x="815" y="535" type="line"/>
      <point x="815" y="565" type="line"/>
      <point x="470" y="565" type="line"/>
      <point x="470" y="535" type="line"/>
    </contour>
    <contour>
      <point x="594" y="260" type="line"/>
      <point x="594" y="289" type="line"/>
      <point x="395" y="289" type="line"/>
      <point x="395" y="260" type="line"/>
    </contour>
    <contour>
      <point x="594" y="110" type="line"/>
      <point x="594" y="139" type="line"/>
      <point x="395" y="139" type="line"/>
      <point x="395" y="110" type="line"/>
    </contour>
    <contour>
      <point x="608" y="-26" type="curve" smooth="yes"/>
      <point x="608" y="437" type="line"/>
      <point x="579" y="437" type="line"/>
      <point x="579" y="-27" type="line" smooth="yes"/>
      <point x="579" y="-37"/>
      <point x="576" y="-40"/>
      <point x="565" y="-41" type="curve" smooth="yes"/>
      <point x="555" y="-41"/>
      <point x="520" y="-41"/>
      <point x="477" y="-40" type="curve"/>
      <point x="482" y="-49"/>
      <point x="488" y="-61"/>
      <point x="489" y="-69" type="curve"/>
      <point x="540" y="-69"/>
      <point x="570" y="-68"/>
      <point x="587" y="-64" type="curve" smooth="yes"/>
      <point x="604" y="-58"/>
      <point x="608" y="-48"/>
    </contour>
    <contour>
      <point x="598" y="408" type="line"/>
      <point x="598" y="437" type="line"/>
      <point x="381" y="437" type="line"/>
      <point x="381" y="-70" type="line"/>
      <point x="411" y="-70" type="line"/>
      <point x="411" y="408" type="line"/>
    </contour>
    <contour>
      <point x="724" y="84" type="line"/>
      <point x="724" y="420" type="line"/>
      <point x="695" y="420" type="line"/>
      <point x="695" y="84" type="line"/>
    </contour>
    <contour>
      <point x="633" y="795" type="curve"/>
      <point x="705" y="695"/>
      <point x="828" y="588"/>
      <point x="939" y="521" type="curve"/>
      <point x="943" y="527"/>
      <point x="951" y="539"/>
      <point x="957" y="545" type="curve"/>
      <point x="849" y="607"/>
      <point x="721" y="716"/>
      <point x="646" y="824" type="curve"/>
      <point x="616" y="824" type="line"/>
      <point x="559" y="720"/>
      <point x="439" y="607"/>
      <point x="318" y="536" type="curve"/>
      <point x="325" y="530"/>
      <point x="333" y="521"/>
      <point x="337" y="514" type="curve"/>
      <point x="459" y="588"/>
      <point x="573" y="699"/>
    </contour>
    <contour>
      <point x="893" y="-25" type="curve" smooth="yes"/>
      <point x="893" y="449" type="line"/>
      <point x="863" y="449" type="line"/>
      <point x="863" y="-25" type="line" smooth="yes"/>
      <point x="863" y="-37"/>
      <point x="860" y="-41"/>
      <point x="847" y="-42" type="curve" smooth="yes"/>
      <point x="834" y="-43"/>
      <point x="792" y="-43"/>
      <point x="737" y="-41" type="curve"/>
      <point x="742" y="-51"/>
      <point x="748" y="-63"/>
      <point x="750" y="-71" type="curve"/>
      <point x="811" y="-71"/>
      <point x="849" y="-71"/>
      <point x="867" y="-65" type="curve" smooth="yes"/>
      <point x="886" y="-60"/>
      <point x="893" y="-50"/>
    </contour>
  </outline>
</glyph>
<glyph name="uni55D6" format="2">
  <advance width="1000" height="1000"/>
  <unicode hex="55D6"/>
  <note>
cid12691
</note>
  <outline>
    <contour>
      <point x="586" y="764" type="curve"/>
      <point x="559" y="785" type="line"/>
      <point x="525" y="762"/>
      <point x="461" y="735"/>
      <point x="407" y="717" type="curve"/>
      <point x="411" y="710"/>
      <point x="416" y="700"/>
      <point x="419" y="694" type="curve"/>
      <point x="475" y="712"/>
      <point x="540" y="737"/>
    </contour>
    <contour>
      <point x="428" y="407" type="line"/>
      <point x="428" y="720" type="line"/>
      <point x="399" y="730" type="line"/>
      <point x="399" y="407" type="line"/>
    </contour>
    <contour>
      <point x="869" y="709" type="line"/>
      <point x="869" y="426" type="line"/>
      <point x="709" y="426" type="line"/>
      <point x="709" y="397" type="line"/>
      <point x="899" y="397" type="line"/>
      <point x="899" y="738" type="line"/>
      <point x="710" y="738" type="line"/>
      <point x="710" y="709" type="line"/>
    </contour>
    <contour>
      <point x="568" y="556" type="line"/>
      <point x="568" y="585" type="line"/>
      <point x="413" y="585" type="line"/>
      <point x="413" y="556" type="line"/>
    </contour>
    <contour>
      <point x="576" y="397" type="line"/>
      <point x="576" y="426" type="line"/>
      <point x="399" y="426" type="line"/>
      <point x="399" y="397" type="line"/>
    </contour>
    <contour>
      <point x="882" y="556" type="line"/>
      <point x="882" y="585" type="line"/>
      <point x="719" y="585" type="line"/>
      <point x="719" y="556" type="line"/>
    </contour>
    <contour>
      <point x="662" y="271" type="line"/>
      <point x="662" y="830" type="line"/>
      <point x="632" y="830" type="line"/>
      <point x="632" y="271" type="line"/>
    </contour>
    <contour>
      <point x="871" y="262" type="line"/>
      <point x="871" y="291" type="line"/>
      <point x="373" y="291" type="line"/>
      <point x="373" y="262" type="line"/>
    </contour>
    <contour>
      <point x="877" y="293" type="line"/>
      <point x="870" y="291" type="line"/>
      <point x="864" y="291" type="line"/>
      <point x="864" y="284" type="line"/>
      <point x="779" y="91"/>
      <point x="546" y="-8"/>
      <point x="327" y="-43" type="curve"/>
      <point x="333" y="-50"/>
      <point x="340" y="-63"/>
      <point x="343" y="-70" type="curve"/>
      <point x="569" y="-29"/>
      <point x="805" y="72"/>
      <point x="897" y="281" type="curve"/>
    </contour>
    <contour>
      <point x="477" y="264" type="curve"/>
      <point x="450" y="253" type="line"/>
      <point x="537" y="91"/>
      <point x="723" y="-34"/>
      <point x="932" y="-71" type="curve"/>
      <point x="937" y="-62"/>
      <point x="945" y="-51"/>
      <point x="953" y="-44" type="curve"/>
      <point x="743" y="-11"/>
      <point x="559" y="108"/>
    </contour>
    <contour>
      <point x="313" y="217" type="line"/>
      <point x="313" y="720" type="line"/>
      <point x="100" y="720" type="line"/>
      <point x="100" y="691" type="line"/>
      <point x="283" y="691" type="line"/>
      <point x="283" y="246" type="line"/>
      <point x="100" y="246" type="line"/>
      <point x="100" y="217" type="line"/>
    </contour>
    <contour>
      <point x="113" y="138" type="line"/>
      <point x="113" y="720" type="line"/>
      <point x="84" y="720" type="line"/>
      <point x="84" y="138" type="line"/>
    </contour>
  </outline>
</glyph>
<glyph name="uni55E1" format="2">
  <advance width="1000"/>
  <unicode hex="55E1"/>
  <note>
cid12691
</note>
  <outline>
    <contour>
      <point x="598" y="382" type="line"/>
      <point x="337" y="382" type="line"/>
      <point x="337" y="353" type="line"/>
      <point x="598" y="353" type="line"/>
    </contour>
    <contour>
      <point x="604" y="382" type="line"/>
      <point x="575" y="382" type="line"/>
      <point x="575" y="-25" type="line" smooth="yes"/>
      <point x="575" y="-36"/>
      <point x="572" y="-40"/>
      <point x="560" y="-40" type="curve" smooth="yes"/>
      <point x="548" y="-41"/>
      <point x="510" y="-41"/>
      <point x="458" y="-40" type="curve"/>
      <point x="463" y="-50"/>
      <point x="469" y="-62"/>
      <point x="471" y="-70" type="curve"/>
      <point x="527" y="-70"/>
      <point x="562" y="-70"/>
      <point x="581" y="-65" type="curve" smooth="yes"/>
      <point x="600" y="-59"/>
      <point x="604" y="-48"/>
      <point x="604" y="-25" type="curve" smooth="yes"/>
    </contour>
    <contour>
      <point x="375" y="512" type="curve"/>
      <point x="381" y="479" type="line"/>
      <point x="497" y="485"/>
      <point x="666" y="495"/>
      <point x="828" y="505" type="curve"/>
      <point x="829" y="532" type="line"/>
      <point x="659" y="523"/>
      <point x="486" y="516"/>
    </contour>
    <contour>
      <point x="539" y="788" type="curve"/>
      <point x="512" y="795" type="line"/>
      <point x="474" y="725"/>
      <point x="402" y="663"/>
      <point x="332" y="621" type="curve"/>
      <point x="338" y="616"/>
      <point x="348" y="603"/>
      <point x="352" y="598" type="curve"/>
      <point x="423" y="643"/>
      <point x="498" y="713"/>
    </contour>
    <contour>
      <point x="599" y="678" type="curve"/>
      <point x="570" y="690" type="line"/>
      <point x="546" y="637"/>
      <point x="501" y="557"/>
      <point x="467" y="509" type="curve"/>
      <point x="491" y="497" type="line"/>
      <point x="527" y="545"/>
      <point x="568" y="619"/>
    </contour>
    <contour>
      <point x="715" y="620" type="curve"/>
      <point x="691" y="605" type="line"/>
      <point x="758" y="561"/>
      <point x="838" y="492"/>
      <point x="877" y="447" type="curve"/>
      <point x="902" y="465" type="line"/>
      <point x="864" y="509"/>
      <point x="782" y="575"/>
    </contour>
    <contour>
      <point x="756" y="801" type="curve"/>
      <point x="720" y="801" type="line"/>
      <point x="720" y="780" type="line"/>
      <point x="733" y="780" type="line"/>
      <point x="773" y="703"/>
      <point x="862" y="641"/>
      <point x="941" y="607" type="curve"/>
      <point x="946" y="616"/>
      <point x="956" y="625"/>
      <point x="964" y="630" type="curve"/>
      <point x="884" y="661"/>
      <point x="793" y="723"/>
    </contour>
    <contour>
      <point x="749" y="801" type="line"/>
      <point x="581" y="801" type="line"/>
      <point x="581" y="771" type="line"/>
      <point x="749" y="771" type="line"/>
    </contour>
    <contour>
      <point x="517" y="352" type="curve"/>
      <point x="489" y="361" type="line"/>
      <point x="449" y="301"/>
      <point x="385" y="240"/>
      <point x="323" y="203" type="curve"/>
      <point x="330" y="198"/>
      <point x="342" y="185"/>
      <point x="346" y="180" type="curve"/>
      <point x="410" y="223"/>
      <point x="476" y="289"/>
    </contour>
    <contour>
      <point x="579" y="238" type="curve"/>
      <point x="551" y="246" type="line"/>
      <point x="499" y="154"/>
      <point x="406" y="64"/>
      <point x="312" y="12" type="curve"/>
      <point x="320" y="6"/>
      <point x="333" y="-6"/>
      <point x="338" y="-12" type="curve"/>
      <point x="433" y="46"/>
      <point x="526" y="142"/>
    </contour>
    <contour>
      <point x="916" y="382" type="line"/>
      <point x="644" y="382" type="line"/>
      <point x="644" y="353" type="line"/>
      <point x="916" y="353" type="line"/>
    </contour>
    <contour>
      <point x="920" y="382" type="line"/>
      <point x="890" y="382" type="line"/>
      <point x="890" y="-25" type="line" smooth="yes"/>
      <point x="890" y="-36"/>
      <point x="888" y="-40"/>
      <point x="876" y="-40" type="curve" smooth="yes"/>
      <point x="863" y="-41"/>
      <point x="826" y="-41"/>
      <point x="775" y="-40" type="curve"/>
      <point x="781" y="-50"/>
      <point x="786" y="-62"/>
      <point x="788" y="-70" type="curve"/>
      <point x="842" y="-70"/>
      <point x="879" y="-70"/>
      <point x="896" y="-65" type="curve" smooth="yes"/>
      <point x="915" y="-59"/>
      <point x="920" y="-48"/>
      <point x="920" y="-25" type="curve" smooth="yes"/>
    </contour>
    <contour>
      <point x="822" y="352" type="curve"/>
      <point x="793" y="361" type="line"/>
      <point x="756" y="304"/>
      <point x="694" y="243"/>
      <point x="632" y="203" type="curve"/>
      <point x="640" y="198"/>
      <point x="650" y="186"/>
      <point x="655" y="180" type="curve"/>
      <point x="717" y="224"/>
      <point x="781" y="290"/>
    </contour>
    <contour>
      <point x="894" y="240" type="curve"/>
      <point x="865" y="248" type="line"/>
      <point x="819" y="161"/>
      <point x="731" y="72"/>
      <point x="638" y="18" type="curve"/>
      <point x="646" y="12"/>
      <point x="657" y="0"/>
      <point x="661" y="-6" type="curve"/>
      <point x="755" y="51"/>
      <point x="844" y="146"/>
    </contour>
    <contour>
      <point x="299" y="720" type="line"/>
      <point x="98" y="720" type="line"/>
      <point x="98" y="691" type="line"/>
      <point x="270" y="691" type="line"/>
      <point x="270" y="228" type="line"/>
      <point x="98" y="228" type="line"/>
      <point x="98" y="198" type="line"/>
      <point x="299" y="198" type="line"/>
    </contour>
    <contour>
      <point x="113" y="720" type="line"/>
      <point x="84" y="720" type="line"/>
      <point x="84" y="116" type="line"/>
      <point x="113" y="116" type="line"/>
    </contour>
  </outline>
</glyph>
<glyph name="uni55F2" format="2">
  <advance width="1000" height="1000"/>
  <unicode hex="55F2"/>
  <note>
cid12739
</note>
  <outline>
    <contour>
      <point x="765" y="719" type="curve"/>
      <point x="739" y="731" type="line"/>
      <point x="651" y="638"/>
      <point x="490" y="558"/>
      <point x="322" y="523" type="curve"/>
      <point x="329" y="515"/>
      <point x="336" y="502"/>
      <point x="339" y="494" type="curve"/>
      <point x="509" y="534"/>
      <point x="674" y="621"/>
    </contour>
    <contour>
      <point x="560" y="808" type="curve"/>
      <point x="532" y="817" type="line"/>
      <point x="486" y="766"/>
      <point x="409" y="714"/>
      <point x="333" y="681" type="curve"/>
      <point x="340" y="675"/>
      <point x="349" y="665"/>
      <point x="354" y="658" type="curve"/>
      <point x="428" y="692"/>
      <point x="507" y="749"/>
    </contour>
    <contour>
      <point x="524" y="727" type="curve"/>
      <point x="501" y="713" type="line"/>
      <point x="602" y="613"/>
      <point x="769" y="527"/>
      <point x="933" y="491" type="curve"/>
      <point x="938" y="499"/>
      <point x="946" y="509"/>
      <point x="953" y="516" type="curve"/>
      <point x="788" y="549"/>
      <point x="623" y="630"/>
    </contour>
    <contour>
      <point x="730" y="819" type="curve"/>
      <point x="710" y="801" type="line"/>
      <point x="789" y="756"/>
      <point x="875" y="694"/>
      <point x="919" y="651" type="curve"/>
      <point x="938" y="673" type="line"/>
      <point x="891" y="716"/>
      <point x="806" y="777"/>
    </contour>
    <contour>
      <point x="493" y="413" type="curve"/>
      <point x="469" y="398" type="line"/>
      <point x="516" y="368"/>
      <point x="568" y="326"/>
      <point x="593" y="298" type="curve"/>
      <point x="616" y="315" type="line"/>
      <point x="589" y="344"/>
      <point x="538" y="384"/>
    </contour>
    <contour>
      <point x="749" y="482" type="line"/>
      <point x="744" y="480" type="line"/>
      <point x="736" y="480" type="line"/>
      <point x="736" y="471" type="line"/>
      <point x="669" y="342"/>
      <point x="494" y="244"/>
      <point x="349" y="206" type="curve"/>
      <point x="357" y="199"/>
      <point x="366" y="188"/>
      <point x="371" y="180" type="curve"/>
      <point x="520" y="224"/>
      <point x="696" y="324"/>
      <point x="770" y="470" type="curve"/>
    </contour>
    <contour>
      <point x="748" y="451" type="line"/>
      <point x="748" y="480" type="line"/>
      <point x="571" y="480" type="line"/>
      <point x="540" y="451" type="line"/>
    </contour>
    <contour>
      <point x="596" y="190" type="curve"/>
      <point x="573" y="173" type="line"/>
      <point x="626" y="136"/>
      <point x="683" y="87"/>
      <point x="711" y="53" type="curve"/>
      <point x="734" y="71" type="line"/>
      <point x="705" y="104"/>
      <point x="648" y="153"/>
    </contour>
    <contour>
      <point x="896" y="267" type="line"/>
      <point x="890" y="265" type="line"/>
      <point x="882" y="265" type="line"/>
      <point x="882" y="257" type="line"/>
      <point x="800" y="95"/>
      <point x="579" y="-8"/>
      <point x="384" y="-45" type="curve"/>
      <point x="391" y="-52"/>
      <point x="399" y="-64"/>
      <point x="403" y="-72" type="curve"/>
      <point x="601" y="-29"/>
      <point x="826" y="74"/>
      <point x="916" y="255" type="curve"/>
    </contour>
    <contour>
      <point x="892" y="236" type="line"/>
      <point x="892" y="265" type="line"/>
      <point x="690" y="265" type="line"/>
      <point x="659" y="236" type="line"/>
    </contour>
    <contour>
      <point x="630" y="544" type="curve"/>
      <point x="601" y="553" type="line"/>
      <point x="557" y="472"/>
      <point x="462" y="394"/>
      <point x="353" y="351" type="curve"/>
      <point x="360" y="345"/>
      <point x="369" y="336"/>
      <point x="374" y="330" type="curve"/>
      <point x="483" y="374"/>
      <point x="582" y="457"/>
    </contour>
    <contour>
      <point x="769" y="336" type="curve"/>
      <point x="739" y="345" type="line"/>
      <point x="680" y="252"/>
      <point x="556" y="163"/>
      <point x="416" y="115" type="curve"/>
      <point x="423" y="109"/>
      <point x="432" y="99"/>
      <point x="436" y="93" type="curve"/>
      <point x="578" y="142"/>
      <point x="707" y="236"/>
    </contour>
    <contour>
      <point x="296" y="217" type="line"/>
      <point x="296" y="720" type="line"/>
      <point x="98" y="720" type="line"/>
      <point x="98" y="691" type="line"/>
      <point x="267" y="691" type="line"/>
      <point x="267" y="246" type="line"/>
      <point x="98" y="246" type="line"/>
      <point x="98" y="217" type="line"/>
    </contour>
    <contour>
      <point x="113" y="130" type="line"/>
      <point x="113" y="720" type="line"/>
      <point x="84" y="720" type="line"/>
      <point x="84" y="130" type="line"/>
    </contour>
  </outline>
</glyph>
<glyph name="uni560C" format="2">
  <advance width="1000" height="1000"/>
  <unicode hex="560C"/>
  <note>
cid12788
</note>
  <outline>
    <contour>
      <point x="881" y="458" type="line"/>
      <point x="404" y="458" type="line"/>
      <point x="404" y="618" type="line"/>
      <point x="881" y="618" type="line"/>
    </contour>
    <contour>
      <point x="911" y="428" type="line"/>
      <point x="911" y="647" type="line"/>
      <point x="375" y="647" type="line"/>
      <point x="375" y="428" type="line"/>
    </contour>
    <contour>
      <point x="901" y="316" type="line"/>
      <point x="901" y="345" type="line"/>
      <point x="393" y="345" type="line"/>
      <point x="393" y="316" type="line"/>
    </contour>
    <contour>
      <point x="950" y="191" type="line"/>
      <point x="950" y="221" type="line"/>
      <point x="332" y="221" type="line"/>
      <point x="332" y="191" type="line"/>
    </contour>
    <contour>
      <point x="500" y="133" type="curve"/>
      <point x="472" y="142" type="line"/>
      <point x="434" y="84"/>
      <point x="375" y="26"/>
      <point x="318" y="-16" type="curve"/>
      <point x="326" y="-20"/>
      <point x="337" y="-31"/>
      <point x="342" y="-36" type="curve"/>
      <point x="397" y="7"/>
      <point x="459" y="73"/>
    </contour>
    <contour>
      <point x="938" y="749" type="line"/>
      <point x="938" y="778" type="line"/>
      <point x="346" y="778" type="line"/>
      <point x="346" y="749" type="line"/>
    </contour>
    <contour>
      <point x="574" y="633" type="line"/>
      <point x="574" y="770" type="line"/>
      <point x="545" y="770" type="line"/>
      <point x="545" y="633" type="line"/>
    </contour>
    <contour>
      <point x="739" y="633" type="line"/>
      <point x="739" y="770" type="line"/>
      <point x="710" y="770" type="line"/>
      <point x="710" y="633" type="line"/>
    </contour>
    <contour>
      <point x="574" y="441" type="line"/>
      <point x="574" y="635" type="line"/>
      <point x="545" y="635" type="line"/>
      <point x="545" y="441" type="line"/>
    </contour>
    <contour>
      <point x="739" y="441" type="line"/>
      <point x="739" y="635" type="line"/>
      <point x="710" y="635" type="line"/>
      <point x="710" y="441" type="line"/>
    </contour>
    <contour>
      <point x="659" y="-27" type="curve" smooth="yes"/>
      <point x="659" y="211" type="line"/>
      <point x="629" y="211" type="line"/>
      <point x="629" y="-28" type="line" smooth="yes"/>
      <point x="629" y="-38"/>
      <point x="627" y="-42"/>
      <point x="614" y="-42" type="curve"/>
      <point x="600" y="-44"/>
      <point x="562" y="-44"/>
      <point x="505" y="-42" type="curve"/>
      <point x="510" y="-52"/>
      <point x="516" y="-63"/>
      <point x="517" y="-71" type="curve"/>
      <point x="578" y="-71"/>
      <point x="616" y="-71"/>
      <point x="635" y="-65" type="curve" smooth="yes"/>
      <point x="654" y="-60"/>
      <point x="659" y="-50"/>
    </contour>
    <contour>
      <point x="783" y="141" type="curve"/>
      <point x="763" y="124" type="line"/>
      <point x="822" y="77"/>
      <point x="891" y="9"/>
      <point x="924" y="-36" type="curve"/>
      <point x="948" y="-15" type="line"/>
      <point x="915" y="29"/>
      <point x="845" y="94"/>
    </contour>
    <contour>
      <point x="314" y="217" type="line"/>
      <point x="314" y="720" type="line"/>
      <point x="98" y="720" type="line"/>
      <point x="98" y="691" type="line"/>
      <point x="284" y="691" type="line"/>
      <point x="284" y="246" type="line"/>
      <point x="98" y="246" type="line"/>
      <point x="98" y="217" type="line"/>
    </contour>
    <contour>
      <point x="113" y="130" type="line"/>
      <point x="113" y="720" type="line"/>
      <point x="84" y="720" type="line"/>
      <point x="84" y="130" type="line"/>
    </contour>
  </outline>
</glyph>
<glyph name="uni5613" format="2">
  <advance width="1000" height="1000"/>
  <unicode hex="5613"/>
  <note>
cid12804
</note>
  <outline>
    <contour>
      <point x="419" y="200" type="curve"/>
      <point x="429" y="172" type="line"/>
      <point x="488" y="188"/>
      <point x="557" y="207"/>
      <point x="627" y="227" type="curve"/>
      <point x="623" y="255" type="line"/>
      <point x="545" y="233"/>
      <point x="473" y="213"/>
    </contour>
    <contour>
      <point x="921" y="-63" type="line"/>
      <point x="921" y="785" type="line"/>
      <point x="353" y="785" type="line"/>
      <point x="353" y="-70" type="line"/>
      <point x="382" y="-70" type="line"/>
      <point x="382" y="756" type="line"/>
      <point x="892" y="756" type="line"/>
      <point x="892" y="-63" type="line"/>
    </contour>
    <contour>
      <point x="863" y="568" type="line"/>
      <point x="863" y="597" type="line"/>
      <point x="417" y="597" type="line"/>
      <point x="417" y="568" type="line"/>
    </contour>
    <contour>
      <point x="907" y="-4" type="line"/>
      <point x="907" y="26" type="line"/>
      <point x="368" y="26" type="line"/>
      <point x="368" y="-4" type="line"/>
    </contour>
    <contour>
      <point x="747" y="712" type="curve"/>
      <point x="728" y="695" type="line"/>
      <point x="763" y="673"/>
      <point x="802" y="641"/>
      <point x="822" y="618" type="curve"/>
      <point x="841" y="638" type="line"/>
      <point x="821" y="661"/>
      <point x="780" y="691"/>
    </contour>
    <contour>
      <point x="475" y="276" type="line"/>
      <point x="475" y="501" type="line"/>
      <point x="445" y="501" type="line"/>
      <point x="445" y="276" type="line"/>
    </contour>
    <contour>
      <point x="829" y="492" type="curve"/>
      <point x="800" y="498" type="line"/>
      <point x="750" y="303"/>
      <point x="643" y="165"/>
      <point x="482" y="81" type="curve"/>
      <point x="490" y="76"/>
      <point x="502" y="65"/>
      <point x="507" y="59" type="curve"/>
      <point x="665" y="150"/>
      <point x="775" y="288"/>
    </contour>
    <contour>
      <point x="617" y="313" type="line"/>
      <point x="617" y="501" type="line"/>
      <point x="460" y="501" type="line"/>
      <point x="460" y="472" type="line"/>
      <point x="587" y="472" type="line"/>
      <point x="587" y="342" type="line"/>
      <point x="460" y="342" type="line"/>
      <point x="460" y="313" type="line"/>
    </contour>
    <contour>
      <point x="691" y="719" type="curve"/>
      <point x="662" y="719" type="line"/>
      <point x="672" y="373"/>
      <point x="704" y="79"/>
      <point x="818" y="76" type="curve" smooth="yes"/>
      <point x="844" y="75"/>
      <point x="862" y="111"/>
      <point x="872" y="217" type="curve"/>
      <point x="866" y="219"/>
      <point x="855" y="224"/>
      <point x="848" y="229" type="curve"/>
      <point x="842" y="151"/>
      <point x="830" y="108"/>
      <point x="816" y="108" type="curve" smooth="yes"/>
      <point x="738" y="111"/>
      <point x="697" y="376"/>
    </contour>
    <contour>
      <point x="285" y="198" type="line"/>
      <point x="285" y="720" type="line"/>
      <point x="99" y="720" type="line"/>
      <point x="99" y="691" type="line"/>
      <point x="256" y="691" type="line"/>
      <point x="256" y="228" type="line"/>
      <point x="99" y="228" type="line"/>
      <point x="99" y="198" type="line"/>
    </contour>
    <contour>
      <point x="113" y="116" type="line"/>
      <point x="113" y="720" type="line"/>
      <point x="84" y="720" type="line"/>
      <point x="84" y="116" type="line"/>
    </contour>
  </outline>
</glyph>
<glyph name="uni561C" format="2">
  <advance width="1000" height="1000"/>
  <unicode hex="561C"/>
  <note>
cid12818
</note>
  <outline>
    <contour>
      <point x="291" y="198" type="line"/>
      <point x="291" y="720" type="line"/>
      <point x="98" y="720" type="line"/>
      <point x="98" y="691" type="line"/>
      <point x="262" y="691" type="line"/>
      <point x="262" y="228" type="line"/>
      <point x="98" y="228" type="line"/>
      <point x="98" y="198" type="line"/>
    </contour>
    <contour>
      <point x="113" y="107" type="line"/>
      <point x="113" y="720" type="line"/>
      <point x="84" y="720" type="line"/>
      <point x="84" y="107" type="line"/>
    </contour>
    <contour>
      <point x="931" y="713" type="line"/>
      <point x="931" y="742" type="line"/>
      <point x="353" y="742" type="line"/>
      <point x="353" y="713" type="line"/>
    </contour>
    <contour>
      <point x="618" y="345" type="curve"/>
      <point x="587" y="352" type="line"/>
      <point x="543" y="271"/>
      <point x="453" y="192"/>
      <point x="355" y="147" type="curve"/>
      <point x="364" y="141"/>
      <point x="377" y="131"/>
      <point x="381" y="125" type="curve"/>
      <point x="481" y="174"/>
      <point x="572" y="259"/>
    </contour>
    <contour>
      <point x="487" y="659" type="curve"/>
      <point x="458" y="666" type="line"/>
      <point x="436" y="589"/>
      <point x="386" y="508"/>
      <point x="329" y="455" type="curve"/>
      <point x="336" y="451"/>
      <point x="349" y="442"/>
      <point x="354" y="437" type="curve"/>
      <point x="411" y="491"/>
      <point x="462" y="576"/>
    </contour>
    <contour>
      <point x="803" y="257" type="line"/>
      <point x="803" y="286" type="line"/>
      <point x="564" y="286" type="line"/>
      <point x="549" y="257" type="line"/>
    </contour>
    <contour>
      <point x="809" y="288" type="line"/>
      <point x="802" y="286" type="line"/>
      <point x="794" y="286" type="line"/>
      <point x="794" y="279" type="line"/>
      <point x="729" y="128"/>
      <point x="563" y="12"/>
      <point x="331" y="-44" type="curve"/>
      <point x="338" y="-50"/>
      <point x="347" y="-62"/>
      <point x="351" y="-70" type="curve"/>
      <point x="588" y="-10"/>
      <point x="759" y="115"/>
      <point x="828" y="277" type="curve"/>
    </contour>
    <contour>
      <point x="644" y="369" type="line"/>
      <point x="644" y="830" type="line"/>
      <point x="615" y="830" type="line"/>
      <point x="615" y="369" type="line"/>
    </contour>
    <contour>
      <point x="460" y="609" type="curve"/>
      <point x="439" y="592" type="line"/>
      <point x="470" y="568"/>
      <point x="505" y="530"/>
      <point x="525" y="500" type="curve"/>
      <point x="548" y="520" type="line"/>
      <point x="527" y="549"/>
      <point x="491" y="586"/>
    </contour>
    <contour>
      <point x="829" y="666" type="curve"/>
      <point x="800" y="671" type="line"/>
      <point x="787" y="607"/>
      <point x="757" y="541"/>
      <point x="721" y="498" type="curve"/>
      <point x="728" y="494"/>
      <point x="741" y="485"/>
      <point x="746" y="480" type="curve"/>
      <point x="782" y="525"/>
      <point x="814" y="597"/>
    </contour>
    <contour>
      <point x="807" y="611" type="curve"/>
      <point x="785" y="595" type="line"/>
      <point x="837" y="552"/>
      <point x="893" y="493"/>
      <point x="921" y="452" type="curve"/>
      <point x="945" y="471" type="line"/>
      <point x="917" y="512"/>
      <point x="860" y="570"/>
    </contour>
    <contour>
      <point x="641" y="537" type="curve"/>
      <point x="619" y="548" type="line"/>
      <point x="553" y="453"/>
      <point x="421" y="352"/>
      <point x="312" y="309" type="curve"/>
      <point x="319" y="303"/>
      <point x="329" y="292"/>
      <point x="333" y="284" type="curve"/>
      <point x="440" y="332"/>
      <point x="574" y="437"/>
    </contour>
    <contour>
      <point x="532" y="185" type="curve"/>
      <point x="513" y="165" type="line"/>
      <point x="639" y="114"/>
      <point x="800" y="6"/>
      <point x="874" y="-57" type="curve"/>
      <point x="895" y="-34" type="line"/>
      <point x="819" y="29"/>
      <point x="658" y="136"/>
    </contour>
    <contour>
      <point x="643" y="548" type="curve"/>
      <point x="619" y="537" type="line"/>
      <point x="683" y="429"/>
      <point x="813" y="329"/>
      <point x="934" y="284" type="curve"/>
      <point x="939" y="292"/>
      <point x="948" y="303"/>
      <point x="955" y="309" type="curve"/>
      <point x="833" y="349"/>
      <point x="705" y="444"/>
    </contour>
  </outline>
</glyph>
